<?xml version="1.0" encoding="utf-8" standalone="no"?>
<!DOCTYPE svg PUBLIC "-//W3C//DTD SVG 1.1//EN"
  "http://www.w3.org/Graphics/SVG/1.1/DTD/svg11.dtd">
<!-- Created with matplotlib (http://matplotlib.org/) -->
<svg height="288pt" version="1.1" viewBox="0 0 432 288" width="432pt" xmlns="http://www.w3.org/2000/svg" xmlns:xlink="http://www.w3.org/1999/xlink">
 <defs>
  <style type="text/css">
*{stroke-linecap:butt;stroke-linejoin:round;}
  </style>
 </defs>
 <g id="figure_1">
  <g id="patch_1">
   <path d="M 0 288 
L 432 288 
L 432 0 
L 0 0 
z
" style="fill:#ffffff;"/>
  </g>
  <g id="axes_1">
   <g id="patch_2">
    <path d="M 60.85 216.309375 
L 218.46875 216.309375 
L 218.46875 58.690625 
L 60.85 58.690625 
z
" style="fill:#ffffff;"/>
   </g>
   <g id="PathCollection_1">
    <defs>
     <path d="M 0 2.236068 
C 0.593012 2.236068 1.161816 2.000462 1.581139 1.581139 
C 2.000462 1.161816 2.236068 0.593012 2.236068 0 
C 2.236068 -0.593012 2.000462 -1.161816 1.581139 -1.581139 
C 1.161816 -2.000462 0.593012 -2.236068 0 -2.236068 
C -0.593012 -2.236068 -1.161816 -2.000462 -1.581139 -1.581139 
C -2.000462 -1.161816 -2.236068 -0.593012 -2.236068 0 
C -2.236068 0.593012 -2.000462 1.161816 -1.581139 1.581139 
C -1.161816 2.000462 -0.593012 2.236068 0 2.236068 
z
" id="m3fcc869763" style="stroke:#1f77b4;"/>
    </defs>
    <g clip-path="url(#peab1ec52fe)">
     <use style="fill:#1f77b4;stroke:#1f77b4;" x="98.869192" xlink:href="#m3fcc869763" y="133.98415"/>
     <use style="fill:#1f77b4;stroke:#1f77b4;" x="99.312496" xlink:href="#m3fcc869763" y="125.641457"/>
     <use style="fill:#1f77b4;stroke:#1f77b4;" x="79.492585" xlink:href="#m3fcc869763" y="114.021276"/>
     <use style="fill:#1f77b4;stroke:#1f77b4;" x="118.20865" xlink:href="#m3fcc869763" y="129.395669"/>
     <use style="fill:#1f77b4;stroke:#1f77b4;" x="154.992997" xlink:href="#m3fcc869763" y="136.725321"/>
     <use style="fill:#1f77b4;stroke:#1f77b4;" x="166.444611" xlink:href="#m3fcc869763" y="132.673156"/>
     <use style="fill:#1f77b4;stroke:#1f77b4;" x="183.852352" xlink:href="#m3fcc869763" y="123.496192"/>
     <use style="fill:#1f77b4;stroke:#1f77b4;" x="166.986978" xlink:href="#m3fcc869763" y="156.211471"/>
     <use style="fill:#1f77b4;stroke:#1f77b4;" x="133.251276" xlink:href="#m3fcc869763" y="171.526273"/>
     <use style="fill:#1f77b4;stroke:#1f77b4;" x="152.865632" xlink:href="#m3fcc869763" y="153.708662"/>
     <use style="fill:#1f77b4;stroke:#1f77b4;" x="143.506711" xlink:href="#m3fcc869763" y="132.613565"/>
     <use style="fill:#1f77b4;stroke:#1f77b4;" x="156.726589" xlink:href="#m3fcc869763" y="129.455259"/>
     <use style="fill:#1f77b4;stroke:#1f77b4;" x="92.444995" xlink:href="#m3fcc869763" y="155.496382"/>
     <use style="fill:#1f77b4;stroke:#1f77b4;" x="145.86192" xlink:href="#m3fcc869763" y="147.451642"/>
     <use style="fill:#1f77b4;stroke:#1f77b4;" x="123.290551" xlink:href="#m3fcc869763" y="138.810995"/>
     <use style="fill:#1f77b4;stroke:#1f77b4;" x="184.580461" xlink:href="#m3fcc869763" y="143.75702"/>
     <use style="fill:#1f77b4;stroke:#1f77b4;" x="124.397573" xlink:href="#m3fcc869763" y="124.15169"/>
     <use style="fill:#1f77b4;stroke:#1f77b4;" x="98.175755" xlink:href="#m3fcc869763" y="141.492575"/>
     <use style="fill:#1f77b4;stroke:#1f77b4;" x="166.964688" xlink:href="#m3fcc869763" y="110.565017"/>
     <use style="fill:#1f77b4;stroke:#1f77b4;" x="136.720936" xlink:href="#m3fcc869763" y="126.83327"/>
     <use style="fill:#1f77b4;stroke:#1f77b4;" x="180.078074" xlink:href="#m3fcc869763" y="144.114564"/>
     <use style="fill:#1f77b4;stroke:#1f77b4;" x="174.005549" xlink:href="#m3fcc869763" y="133.209472"/>
     <use style="fill:#1f77b4;stroke:#1f77b4;" x="102.725196" xlink:href="#m3fcc869763" y="143.637839"/>
     <use style="fill:#1f77b4;stroke:#1f77b4;" x="89.287381" xlink:href="#m3fcc869763" y="137.976725"/>
     <use style="fill:#1f77b4;stroke:#1f77b4;" x="126.591806" xlink:href="#m3fcc869763" y="164.315802"/>
     <use style="fill:#1f77b4;stroke:#1f77b4;" x="108.958698" xlink:href="#m3fcc869763" y="133.507425"/>
     <use style="fill:#1f77b4;stroke:#1f77b4;" x="90.6272" xlink:href="#m3fcc869763" y="133.388244"/>
     <use style="fill:#1f77b4;stroke:#1f77b4;" x="124.251456" xlink:href="#m3fcc869763" y="129.693622"/>
     <use style="fill:#1f77b4;stroke:#1f77b4;" x="151.330165" xlink:href="#m3fcc869763" y="127.369586"/>
     <use style="fill:#1f77b4;stroke:#1f77b4;" x="120.67035" xlink:href="#m3fcc869763" y="148.16673"/>
     <use style="fill:#1f77b4;stroke:#1f77b4;" x="108.958698" xlink:href="#m3fcc869763" y="127.250405"/>
     <use style="fill:#1f77b4;stroke:#1f77b4;" x="160.471148" xlink:href="#m3fcc869763" y="126.654498"/>
     <use style="fill:#1f77b4;stroke:#1f77b4;" x="68.798799" xlink:href="#m3fcc869763" y="161.276678"/>
     <use style="fill:#1f77b4;stroke:#1f77b4;" x="173.98326" xlink:href="#m3fcc869763" y="158.177963"/>
     <use style="fill:#1f77b4;stroke:#1f77b4;" x="111.256945" xlink:href="#m3fcc869763" y="131.123798"/>
     <use style="fill:#1f77b4;stroke:#1f77b4;" x="129.982216" xlink:href="#m3fcc869763" y="147.809186"/>
     <use style="fill:#1f77b4;stroke:#1f77b4;" x="211.267872" xlink:href="#m3fcc869763" y="130.289529"/>
     <use style="fill:#1f77b4;stroke:#1f77b4;" x="187.648919" xlink:href="#m3fcc869763" y="105.857354"/>
     <use style="fill:#1f77b4;stroke:#1f77b4;" x="151.164235" xlink:href="#m3fcc869763" y="101.268872"/>
     <use style="fill:#1f77b4;stroke:#1f77b4;" x="161.543498" xlink:href="#m3fcc869763" y="133.567016"/>
     <use style="fill:#1f77b4;stroke:#1f77b4;" x="155.015286" xlink:href="#m3fcc869763" y="157.9396"/>
     <use style="fill:#1f77b4;stroke:#1f77b4;" x="119.917476" xlink:href="#m3fcc869763" y="150.729129"/>
     <use style="fill:#1f77b4;stroke:#1f77b4;" x="119.98682" xlink:href="#m3fcc869763" y="122.542742"/>
     <use style="fill:#1f77b4;stroke:#1f77b4;" x="99.807808" xlink:href="#m3fcc869763" y="124.807187"/>
     <use style="fill:#1f77b4;stroke:#1f77b4;" x="82.991965" xlink:href="#m3fcc869763" y="151.384626"/>
     <use style="fill:#1f77b4;stroke:#1f77b4;" x="132.67919" xlink:href="#m3fcc869763" y="136.844503"/>
     <use style="fill:#1f77b4;stroke:#1f77b4;" x="131.936222" xlink:href="#m3fcc869763" y="131.958068"/>
     <use style="fill:#1f77b4;stroke:#1f77b4;" x="156.902425" xlink:href="#m3fcc869763" y="75.048977"/>
     <use style="fill:#1f77b4;stroke:#1f77b4;" x="147.736676" xlink:href="#m3fcc869763" y="134.699238"/>
     <use style="fill:#1f77b4;stroke:#1f77b4;" x="150.329634" xlink:href="#m3fcc869763" y="142.80357"/>
     <use style="fill:#1f77b4;stroke:#1f77b4;" x="117.369096" xlink:href="#m3fcc869763" y="153.947025"/>
     <use style="fill:#1f77b4;stroke:#1f77b4;" x="76.493471" xlink:href="#m3fcc869763" y="125.641457"/>
     <use style="fill:#1f77b4;stroke:#1f77b4;" x="99.218387" xlink:href="#m3fcc869763" y="123.913327"/>
     <use style="fill:#1f77b4;stroke:#1f77b4;" x="111.516984" xlink:href="#m3fcc869763" y="131.600524"/>
     <use style="fill:#1f77b4;stroke:#1f77b4;" x="82.536278" xlink:href="#m3fcc869763" y="134.520466"/>
     <use style="fill:#1f77b4;stroke:#1f77b4;" x="143.52157" xlink:href="#m3fcc869763" y="129.395669"/>
     <use style="fill:#1f77b4;stroke:#1f77b4;" x="150.129033" xlink:href="#m3fcc869763" y="135.891052"/>
     <use style="fill:#1f77b4;stroke:#1f77b4;" x="129.982216" xlink:href="#m3fcc869763" y="137.023275"/>
     <use style="fill:#1f77b4;stroke:#1f77b4;" x="125.234651" xlink:href="#m3fcc869763" y="141.850119"/>
     <use style="fill:#1f77b4;stroke:#1f77b4;" x="79.113672" xlink:href="#m3fcc869763" y="135.950643"/>
     <use style="fill:#1f77b4;stroke:#1f77b4;" x="129.152569" xlink:href="#m3fcc869763" y="115.868587"/>
     <use style="fill:#1f77b4;stroke:#1f77b4;" x="170.184217" xlink:href="#m3fcc869763" y="133.328653"/>
     <use style="fill:#1f77b4;stroke:#1f77b4;" x="170.055436" xlink:href="#m3fcc869763" y="127.72713"/>
     <use style="fill:#1f77b4;stroke:#1f77b4;" x="124.890409" xlink:href="#m3fcc869763" y="128.442218"/>
     <use style="fill:#1f77b4;stroke:#1f77b4;" x="79.492585" xlink:href="#m3fcc869763" y="149.95445"/>
     <use style="fill:#1f77b4;stroke:#1f77b4;" x="74.938191" xlink:href="#m3fcc869763" y="194.885816"/>
     <use style="fill:#1f77b4;stroke:#1f77b4;" x="184.290703" xlink:href="#m3fcc869763" y="128.263446"/>
     <use style="fill:#1f77b4;stroke:#1f77b4;" x="160.310171" xlink:href="#m3fcc869763" y="134.997192"/>
     <use style="fill:#1f77b4;stroke:#1f77b4;" x="117.683619" xlink:href="#m3fcc869763" y="135.235555"/>
     <use style="fill:#1f77b4;stroke:#1f77b4;" x="132.300277" xlink:href="#m3fcc869763" y="134.580057"/>
     <use style="fill:#1f77b4;stroke:#1f77b4;" x="114.986645" xlink:href="#m3fcc869763" y="129.395669"/>
     <use style="fill:#1f77b4;stroke:#1f77b4;" x="98.220333" xlink:href="#m3fcc869763" y="127.429177"/>
     <use style="fill:#1f77b4;stroke:#1f77b4;" x="79.712999" xlink:href="#m3fcc869763" y="125.93941"/>
     <use style="fill:#1f77b4;stroke:#1f77b4;" x="110.51893" xlink:href="#m3fcc869763" y="136.189005"/>
     <use style="fill:#1f77b4;stroke:#1f77b4;" x="142.246142" xlink:href="#m3fcc869763" y="133.92456"/>
     <use style="fill:#1f77b4;stroke:#1f77b4;" x="106.313731" xlink:href="#m3fcc869763" y="130.110757"/>
     <use style="fill:#1f77b4;stroke:#1f77b4;" x="123.290551" xlink:href="#m3fcc869763" y="128.978534"/>
     <use style="fill:#1f77b4;stroke:#1f77b4;" x="133.149737" xlink:href="#m3fcc869763" y="141.552166"/>
     <use style="fill:#1f77b4;stroke:#1f77b4;" x="162.105678" xlink:href="#m3fcc869763" y="152.457258"/>
     <use style="fill:#1f77b4;stroke:#1f77b4;" x="118.954094" xlink:href="#m3fcc869763" y="135.116373"/>
     <use style="fill:#1f77b4;stroke:#1f77b4;" x="116.081284" xlink:href="#m3fcc869763" y="174.207853"/>
     <use style="fill:#1f77b4;stroke:#1f77b4;" x="122.723419" xlink:href="#m3fcc869763" y="126.535317"/>
     <use style="fill:#1f77b4;stroke:#1f77b4;" x="146.027849" xlink:href="#m3fcc869763" y="137.261637"/>
     <use style="fill:#1f77b4;stroke:#1f77b4;" x="70.155954" xlink:href="#m3fcc869763" y="145.48515"/>
     <use style="fill:#1f77b4;stroke:#1f77b4;" x="113.676545" xlink:href="#m3fcc869763" y="117.000809"/>
     <use style="fill:#1f77b4;stroke:#1f77b4;" x="184.625039" xlink:href="#m3fcc869763" y="126.356545"/>
     <use style="fill:#1f77b4;stroke:#1f77b4;" x="156.833081" xlink:href="#m3fcc869763" y="128.561399"/>
     <use style="fill:#1f77b4;stroke:#1f77b4;" x="157.412596" xlink:href="#m3fcc869763" y="128.740171"/>
     <use style="fill:#1f77b4;stroke:#1f77b4;" x="70.70575" xlink:href="#m3fcc869763" y="165.567206"/>
     <use style="fill:#1f77b4;stroke:#1f77b4;" x="70.141094" xlink:href="#m3fcc869763" y="208.532079"/>
     <use style="fill:#1f77b4;stroke:#1f77b4;" x="124.251456" xlink:href="#m3fcc869763" y="136.844503"/>
     <use style="fill:#1f77b4;stroke:#1f77b4;" x="184.518547" xlink:href="#m3fcc869763" y="129.753213"/>
     <use style="fill:#1f77b4;stroke:#1f77b4;" x="119.60543" xlink:href="#m3fcc869763" y="132.851928"/>
     <use style="fill:#1f77b4;stroke:#1f77b4;" x="179.929481" xlink:href="#m3fcc869763" y="124.985959"/>
     <use style="fill:#1f77b4;stroke:#1f77b4;" x="160.126906" xlink:href="#m3fcc869763" y="171.049547"/>
     <use style="fill:#1f77b4;stroke:#1f77b4;" x="76.892197" xlink:href="#m3fcc869763" y="155.25802"/>
     <use style="fill:#1f77b4;stroke:#1f77b4;" x="162.893224" xlink:href="#m3fcc869763" y="129.872394"/>
     <use style="fill:#1f77b4;stroke:#1f77b4;" x="184.290703" xlink:href="#m3fcc869763" y="132.315612"/>
     <use style="fill:#1f77b4;stroke:#1f77b4;" x="108.376706" xlink:href="#m3fcc869763" y="131.123798"/>
     <use style="fill:#1f77b4;stroke:#1f77b4;" x="195.061263" xlink:href="#m3fcc869763" y="131.481342"/>
     <use style="fill:#1f77b4;stroke:#1f77b4;" x="157.147604" xlink:href="#m3fcc869763" y="154.602522"/>
     <use style="fill:#1f77b4;stroke:#1f77b4;" x="164.574808" xlink:href="#m3fcc869763" y="135.593099"/>
     <use style="fill:#1f77b4;stroke:#1f77b4;" x="91.162137" xlink:href="#m3fcc869763" y="131.958068"/>
     <use style="fill:#1f77b4;stroke:#1f77b4;" x="104.285429" xlink:href="#m3fcc869763" y="156.926559"/>
     <use style="fill:#1f77b4;stroke:#1f77b4;" x="171.382872" xlink:href="#m3fcc869763" y="131.183389"/>
     <use style="fill:#1f77b4;stroke:#1f77b4;" x="116.977799" xlink:href="#m3fcc869763" y="129.038125"/>
     <use style="fill:#1f77b4;stroke:#1f77b4;" x="94.181063" xlink:href="#m3fcc869763" y="123.25783"/>
     <use style="fill:#1f77b4;stroke:#1f77b4;" x="130.905973" xlink:href="#m3fcc869763" y="131.064208"/>
     <use style="fill:#1f77b4;stroke:#1f77b4;" x="157.432409" xlink:href="#m3fcc869763" y="123.972918"/>
     <use style="fill:#1f77b4;stroke:#1f77b4;" x="136.691218" xlink:href="#m3fcc869763" y="134.699238"/>
     <use style="fill:#1f77b4;stroke:#1f77b4;" x="183.545258" xlink:href="#m3fcc869763" y="133.745788"/>
     <use style="fill:#1f77b4;stroke:#1f77b4;" x="157.647869" xlink:href="#m3fcc869763" y="126.714089"/>
     <use style="fill:#1f77b4;stroke:#1f77b4;" x="103.601898" xlink:href="#m3fcc869763" y="161.634222"/>
     <use style="fill:#1f77b4;stroke:#1f77b4;" x="126.591806" xlink:href="#m3fcc869763" y="147.451642"/>
     <use style="fill:#1f77b4;stroke:#1f77b4;" x="129.982216" xlink:href="#m3fcc869763" y="143.578248"/>
     <use style="fill:#1f77b4;stroke:#1f77b4;" x="142.330345" xlink:href="#m3fcc869763" y="137.321228"/>
     <use style="fill:#1f77b4;stroke:#1f77b4;" x="159.80743" xlink:href="#m3fcc869763" y="162.4089"/>
     <use style="fill:#1f77b4;stroke:#1f77b4;" x="91.162137" xlink:href="#m3fcc869763" y="148.881818"/>
     <use style="fill:#1f77b4;stroke:#1f77b4;" x="184.268414" xlink:href="#m3fcc869763" y="132.077249"/>
     <use style="fill:#1f77b4;stroke:#1f77b4;" x="131.161059" xlink:href="#m3fcc869763" y="149.95445"/>
     <use style="fill:#1f77b4;stroke:#1f77b4;" x="131.161059" xlink:href="#m3fcc869763" y="142.505616"/>
     <use style="fill:#1f77b4;stroke:#1f77b4;" x="96.769069" xlink:href="#m3fcc869763" y="125.164731"/>
     <use style="fill:#1f77b4;stroke:#1f77b4;" x="187.116458" xlink:href="#m3fcc869763" y="150.014041"/>
     <use style="fill:#1f77b4;stroke:#1f77b4;" x="164.750644" xlink:href="#m3fcc869763" y="122.125607"/>
     <use style="fill:#1f77b4;stroke:#1f77b4;" x="121.789756" xlink:href="#m3fcc869763" y="129.991576"/>
     <use style="fill:#1f77b4;stroke:#1f77b4;" x="126.965766" xlink:href="#m3fcc869763" y="141.611756"/>
     <use style="fill:#1f77b4;stroke:#1f77b4;" x="148.175027" xlink:href="#m3fcc869763" y="157.522465"/>
     <use style="fill:#1f77b4;stroke:#1f77b4;" x="82.920145" xlink:href="#m3fcc869763" y="149.239362"/>
     <use style="fill:#1f77b4;stroke:#1f77b4;" x="143.278868" xlink:href="#m3fcc869763" y="124.866778"/>
     <use style="fill:#1f77b4;stroke:#1f77b4;" x="136.661499" xlink:href="#m3fcc869763" y="131.540933"/>
     <use style="fill:#1f77b4;stroke:#1f77b4;" x="179.54809" xlink:href="#m3fcc869763" y="138.870585"/>
     <use style="fill:#1f77b4;stroke:#1f77b4;" x="101.192205" xlink:href="#m3fcc869763" y="137.559591"/>
     <use style="fill:#1f77b4;stroke:#1f77b4;" x="75.250238" xlink:href="#m3fcc869763" y="66.467921"/>
     <use style="fill:#1f77b4;stroke:#1f77b4;" x="84.65126" xlink:href="#m3fcc869763" y="133.686197"/>
     <use style="fill:#1f77b4;stroke:#1f77b4;" x="99.45366" xlink:href="#m3fcc869763" y="128.62099"/>
     <use style="fill:#1f77b4;stroke:#1f77b4;" x="126.425876" xlink:href="#m3fcc869763" y="154.304569"/>
     <use style="fill:#1f77b4;stroke:#1f77b4;" x="71.579976" xlink:href="#m3fcc869763" y="151.205854"/>
     <use style="fill:#1f77b4;stroke:#1f77b4;" x="93.928454" xlink:href="#m3fcc869763" y="118.728939"/>
     <use style="fill:#1f77b4;stroke:#1f77b4;" x="132.438964" xlink:href="#m3fcc869763" y="126.296954"/>
     <use style="fill:#1f77b4;stroke:#1f77b4;" x="113.342209" xlink:href="#m3fcc869763" y="132.911518"/>
     <use style="fill:#1f77b4;stroke:#1f77b4;" x="94.931461" xlink:href="#m3fcc869763" y="131.421752"/>
     <use style="fill:#1f77b4;stroke:#1f77b4;" x="69.422892" xlink:href="#m3fcc869763" y="198.640028"/>
     <use style="fill:#1f77b4;stroke:#1f77b4;" x="154.497685" xlink:href="#m3fcc869763" y="133.149881"/>
     <use style="fill:#1f77b4;stroke:#1f77b4;" x="68.050878" xlink:href="#m3fcc869763" y="138.751404"/>
     <use style="fill:#1f77b4;stroke:#1f77b4;" x="201.926288" xlink:href="#m3fcc869763" y="146.736554"/>
     <use style="fill:#1f77b4;stroke:#1f77b4;" x="129.058459" xlink:href="#m3fcc869763" y="104.427178"/>
     <use style="fill:#1f77b4;stroke:#1f77b4;" x="157.412596" xlink:href="#m3fcc869763" y="128.084674"/>
     <use style="fill:#1f77b4;stroke:#1f77b4;" x="124.3208" xlink:href="#m3fcc869763" y="127.786721"/>
     <use style="fill:#1f77b4;stroke:#1f77b4;" x="81.595185" xlink:href="#m3fcc869763" y="133.149881"/>
     <use style="fill:#1f77b4;stroke:#1f77b4;" x="132.045191" xlink:href="#m3fcc869763" y="123.734555"/>
     <use style="fill:#1f77b4;stroke:#1f77b4;" x="111.123211" xlink:href="#m3fcc869763" y="139.168539"/>
     <use style="fill:#1f77b4;stroke:#1f77b4;" x="166.152377" xlink:href="#m3fcc869763" y="123.079058"/>
     <use style="fill:#1f77b4;stroke:#1f77b4;" x="157.917814" xlink:href="#m3fcc869763" y="173.07563"/>
     <use style="fill:#1f77b4;stroke:#1f77b4;" x="197.260448" xlink:href="#m3fcc869763" y="128.978534"/>
     <use style="fill:#1f77b4;stroke:#1f77b4;" x="203.726747" xlink:href="#m3fcc869763" y="131.004617"/>
     <use style="fill:#1f77b4;stroke:#1f77b4;" x="93.618884" xlink:href="#m3fcc869763" y="147.570823"/>
     <use style="fill:#1f77b4;stroke:#1f77b4;" x="127.693875" xlink:href="#m3fcc869763" y="149.656497"/>
     <use style="fill:#1f77b4;stroke:#1f77b4;" x="76.493471" xlink:href="#m3fcc869763" y="131.898477"/>
     <use style="fill:#1f77b4;stroke:#1f77b4;" x="183.371899" xlink:href="#m3fcc869763" y="125.164731"/>
     <use style="fill:#1f77b4;stroke:#1f77b4;" x="77.858056" xlink:href="#m3fcc869763" y="134.520466"/>
     <use style="fill:#1f77b4;stroke:#1f77b4;" x="161.179444" xlink:href="#m3fcc869763" y="136.60614"/>
     <use style="fill:#1f77b4;stroke:#1f77b4;" x="134.514321" xlink:href="#m3fcc869763" y="137.261637"/>
     <use style="fill:#1f77b4;stroke:#1f77b4;" x="154.983091" xlink:href="#m3fcc869763" y="126.892861"/>
     <use style="fill:#1f77b4;stroke:#1f77b4;" x="129.152569" xlink:href="#m3fcc869763" y="132.256021"/>
     <use style="fill:#1f77b4;stroke:#1f77b4;" x="203.251247" xlink:href="#m3fcc869763" y="136.844503"/>
     <use style="fill:#1f77b4;stroke:#1f77b4;" x="121.789756" xlink:href="#m3fcc869763" y="139.526083"/>
     <use style="fill:#1f77b4;stroke:#1f77b4;" x="131.874308" xlink:href="#m3fcc869763" y="141.135031"/>
    </g>
   </g>
   <g id="matplotlib.axis_1">
    <g id="xtick_1">
     <g id="line2d_1">
      <defs>
       <path d="M 0 0 
L 0 3.5 
" id="m443ec1febb" style="stroke:#000000;stroke-width:0.8;"/>
      </defs>
      <g>
       <use style="stroke:#000000;stroke-width:0.8;" x="61.535048" xlink:href="#m443ec1febb" y="216.309375"/>
      </g>
     </g>
     <g id="text_1">
      <!-- 0 -->
      <defs>
       <path d="M 31.78125 66.40625 
Q 24.171875 66.40625 20.328125 58.90625 
Q 16.5 51.421875 16.5 36.375 
Q 16.5 21.390625 20.328125 13.890625 
Q 24.171875 6.390625 31.78125 6.390625 
Q 39.453125 6.390625 43.28125 13.890625 
Q 47.125 21.390625 47.125 36.375 
Q 47.125 51.421875 43.28125 58.90625 
Q 39.453125 66.40625 31.78125 66.40625 
z
M 31.78125 74.21875 
Q 44.046875 74.21875 50.515625 64.515625 
Q 56.984375 54.828125 56.984375 36.375 
Q 56.984375 17.96875 50.515625 8.265625 
Q 44.046875 -1.421875 31.78125 -1.421875 
Q 19.53125 -1.421875 13.0625 8.265625 
Q 6.59375 17.96875 6.59375 36.375 
Q 6.59375 54.828125 13.0625 64.515625 
Q 19.53125 74.21875 31.78125 74.21875 
z
" id="DejaVuSans-30"/>
      </defs>
      <g transform="translate(58.353798 230.907812)scale(0.1 -0.1)">
       <use xlink:href="#DejaVuSans-30"/>
      </g>
     </g>
    </g>
    <g id="xtick_2">
     <g id="line2d_2">
      <g>
       <use style="stroke:#000000;stroke-width:0.8;" x="111.06625" xlink:href="#m443ec1febb" y="216.309375"/>
      </g>
     </g>
     <g id="text_2">
      <!-- 20 -->
      <defs>
       <path d="M 19.1875 8.296875 
L 53.609375 8.296875 
L 53.609375 0 
L 7.328125 0 
L 7.328125 8.296875 
Q 12.9375 14.109375 22.625 23.890625 
Q 32.328125 33.6875 34.8125 36.53125 
Q 39.546875 41.84375 41.421875 45.53125 
Q 43.3125 49.21875 43.3125 52.78125 
Q 43.3125 58.59375 39.234375 62.25 
Q 35.15625 65.921875 28.609375 65.921875 
Q 23.96875 65.921875 18.8125 64.3125 
Q 13.671875 62.703125 7.8125 59.421875 
L 7.8125 69.390625 
Q 13.765625 71.78125 18.9375 73 
Q 24.125 74.21875 28.421875 74.21875 
Q 39.75 74.21875 46.484375 68.546875 
Q 53.21875 62.890625 53.21875 53.421875 
Q 53.21875 48.921875 51.53125 44.890625 
Q 49.859375 40.875 45.40625 35.40625 
Q 44.1875 33.984375 37.640625 27.21875 
Q 31.109375 20.453125 19.1875 8.296875 
z
" id="DejaVuSans-32"/>
      </defs>
      <g transform="translate(104.70375 230.907812)scale(0.1 -0.1)">
       <use xlink:href="#DejaVuSans-32"/>
       <use x="63.623047" xlink:href="#DejaVuSans-30"/>
      </g>
     </g>
    </g>
    <g id="xtick_3">
     <g id="line2d_3">
      <g>
       <use style="stroke:#000000;stroke-width:0.8;" x="160.597452" xlink:href="#m443ec1febb" y="216.309375"/>
      </g>
     </g>
     <g id="text_3">
      <!-- 40 -->
      <defs>
       <path d="M 37.796875 64.3125 
L 12.890625 25.390625 
L 37.796875 25.390625 
z
M 35.203125 72.90625 
L 47.609375 72.90625 
L 47.609375 25.390625 
L 58.015625 25.390625 
L 58.015625 17.1875 
L 47.609375 17.1875 
L 47.609375 0 
L 37.796875 0 
L 37.796875 17.1875 
L 4.890625 17.1875 
L 4.890625 26.703125 
z
" id="DejaVuSans-34"/>
      </defs>
      <g transform="translate(154.234952 230.907812)scale(0.1 -0.1)">
       <use xlink:href="#DejaVuSans-34"/>
       <use x="63.623047" xlink:href="#DejaVuSans-30"/>
      </g>
     </g>
    </g>
    <g id="xtick_4">
     <g id="line2d_4">
      <g>
       <use style="stroke:#000000;stroke-width:0.8;" x="210.128655" xlink:href="#m443ec1febb" y="216.309375"/>
      </g>
     </g>
     <g id="text_4">
      <!-- 60 -->
      <defs>
       <path d="M 33.015625 40.375 
Q 26.375 40.375 22.484375 35.828125 
Q 18.609375 31.296875 18.609375 23.390625 
Q 18.609375 15.53125 22.484375 10.953125 
Q 26.375 6.390625 33.015625 6.390625 
Q 39.65625 6.390625 43.53125 10.953125 
Q 47.40625 15.53125 47.40625 23.390625 
Q 47.40625 31.296875 43.53125 35.828125 
Q 39.65625 40.375 33.015625 40.375 
z
M 52.59375 71.296875 
L 52.59375 62.3125 
Q 48.875 64.0625 45.09375 64.984375 
Q 41.3125 65.921875 37.59375 65.921875 
Q 27.828125 65.921875 22.671875 59.328125 
Q 17.53125 52.734375 16.796875 39.40625 
Q 19.671875 43.65625 24.015625 45.921875 
Q 28.375 48.1875 33.59375 48.1875 
Q 44.578125 48.1875 50.953125 41.515625 
Q 57.328125 34.859375 57.328125 23.390625 
Q 57.328125 12.15625 50.6875 5.359375 
Q 44.046875 -1.421875 33.015625 -1.421875 
Q 20.359375 -1.421875 13.671875 8.265625 
Q 6.984375 17.96875 6.984375 36.375 
Q 6.984375 53.65625 15.1875 63.9375 
Q 23.390625 74.21875 37.203125 74.21875 
Q 40.921875 74.21875 44.703125 73.484375 
Q 48.484375 72.75 52.59375 71.296875 
z
" id="DejaVuSans-36"/>
      </defs>
      <g transform="translate(203.766155 230.907812)scale(0.1 -0.1)">
       <use xlink:href="#DejaVuSans-36"/>
       <use x="63.623047" xlink:href="#DejaVuSans-30"/>
      </g>
     </g>
    </g>
    <g id="text_5">
     <!-- Minimum distance to S (Å) -->
     <defs>
      <path d="M 9.8125 72.90625 
L 24.515625 72.90625 
L 43.109375 23.296875 
L 61.8125 72.90625 
L 76.515625 72.90625 
L 76.515625 0 
L 66.890625 0 
L 66.890625 64.015625 
L 48.09375 14.015625 
L 38.1875 14.015625 
L 19.390625 64.015625 
L 19.390625 0 
L 9.8125 0 
z
" id="DejaVuSans-4d"/>
      <path d="M 9.421875 54.6875 
L 18.40625 54.6875 
L 18.40625 0 
L 9.421875 0 
z
M 9.421875 75.984375 
L 18.40625 75.984375 
L 18.40625 64.59375 
L 9.421875 64.59375 
z
" id="DejaVuSans-69"/>
      <path d="M 54.890625 33.015625 
L 54.890625 0 
L 45.90625 0 
L 45.90625 32.71875 
Q 45.90625 40.484375 42.875 44.328125 
Q 39.84375 48.1875 33.796875 48.1875 
Q 26.515625 48.1875 22.3125 43.546875 
Q 18.109375 38.921875 18.109375 30.90625 
L 18.109375 0 
L 9.078125 0 
L 9.078125 54.6875 
L 18.109375 54.6875 
L 18.109375 46.1875 
Q 21.34375 51.125 25.703125 53.5625 
Q 30.078125 56 35.796875 56 
Q 45.21875 56 50.046875 50.171875 
Q 54.890625 44.34375 54.890625 33.015625 
z
" id="DejaVuSans-6e"/>
      <path d="M 52 44.1875 
Q 55.375 50.25 60.0625 53.125 
Q 64.75 56 71.09375 56 
Q 79.640625 56 84.28125 50.015625 
Q 88.921875 44.046875 88.921875 33.015625 
L 88.921875 0 
L 79.890625 0 
L 79.890625 32.71875 
Q 79.890625 40.578125 77.09375 44.375 
Q 74.3125 48.1875 68.609375 48.1875 
Q 61.625 48.1875 57.5625 43.546875 
Q 53.515625 38.921875 53.515625 30.90625 
L 53.515625 0 
L 44.484375 0 
L 44.484375 32.71875 
Q 44.484375 40.625 41.703125 44.40625 
Q 38.921875 48.1875 33.109375 48.1875 
Q 26.21875 48.1875 22.15625 43.53125 
Q 18.109375 38.875 18.109375 30.90625 
L 18.109375 0 
L 9.078125 0 
L 9.078125 54.6875 
L 18.109375 54.6875 
L 18.109375 46.1875 
Q 21.1875 51.21875 25.484375 53.609375 
Q 29.78125 56 35.6875 56 
Q 41.65625 56 45.828125 52.96875 
Q 50 49.953125 52 44.1875 
z
" id="DejaVuSans-6d"/>
      <path d="M 8.5 21.578125 
L 8.5 54.6875 
L 17.484375 54.6875 
L 17.484375 21.921875 
Q 17.484375 14.15625 20.5 10.265625 
Q 23.53125 6.390625 29.59375 6.390625 
Q 36.859375 6.390625 41.078125 11.03125 
Q 45.3125 15.671875 45.3125 23.6875 
L 45.3125 54.6875 
L 54.296875 54.6875 
L 54.296875 0 
L 45.3125 0 
L 45.3125 8.40625 
Q 42.046875 3.421875 37.71875 1 
Q 33.40625 -1.421875 27.6875 -1.421875 
Q 18.265625 -1.421875 13.375 4.4375 
Q 8.5 10.296875 8.5 21.578125 
z
M 31.109375 56 
z
" id="DejaVuSans-75"/>
      <path id="DejaVuSans-20"/>
      <path d="M 45.40625 46.390625 
L 45.40625 75.984375 
L 54.390625 75.984375 
L 54.390625 0 
L 45.40625 0 
L 45.40625 8.203125 
Q 42.578125 3.328125 38.25 0.953125 
Q 33.9375 -1.421875 27.875 -1.421875 
Q 17.96875 -1.421875 11.734375 6.484375 
Q 5.515625 14.40625 5.515625 27.296875 
Q 5.515625 40.1875 11.734375 48.09375 
Q 17.96875 56 27.875 56 
Q 33.9375 56 38.25 53.625 
Q 42.578125 51.265625 45.40625 46.390625 
z
M 14.796875 27.296875 
Q 14.796875 17.390625 18.875 11.75 
Q 22.953125 6.109375 30.078125 6.109375 
Q 37.203125 6.109375 41.296875 11.75 
Q 45.40625 17.390625 45.40625 27.296875 
Q 45.40625 37.203125 41.296875 42.84375 
Q 37.203125 48.484375 30.078125 48.484375 
Q 22.953125 48.484375 18.875 42.84375 
Q 14.796875 37.203125 14.796875 27.296875 
z
" id="DejaVuSans-64"/>
      <path d="M 44.28125 53.078125 
L 44.28125 44.578125 
Q 40.484375 46.53125 36.375 47.5 
Q 32.28125 48.484375 27.875 48.484375 
Q 21.1875 48.484375 17.84375 46.4375 
Q 14.5 44.390625 14.5 40.28125 
Q 14.5 37.15625 16.890625 35.375 
Q 19.28125 33.59375 26.515625 31.984375 
L 29.59375 31.296875 
Q 39.15625 29.25 43.1875 25.515625 
Q 47.21875 21.78125 47.21875 15.09375 
Q 47.21875 7.46875 41.1875 3.015625 
Q 35.15625 -1.421875 24.609375 -1.421875 
Q 20.21875 -1.421875 15.453125 -0.5625 
Q 10.6875 0.296875 5.421875 2 
L 5.421875 11.28125 
Q 10.40625 8.6875 15.234375 7.390625 
Q 20.0625 6.109375 24.8125 6.109375 
Q 31.15625 6.109375 34.5625 8.28125 
Q 37.984375 10.453125 37.984375 14.40625 
Q 37.984375 18.0625 35.515625 20.015625 
Q 33.0625 21.96875 24.703125 23.78125 
L 21.578125 24.515625 
Q 13.234375 26.265625 9.515625 29.90625 
Q 5.8125 33.546875 5.8125 39.890625 
Q 5.8125 47.609375 11.28125 51.796875 
Q 16.75 56 26.8125 56 
Q 31.78125 56 36.171875 55.265625 
Q 40.578125 54.546875 44.28125 53.078125 
z
" id="DejaVuSans-73"/>
      <path d="M 18.3125 70.21875 
L 18.3125 54.6875 
L 36.8125 54.6875 
L 36.8125 47.703125 
L 18.3125 47.703125 
L 18.3125 18.015625 
Q 18.3125 11.328125 20.140625 9.421875 
Q 21.96875 7.515625 27.59375 7.515625 
L 36.8125 7.515625 
L 36.8125 0 
L 27.59375 0 
Q 17.1875 0 13.234375 3.875 
Q 9.28125 7.765625 9.28125 18.015625 
L 9.28125 47.703125 
L 2.6875 47.703125 
L 2.6875 54.6875 
L 9.28125 54.6875 
L 9.28125 70.21875 
z
" id="DejaVuSans-74"/>
      <path d="M 34.28125 27.484375 
Q 23.390625 27.484375 19.1875 25 
Q 14.984375 22.515625 14.984375 16.5 
Q 14.984375 11.71875 18.140625 8.90625 
Q 21.296875 6.109375 26.703125 6.109375 
Q 34.1875 6.109375 38.703125 11.40625 
Q 43.21875 16.703125 43.21875 25.484375 
L 43.21875 27.484375 
z
M 52.203125 31.203125 
L 52.203125 0 
L 43.21875 0 
L 43.21875 8.296875 
Q 40.140625 3.328125 35.546875 0.953125 
Q 30.953125 -1.421875 24.3125 -1.421875 
Q 15.921875 -1.421875 10.953125 3.296875 
Q 6 8.015625 6 15.921875 
Q 6 25.140625 12.171875 29.828125 
Q 18.359375 34.515625 30.609375 34.515625 
L 43.21875 34.515625 
L 43.21875 35.40625 
Q 43.21875 41.609375 39.140625 45 
Q 35.0625 48.390625 27.6875 48.390625 
Q 23 48.390625 18.546875 47.265625 
Q 14.109375 46.140625 10.015625 43.890625 
L 10.015625 52.203125 
Q 14.9375 54.109375 19.578125 55.046875 
Q 24.21875 56 28.609375 56 
Q 40.484375 56 46.34375 49.84375 
Q 52.203125 43.703125 52.203125 31.203125 
z
" id="DejaVuSans-61"/>
      <path d="M 48.78125 52.59375 
L 48.78125 44.1875 
Q 44.96875 46.296875 41.140625 47.34375 
Q 37.3125 48.390625 33.40625 48.390625 
Q 24.65625 48.390625 19.8125 42.84375 
Q 14.984375 37.3125 14.984375 27.296875 
Q 14.984375 17.28125 19.8125 11.734375 
Q 24.65625 6.203125 33.40625 6.203125 
Q 37.3125 6.203125 41.140625 7.25 
Q 44.96875 8.296875 48.78125 10.40625 
L 48.78125 2.09375 
Q 45.015625 0.34375 40.984375 -0.53125 
Q 36.96875 -1.421875 32.421875 -1.421875 
Q 20.0625 -1.421875 12.78125 6.34375 
Q 5.515625 14.109375 5.515625 27.296875 
Q 5.515625 40.671875 12.859375 48.328125 
Q 20.21875 56 33.015625 56 
Q 37.15625 56 41.109375 55.140625 
Q 45.0625 54.296875 48.78125 52.59375 
z
" id="DejaVuSans-63"/>
      <path d="M 56.203125 29.59375 
L 56.203125 25.203125 
L 14.890625 25.203125 
Q 15.484375 15.921875 20.484375 11.0625 
Q 25.484375 6.203125 34.421875 6.203125 
Q 39.59375 6.203125 44.453125 7.46875 
Q 49.3125 8.734375 54.109375 11.28125 
L 54.109375 2.78125 
Q 49.265625 0.734375 44.1875 -0.34375 
Q 39.109375 -1.421875 33.890625 -1.421875 
Q 20.796875 -1.421875 13.15625 6.1875 
Q 5.515625 13.8125 5.515625 26.8125 
Q 5.515625 40.234375 12.765625 48.109375 
Q 20.015625 56 32.328125 56 
Q 43.359375 56 49.78125 48.890625 
Q 56.203125 41.796875 56.203125 29.59375 
z
M 47.21875 32.234375 
Q 47.125 39.59375 43.09375 43.984375 
Q 39.0625 48.390625 32.421875 48.390625 
Q 24.90625 48.390625 20.390625 44.140625 
Q 15.875 39.890625 15.1875 32.171875 
z
" id="DejaVuSans-65"/>
      <path d="M 30.609375 48.390625 
Q 23.390625 48.390625 19.1875 42.75 
Q 14.984375 37.109375 14.984375 27.296875 
Q 14.984375 17.484375 19.15625 11.84375 
Q 23.34375 6.203125 30.609375 6.203125 
Q 37.796875 6.203125 41.984375 11.859375 
Q 46.1875 17.53125 46.1875 27.296875 
Q 46.1875 37.015625 41.984375 42.703125 
Q 37.796875 48.390625 30.609375 48.390625 
z
M 30.609375 56 
Q 42.328125 56 49.015625 48.375 
Q 55.71875 40.765625 55.71875 27.296875 
Q 55.71875 13.875 49.015625 6.21875 
Q 42.328125 -1.421875 30.609375 -1.421875 
Q 18.84375 -1.421875 12.171875 6.21875 
Q 5.515625 13.875 5.515625 27.296875 
Q 5.515625 40.765625 12.171875 48.375 
Q 18.84375 56 30.609375 56 
z
" id="DejaVuSans-6f"/>
      <path d="M 53.515625 70.515625 
L 53.515625 60.890625 
Q 47.90625 63.578125 42.921875 64.890625 
Q 37.9375 66.21875 33.296875 66.21875 
Q 25.25 66.21875 20.875 63.09375 
Q 16.5 59.96875 16.5 54.203125 
Q 16.5 49.359375 19.40625 46.890625 
Q 22.3125 44.4375 30.421875 42.921875 
L 36.375 41.703125 
Q 47.40625 39.59375 52.65625 34.296875 
Q 57.90625 29 57.90625 20.125 
Q 57.90625 9.515625 50.796875 4.046875 
Q 43.703125 -1.421875 29.984375 -1.421875 
Q 24.8125 -1.421875 18.96875 -0.25 
Q 13.140625 0.921875 6.890625 3.21875 
L 6.890625 13.375 
Q 12.890625 10.015625 18.65625 8.296875 
Q 24.421875 6.59375 29.984375 6.59375 
Q 38.421875 6.59375 43.015625 9.90625 
Q 47.609375 13.234375 47.609375 19.390625 
Q 47.609375 24.75 44.3125 27.78125 
Q 41.015625 30.8125 33.5 32.328125 
L 27.484375 33.5 
Q 16.453125 35.6875 11.515625 40.375 
Q 6.59375 45.0625 6.59375 53.421875 
Q 6.59375 63.09375 13.40625 68.65625 
Q 20.21875 74.21875 32.171875 74.21875 
Q 37.3125 74.21875 42.625 73.28125 
Q 47.953125 72.359375 53.515625 70.515625 
z
" id="DejaVuSans-53"/>
      <path d="M 31 75.875 
Q 24.46875 64.65625 21.28125 53.65625 
Q 18.109375 42.671875 18.109375 31.390625 
Q 18.109375 20.125 21.3125 9.0625 
Q 24.515625 -2 31 -13.1875 
L 23.1875 -13.1875 
Q 15.875 -1.703125 12.234375 9.375 
Q 8.59375 20.453125 8.59375 31.390625 
Q 8.59375 42.28125 12.203125 53.3125 
Q 15.828125 64.359375 23.1875 75.875 
z
" id="DejaVuSans-28"/>
      <path d="M 41.609375 79.390625 
Q 41.609375 82.46875 39.421875 84.640625 
Q 37.25 86.8125 34.1875 86.8125 
Q 31.0625 86.8125 28.9375 84.6875 
Q 26.8125 82.5625 26.8125 79.390625 
Q 26.8125 76.3125 28.953125 74.15625 
Q 31.109375 72.015625 34.1875 72.015625 
Q 37.25 72.015625 39.421875 74.15625 
Q 41.609375 76.3125 41.609375 79.390625 
z
M 34.1875 63.1875 
L 20.90625 26.90625 
L 47.515625 26.90625 
z
M 26.8125 68.21875 
Q 23.828125 70.21875 22.3125 73.015625 
Q 20.796875 75.828125 20.796875 79.390625 
Q 20.796875 85.015625 24.671875 88.921875 
Q 28.5625 92.828125 34.1875 92.828125 
Q 39.75 92.828125 43.671875 88.890625 
Q 47.609375 84.96875 47.609375 79.390625 
Q 47.609375 75.984375 46.0625 73.09375 
Q 44.53125 70.21875 41.609375 68.21875 
L 67.578125 0 
L 57.328125 0 
L 50.6875 18.703125 
L 17.828125 18.703125 
L 11.1875 0 
L 0.78125 0 
z
" id="DejaVuSans-212b"/>
      <path d="M 8.015625 75.875 
L 15.828125 75.875 
Q 23.140625 64.359375 26.78125 53.3125 
Q 30.421875 42.28125 30.421875 31.390625 
Q 30.421875 20.453125 26.78125 9.375 
Q 23.140625 -1.703125 15.828125 -13.1875 
L 8.015625 -13.1875 
Q 14.5 -2 17.703125 9.0625 
Q 20.90625 20.125 20.90625 31.390625 
Q 20.90625 42.671875 17.703125 53.65625 
Q 14.5 64.65625 8.015625 75.875 
z
" id="DejaVuSans-29"/>
     </defs>
     <g transform="translate(73.430469 245.509375)scale(0.1 -0.1)">
      <use xlink:href="#DejaVuSans-4d"/>
      <use x="86.279297" xlink:href="#DejaVuSans-69"/>
      <use x="114.0625" xlink:href="#DejaVuSans-6e"/>
      <use x="177.441406" xlink:href="#DejaVuSans-69"/>
      <use x="205.224609" xlink:href="#DejaVuSans-6d"/>
      <use x="302.636719" xlink:href="#DejaVuSans-75"/>
      <use x="366.015625" xlink:href="#DejaVuSans-6d"/>
      <use x="463.427734" xlink:href="#DejaVuSans-20"/>
      <use x="495.214844" xlink:href="#DejaVuSans-64"/>
      <use x="558.691406" xlink:href="#DejaVuSans-69"/>
      <use x="586.474609" xlink:href="#DejaVuSans-73"/>
      <use x="638.574219" xlink:href="#DejaVuSans-74"/>
      <use x="677.783203" xlink:href="#DejaVuSans-61"/>
      <use x="739.0625" xlink:href="#DejaVuSans-6e"/>
      <use x="802.441406" xlink:href="#DejaVuSans-63"/>
      <use x="857.421875" xlink:href="#DejaVuSans-65"/>
      <use x="918.945312" xlink:href="#DejaVuSans-20"/>
      <use x="950.732422" xlink:href="#DejaVuSans-74"/>
      <use x="989.941406" xlink:href="#DejaVuSans-6f"/>
      <use x="1051.123047" xlink:href="#DejaVuSans-20"/>
      <use x="1082.910156" xlink:href="#DejaVuSans-53"/>
      <use x="1146.386719" xlink:href="#DejaVuSans-20"/>
      <use x="1178.173828" xlink:href="#DejaVuSans-28"/>
      <use x="1217.1875" xlink:href="#DejaVuSans-212b"/>
      <use x="1285.595703" xlink:href="#DejaVuSans-29"/>
     </g>
    </g>
   </g>
   <g id="matplotlib.axis_2">
    <g id="ytick_1">
     <g id="line2d_5">
      <defs>
       <path d="M 0 0 
L -3.5 0 
" id="m86fcf7543c" style="stroke:#000000;stroke-width:0.8;"/>
      </defs>
      <g>
       <use style="stroke:#000000;stroke-width:0.8;" x="60.85" xlink:href="#m86fcf7543c" y="188.569205"/>
      </g>
     </g>
     <g id="text_6">
      <!-- −1.0 -->
      <defs>
       <path d="M 10.59375 35.5 
L 73.1875 35.5 
L 73.1875 27.203125 
L 10.59375 27.203125 
z
" id="DejaVuSans-2212"/>
       <path d="M 12.40625 8.296875 
L 28.515625 8.296875 
L 28.515625 63.921875 
L 10.984375 60.40625 
L 10.984375 69.390625 
L 28.421875 72.90625 
L 38.28125 72.90625 
L 38.28125 8.296875 
L 54.390625 8.296875 
L 54.390625 0 
L 12.40625 0 
z
" id="DejaVuSans-31"/>
       <path d="M 10.6875 12.40625 
L 21 12.40625 
L 21 0 
L 10.6875 0 
z
" id="DejaVuSans-2e"/>
      </defs>
      <g transform="translate(29.567188 192.368423)scale(0.1 -0.1)">
       <use xlink:href="#DejaVuSans-2212"/>
       <use x="83.789062" xlink:href="#DejaVuSans-31"/>
       <use x="147.412109" xlink:href="#DejaVuSans-2e"/>
       <use x="179.199219" xlink:href="#DejaVuSans-30"/>
      </g>
     </g>
    </g>
    <g id="ytick_2">
     <g id="line2d_6">
      <g>
       <use style="stroke:#000000;stroke-width:0.8;" x="60.85" xlink:href="#m86fcf7543c" y="158.773869"/>
      </g>
     </g>
     <g id="text_7">
      <!-- −0.5 -->
      <defs>
       <path d="M 10.796875 72.90625 
L 49.515625 72.90625 
L 49.515625 64.59375 
L 19.828125 64.59375 
L 19.828125 46.734375 
Q 21.96875 47.46875 24.109375 47.828125 
Q 26.265625 48.1875 28.421875 48.1875 
Q 40.625 48.1875 47.75 41.5 
Q 54.890625 34.8125 54.890625 23.390625 
Q 54.890625 11.625 47.5625 5.09375 
Q 40.234375 -1.421875 26.90625 -1.421875 
Q 22.3125 -1.421875 17.546875 -0.640625 
Q 12.796875 0.140625 7.71875 1.703125 
L 7.71875 11.625 
Q 12.109375 9.234375 16.796875 8.0625 
Q 21.484375 6.890625 26.703125 6.890625 
Q 35.15625 6.890625 40.078125 11.328125 
Q 45.015625 15.765625 45.015625 23.390625 
Q 45.015625 31 40.078125 35.4375 
Q 35.15625 39.890625 26.703125 39.890625 
Q 22.75 39.890625 18.8125 39.015625 
Q 14.890625 38.140625 10.796875 36.28125 
z
" id="DejaVuSans-35"/>
      </defs>
      <g transform="translate(29.567188 162.573088)scale(0.1 -0.1)">
       <use xlink:href="#DejaVuSans-2212"/>
       <use x="83.789062" xlink:href="#DejaVuSans-30"/>
       <use x="147.412109" xlink:href="#DejaVuSans-2e"/>
       <use x="179.199219" xlink:href="#DejaVuSans-35"/>
      </g>
     </g>
    </g>
    <g id="ytick_3">
     <g id="line2d_7">
      <g>
       <use style="stroke:#000000;stroke-width:0.8;" x="60.85" xlink:href="#m86fcf7543c" y="128.978534"/>
      </g>
     </g>
     <g id="text_8">
      <!-- 0.0 -->
      <g transform="translate(37.946875 132.777753)scale(0.1 -0.1)">
       <use xlink:href="#DejaVuSans-30"/>
       <use x="63.623047" xlink:href="#DejaVuSans-2e"/>
       <use x="95.410156" xlink:href="#DejaVuSans-30"/>
      </g>
     </g>
    </g>
    <g id="ytick_4">
     <g id="line2d_8">
      <g>
       <use style="stroke:#000000;stroke-width:0.8;" x="60.85" xlink:href="#m86fcf7543c" y="99.183199"/>
      </g>
     </g>
     <g id="text_9">
      <!-- 0.5 -->
      <g transform="translate(37.946875 102.982418)scale(0.1 -0.1)">
       <use xlink:href="#DejaVuSans-30"/>
       <use x="63.623047" xlink:href="#DejaVuSans-2e"/>
       <use x="95.410156" xlink:href="#DejaVuSans-35"/>
      </g>
     </g>
    </g>
    <g id="ytick_5">
     <g id="line2d_9">
      <g>
       <use style="stroke:#000000;stroke-width:0.8;" x="60.85" xlink:href="#m86fcf7543c" y="69.387864"/>
      </g>
     </g>
     <g id="text_10">
      <!-- 1.0 -->
      <g transform="translate(37.946875 73.187082)scale(0.1 -0.1)">
       <use xlink:href="#DejaVuSans-31"/>
       <use x="63.623047" xlink:href="#DejaVuSans-2e"/>
       <use x="95.410156" xlink:href="#DejaVuSans-30"/>
      </g>
     </g>
    </g>
    <g id="text_11">
     <!-- mCSM-PPI2 ΔΔG (kcal mol$^{-1}$) -->
     <defs>
      <path d="M 64.40625 67.28125 
L 64.40625 56.890625 
Q 59.421875 61.53125 53.78125 63.8125 
Q 48.140625 66.109375 41.796875 66.109375 
Q 29.296875 66.109375 22.65625 58.46875 
Q 16.015625 50.828125 16.015625 36.375 
Q 16.015625 21.96875 22.65625 14.328125 
Q 29.296875 6.6875 41.796875 6.6875 
Q 48.140625 6.6875 53.78125 8.984375 
Q 59.421875 11.28125 64.40625 15.921875 
L 64.40625 5.609375 
Q 59.234375 2.09375 53.4375 0.328125 
Q 47.65625 -1.421875 41.21875 -1.421875 
Q 24.65625 -1.421875 15.125 8.703125 
Q 5.609375 18.84375 5.609375 36.375 
Q 5.609375 53.953125 15.125 64.078125 
Q 24.65625 74.21875 41.21875 74.21875 
Q 47.75 74.21875 53.53125 72.484375 
Q 59.328125 70.75 64.40625 67.28125 
z
" id="DejaVuSans-43"/>
      <path d="M 4.890625 31.390625 
L 31.203125 31.390625 
L 31.203125 23.390625 
L 4.890625 23.390625 
z
" id="DejaVuSans-2d"/>
      <path d="M 19.671875 64.796875 
L 19.671875 37.40625 
L 32.078125 37.40625 
Q 38.96875 37.40625 42.71875 40.96875 
Q 46.484375 44.53125 46.484375 51.125 
Q 46.484375 57.671875 42.71875 61.234375 
Q 38.96875 64.796875 32.078125 64.796875 
z
M 9.8125 72.90625 
L 32.078125 72.90625 
Q 44.34375 72.90625 50.609375 67.359375 
Q 56.890625 61.8125 56.890625 51.125 
Q 56.890625 40.328125 50.609375 34.8125 
Q 44.34375 29.296875 32.078125 29.296875 
L 19.671875 29.296875 
L 19.671875 0 
L 9.8125 0 
z
" id="DejaVuSans-50"/>
      <path d="M 9.8125 72.90625 
L 19.671875 72.90625 
L 19.671875 0 
L 9.8125 0 
z
" id="DejaVuSans-49"/>
      <path d="M 34.1875 63.1875 
L 14.15625 8.203125 
L 54.25 8.203125 
z
M 0.78125 0 
L 28.609375 72.90625 
L 39.796875 72.90625 
L 67.578125 0 
z
" id="DejaVuSans-394"/>
      <path d="M 59.515625 10.40625 
L 59.515625 29.984375 
L 43.40625 29.984375 
L 43.40625 38.09375 
L 69.28125 38.09375 
L 69.28125 6.78125 
Q 63.578125 2.734375 56.6875 0.65625 
Q 49.8125 -1.421875 42 -1.421875 
Q 24.90625 -1.421875 15.25 8.5625 
Q 5.609375 18.5625 5.609375 36.375 
Q 5.609375 54.25 15.25 64.234375 
Q 24.90625 74.21875 42 74.21875 
Q 49.125 74.21875 55.546875 72.453125 
Q 61.96875 70.703125 67.390625 67.28125 
L 67.390625 56.78125 
Q 61.921875 61.421875 55.765625 63.765625 
Q 49.609375 66.109375 42.828125 66.109375 
Q 29.4375 66.109375 22.71875 58.640625 
Q 16.015625 51.171875 16.015625 36.375 
Q 16.015625 21.625 22.71875 14.15625 
Q 29.4375 6.6875 42.828125 6.6875 
Q 48.046875 6.6875 52.140625 7.59375 
Q 56.25 8.5 59.515625 10.40625 
z
" id="DejaVuSans-47"/>
      <path d="M 9.078125 75.984375 
L 18.109375 75.984375 
L 18.109375 31.109375 
L 44.921875 54.6875 
L 56.390625 54.6875 
L 27.390625 29.109375 
L 57.625 0 
L 45.90625 0 
L 18.109375 26.703125 
L 18.109375 0 
L 9.078125 0 
z
" id="DejaVuSans-6b"/>
      <path d="M 9.421875 75.984375 
L 18.40625 75.984375 
L 18.40625 0 
L 9.421875 0 
z
" id="DejaVuSans-6c"/>
     </defs>
     <g transform="translate(23.4875 210)rotate(-90)scale(0.1 -0.1)">
      <use transform="translate(0 0.684375)" xlink:href="#DejaVuSans-6d"/>
      <use transform="translate(97.412109 0.684375)" xlink:href="#DejaVuSans-43"/>
      <use transform="translate(167.236328 0.684375)" xlink:href="#DejaVuSans-53"/>
      <use transform="translate(230.712891 0.684375)" xlink:href="#DejaVuSans-4d"/>
      <use transform="translate(316.992188 0.684375)" xlink:href="#DejaVuSans-2d"/>
      <use transform="translate(353.076172 0.684375)" xlink:href="#DejaVuSans-50"/>
      <use transform="translate(413.378906 0.684375)" xlink:href="#DejaVuSans-50"/>
      <use transform="translate(473.681641 0.684375)" xlink:href="#DejaVuSans-49"/>
      <use transform="translate(503.173828 0.684375)" xlink:href="#DejaVuSans-32"/>
      <use transform="translate(566.796875 0.684375)" xlink:href="#DejaVuSans-20"/>
      <use transform="translate(598.583984 0.684375)" xlink:href="#DejaVuSans-394"/>
      <use transform="translate(666.992188 0.684375)" xlink:href="#DejaVuSans-394"/>
      <use transform="translate(735.400391 0.684375)" xlink:href="#DejaVuSans-47"/>
      <use transform="translate(812.890625 0.684375)" xlink:href="#DejaVuSans-20"/>
      <use transform="translate(844.677734 0.684375)" xlink:href="#DejaVuSans-28"/>
      <use transform="translate(883.691406 0.684375)" xlink:href="#DejaVuSans-6b"/>
      <use transform="translate(941.601562 0.684375)" xlink:href="#DejaVuSans-63"/>
      <use transform="translate(996.582031 0.684375)" xlink:href="#DejaVuSans-61"/>
      <use transform="translate(1057.861328 0.684375)" xlink:href="#DejaVuSans-6c"/>
      <use transform="translate(1085.644531 0.684375)" xlink:href="#DejaVuSans-20"/>
      <use transform="translate(1117.431641 0.684375)" xlink:href="#DejaVuSans-6d"/>
      <use transform="translate(1214.84375 0.684375)" xlink:href="#DejaVuSans-6f"/>
      <use transform="translate(1276.025391 0.684375)" xlink:href="#DejaVuSans-6c"/>
      <use transform="translate(1304.765625 38.965625)scale(0.7)" xlink:href="#DejaVuSans-2212"/>
      <use transform="translate(1363.417969 38.965625)scale(0.7)" xlink:href="#DejaVuSans-31"/>
      <use transform="translate(1410.688477 0.684375)" xlink:href="#DejaVuSans-29"/>
     </g>
    </g>
   </g>
   <g id="patch_3">
    <path d="M 60.85 216.309375 
L 60.85 58.690625 
" style="fill:none;stroke:#000000;stroke-linecap:square;stroke-linejoin:miter;stroke-width:0.8;"/>
   </g>
   <g id="patch_4">
    <path d="M 218.46875 216.309375 
L 218.46875 58.690625 
" style="fill:none;stroke:#000000;stroke-linecap:square;stroke-linejoin:miter;stroke-width:0.8;"/>
   </g>
   <g id="patch_5">
    <path d="M 60.85 216.309375 
L 218.46875 216.309375 
" style="fill:none;stroke:#000000;stroke-linecap:square;stroke-linejoin:miter;stroke-width:0.8;"/>
   </g>
   <g id="patch_6">
    <path d="M 60.85 58.690625 
L 218.46875 58.690625 
" style="fill:none;stroke:#000000;stroke-linecap:square;stroke-linejoin:miter;stroke-width:0.8;"/>
   </g>
  </g>
  <g id="axes_2">
   <g id="patch_7">
    <path d="M 255.64375 260.2 
L 413.2625 260.2 
L 413.2625 14.8 
L 255.64375 14.8 
z
" style="fill:#ffffff;"/>
   </g>
   <g id="matplotlib.axis_3">
    <g id="xtick_5">
     <g id="line2d_10">
      <g>
       <use style="stroke:#000000;stroke-width:0.8;" x="255.64375" xlink:href="#m443ec1febb" y="260.2"/>
      </g>
     </g>
     <g id="text_12">
      <!-- 0.0 -->
      <g transform="translate(247.692187 274.798437)scale(0.1 -0.1)">
       <use xlink:href="#DejaVuSans-30"/>
       <use x="63.623047" xlink:href="#DejaVuSans-2e"/>
       <use x="95.410156" xlink:href="#DejaVuSans-30"/>
      </g>
     </g>
    </g>
    <g id="xtick_6">
     <g id="line2d_11">
      <g>
       <use style="stroke:#000000;stroke-width:0.8;" x="287.1675" xlink:href="#m443ec1febb" y="260.2"/>
      </g>
     </g>
     <g id="text_13">
      <!-- 0.2 -->
      <g transform="translate(279.215937 274.798437)scale(0.1 -0.1)">
       <use xlink:href="#DejaVuSans-30"/>
       <use x="63.623047" xlink:href="#DejaVuSans-2e"/>
       <use x="95.410156" xlink:href="#DejaVuSans-32"/>
      </g>
     </g>
    </g>
    <g id="xtick_7">
     <g id="line2d_12">
      <g>
       <use style="stroke:#000000;stroke-width:0.8;" x="318.69125" xlink:href="#m443ec1febb" y="260.2"/>
      </g>
     </g>
     <g id="text_14">
      <!-- 0.4 -->
      <g transform="translate(310.739687 274.798437)scale(0.1 -0.1)">
       <use xlink:href="#DejaVuSans-30"/>
       <use x="63.623047" xlink:href="#DejaVuSans-2e"/>
       <use x="95.410156" xlink:href="#DejaVuSans-34"/>
      </g>
     </g>
    </g>
    <g id="xtick_8">
     <g id="line2d_13">
      <g>
       <use style="stroke:#000000;stroke-width:0.8;" x="350.215" xlink:href="#m443ec1febb" y="260.2"/>
      </g>
     </g>
     <g id="text_15">
      <!-- 0.6 -->
      <g transform="translate(342.263437 274.798437)scale(0.1 -0.1)">
       <use xlink:href="#DejaVuSans-30"/>
       <use x="63.623047" xlink:href="#DejaVuSans-2e"/>
       <use x="95.410156" xlink:href="#DejaVuSans-36"/>
      </g>
     </g>
    </g>
    <g id="xtick_9">
     <g id="line2d_14">
      <g>
       <use style="stroke:#000000;stroke-width:0.8;" x="381.73875" xlink:href="#m443ec1febb" y="260.2"/>
      </g>
     </g>
     <g id="text_16">
      <!-- 0.8 -->
      <defs>
       <path d="M 31.78125 34.625 
Q 24.75 34.625 20.71875 30.859375 
Q 16.703125 27.09375 16.703125 20.515625 
Q 16.703125 13.921875 20.71875 10.15625 
Q 24.75 6.390625 31.78125 6.390625 
Q 38.8125 6.390625 42.859375 10.171875 
Q 46.921875 13.96875 46.921875 20.515625 
Q 46.921875 27.09375 42.890625 30.859375 
Q 38.875 34.625 31.78125 34.625 
z
M 21.921875 38.8125 
Q 15.578125 40.375 12.03125 44.71875 
Q 8.5 49.078125 8.5 55.328125 
Q 8.5 64.0625 14.71875 69.140625 
Q 20.953125 74.21875 31.78125 74.21875 
Q 42.671875 74.21875 48.875 69.140625 
Q 55.078125 64.0625 55.078125 55.328125 
Q 55.078125 49.078125 51.53125 44.71875 
Q 48 40.375 41.703125 38.8125 
Q 48.828125 37.15625 52.796875 32.3125 
Q 56.78125 27.484375 56.78125 20.515625 
Q 56.78125 9.90625 50.3125 4.234375 
Q 43.84375 -1.421875 31.78125 -1.421875 
Q 19.734375 -1.421875 13.25 4.234375 
Q 6.78125 9.90625 6.78125 20.515625 
Q 6.78125 27.484375 10.78125 32.3125 
Q 14.796875 37.15625 21.921875 38.8125 
z
M 18.3125 54.390625 
Q 18.3125 48.734375 21.84375 45.5625 
Q 25.390625 42.390625 31.78125 42.390625 
Q 38.140625 42.390625 41.71875 45.5625 
Q 45.3125 48.734375 45.3125 54.390625 
Q 45.3125 60.0625 41.71875 63.234375 
Q 38.140625 66.40625 31.78125 66.40625 
Q 25.390625 66.40625 21.84375 63.234375 
Q 18.3125 60.0625 18.3125 54.390625 
z
" id="DejaVuSans-38"/>
      </defs>
      <g transform="translate(373.787187 274.798437)scale(0.1 -0.1)">
       <use xlink:href="#DejaVuSans-30"/>
       <use x="63.623047" xlink:href="#DejaVuSans-2e"/>
       <use x="95.410156" xlink:href="#DejaVuSans-38"/>
      </g>
     </g>
    </g>
    <g id="xtick_10">
     <g id="line2d_15">
      <g>
       <use style="stroke:#000000;stroke-width:0.8;" x="413.2625" xlink:href="#m443ec1febb" y="260.2"/>
      </g>
     </g>
     <g id="text_17">
      <!-- 1.0 -->
      <g transform="translate(405.310937 274.798437)scale(0.1 -0.1)">
       <use xlink:href="#DejaVuSans-31"/>
       <use x="63.623047" xlink:href="#DejaVuSans-2e"/>
       <use x="95.410156" xlink:href="#DejaVuSans-30"/>
      </g>
     </g>
    </g>
   </g>
   <g id="matplotlib.axis_4">
    <g id="ytick_6">
     <g id="line2d_16">
      <g>
       <use style="stroke:#000000;stroke-width:0.8;" x="255.64375" xlink:href="#m86fcf7543c" y="260.2"/>
      </g>
     </g>
     <g id="text_18">
      <!-- 0.0 -->
      <g transform="translate(232.740625 263.999219)scale(0.1 -0.1)">
       <use xlink:href="#DejaVuSans-30"/>
       <use x="63.623047" xlink:href="#DejaVuSans-2e"/>
       <use x="95.410156" xlink:href="#DejaVuSans-30"/>
      </g>
     </g>
    </g>
    <g id="ytick_7">
     <g id="line2d_17">
      <g>
       <use style="stroke:#000000;stroke-width:0.8;" x="255.64375" xlink:href="#m86fcf7543c" y="211.12"/>
      </g>
     </g>
     <g id="text_19">
      <!-- 0.2 -->
      <g transform="translate(232.740625 214.919219)scale(0.1 -0.1)">
       <use xlink:href="#DejaVuSans-30"/>
       <use x="63.623047" xlink:href="#DejaVuSans-2e"/>
       <use x="95.410156" xlink:href="#DejaVuSans-32"/>
      </g>
     </g>
    </g>
    <g id="ytick_8">
     <g id="line2d_18">
      <g>
       <use style="stroke:#000000;stroke-width:0.8;" x="255.64375" xlink:href="#m86fcf7543c" y="162.04"/>
      </g>
     </g>
     <g id="text_20">
      <!-- 0.4 -->
      <g transform="translate(232.740625 165.839219)scale(0.1 -0.1)">
       <use xlink:href="#DejaVuSans-30"/>
       <use x="63.623047" xlink:href="#DejaVuSans-2e"/>
       <use x="95.410156" xlink:href="#DejaVuSans-34"/>
      </g>
     </g>
    </g>
    <g id="ytick_9">
     <g id="line2d_19">
      <g>
       <use style="stroke:#000000;stroke-width:0.8;" x="255.64375" xlink:href="#m86fcf7543c" y="112.96"/>
      </g>
     </g>
     <g id="text_21">
      <!-- 0.6 -->
      <g transform="translate(232.740625 116.759219)scale(0.1 -0.1)">
       <use xlink:href="#DejaVuSans-30"/>
       <use x="63.623047" xlink:href="#DejaVuSans-2e"/>
       <use x="95.410156" xlink:href="#DejaVuSans-36"/>
      </g>
     </g>
    </g>
    <g id="ytick_10">
     <g id="line2d_20">
      <g>
       <use style="stroke:#000000;stroke-width:0.8;" x="255.64375" xlink:href="#m86fcf7543c" y="63.88"/>
      </g>
     </g>
     <g id="text_22">
      <!-- 0.8 -->
      <g transform="translate(232.740625 67.679219)scale(0.1 -0.1)">
       <use xlink:href="#DejaVuSans-30"/>
       <use x="63.623047" xlink:href="#DejaVuSans-2e"/>
       <use x="95.410156" xlink:href="#DejaVuSans-38"/>
      </g>
     </g>
    </g>
    <g id="ytick_11">
     <g id="line2d_21">
      <g>
       <use style="stroke:#000000;stroke-width:0.8;" x="255.64375" xlink:href="#m86fcf7543c" y="14.8"/>
      </g>
     </g>
     <g id="text_23">
      <!-- 1.0 -->
      <g transform="translate(232.740625 18.599219)scale(0.1 -0.1)">
       <use xlink:href="#DejaVuSans-31"/>
       <use x="63.623047" xlink:href="#DejaVuSans-2e"/>
       <use x="95.410156" xlink:href="#DejaVuSans-30"/>
      </g>
     </g>
    </g>
   </g>
   <g id="patch_8">
    <path d="M 255.64375 260.2 
L 255.64375 14.8 
" style="fill:none;stroke:#000000;stroke-linecap:square;stroke-linejoin:miter;stroke-width:0.8;"/>
   </g>
   <g id="patch_9">
    <path d="M 413.2625 260.2 
L 413.2625 14.8 
" style="fill:none;stroke:#000000;stroke-linecap:square;stroke-linejoin:miter;stroke-width:0.8;"/>
   </g>
   <g id="patch_10">
    <path d="M 255.64375 260.2 
L 413.2625 260.2 
" style="fill:none;stroke:#000000;stroke-linecap:square;stroke-linejoin:miter;stroke-width:0.8;"/>
   </g>
   <g id="patch_11">
    <path d="M 255.64375 14.8 
L 413.2625 14.8 
" style="fill:none;stroke:#000000;stroke-linecap:square;stroke-linejoin:miter;stroke-width:0.8;"/>
   </g>
  </g>
 </g>
 <defs>
  <clipPath id="peab1ec52fe">
   <rect height="157.61875" width="157.61875" x="60.85" y="58.690625"/>
  </clipPath>
 </defs>
</svg>
