<?xml version="1.0" encoding="utf-8" standalone="no"?>
<!DOCTYPE svg PUBLIC "-//W3C//DTD SVG 1.1//EN"
  "http://www.w3.org/Graphics/SVG/1.1/DTD/svg11.dtd">
<!-- Created with matplotlib (http://matplotlib.org/) -->
<svg height="288pt" version="1.1" viewBox="0 0 432 288" width="432pt" xmlns="http://www.w3.org/2000/svg" xmlns:xlink="http://www.w3.org/1999/xlink">
 <defs>
  <style type="text/css">
*{stroke-linecap:butt;stroke-linejoin:round;}
  </style>
 </defs>
 <g id="figure_1">
  <g id="patch_1">
   <path d="M 0 288 
L 432 288 
L 432 0 
L 0 0 
z
" style="fill:#ffffff;"/>
  </g>
  <g id="axes_1">
   <g id="patch_2">
    <path d="M 44.425 219.645795 
L 198.8875 219.645795 
L 198.8875 65.183295 
L 44.425 65.183295 
z
" style="fill:#ffffff;"/>
   </g>
   <g id="patch_3">
    <path clip-path="url(#pb0fefbb095)" d="M 51.446023 219.645795 
L 58.467045 219.645795 
L 58.467045 216.761342 
L 51.446023 216.761342 
z
" style="fill:#1f77b4;"/>
   </g>
   <g id="patch_4">
    <path clip-path="url(#pb0fefbb095)" d="M 58.467045 219.645795 
L 65.488068 219.645795 
L 65.488068 213.876888 
L 58.467045 213.876888 
z
" style="fill:#1f77b4;"/>
   </g>
   <g id="patch_5">
    <path clip-path="url(#pb0fefbb095)" d="M 65.488068 219.645795 
L 72.509091 219.645795 
L 72.509091 219.645795 
L 65.488068 219.645795 
z
" style="fill:#1f77b4;"/>
   </g>
   <g id="patch_6">
    <path clip-path="url(#pb0fefbb095)" d="M 72.509091 219.645795 
L 79.530114 219.645795 
L 79.530114 219.645795 
L 72.509091 219.645795 
z
" style="fill:#1f77b4;"/>
   </g>
   <g id="patch_7">
    <path clip-path="url(#pb0fefbb095)" d="M 79.530114 219.645795 
L 86.551136 219.645795 
L 86.551136 213.876888 
L 79.530114 213.876888 
z
" style="fill:#1f77b4;"/>
   </g>
   <g id="patch_8">
    <path clip-path="url(#pb0fefbb095)" d="M 86.551136 219.645795 
L 93.572159 219.645795 
L 93.572159 213.876888 
L 86.551136 213.876888 
z
" style="fill:#1f77b4;"/>
   </g>
   <g id="patch_9">
    <path clip-path="url(#pb0fefbb095)" d="M 93.572159 219.645795 
L 100.593182 219.645795 
L 100.593182 205.223527 
L 93.572159 205.223527 
z
" style="fill:#1f77b4;"/>
   </g>
   <g id="patch_10">
    <path clip-path="url(#pb0fefbb095)" d="M 100.593182 219.645795 
L 107.614205 219.645795 
L 107.614205 185.03235 
L 100.593182 185.03235 
z
" style="fill:#1f77b4;"/>
   </g>
   <g id="patch_11">
    <path clip-path="url(#pb0fefbb095)" d="M 107.614205 219.645795 
L 114.635227 219.645795 
L 114.635227 173.494535 
L 107.614205 173.494535 
z
" style="fill:#1f77b4;"/>
   </g>
   <g id="patch_12">
    <path clip-path="url(#pb0fefbb095)" d="M 114.635227 219.645795 
L 121.65625 219.645795 
L 121.65625 167.725627 
L 114.635227 167.725627 
z
" style="fill:#1f77b4;"/>
   </g>
   <g id="patch_13">
    <path clip-path="url(#pb0fefbb095)" d="M 121.65625 219.645795 
L 128.677273 219.645795 
L 128.677273 72.538653 
L 121.65625 72.538653 
z
" style="fill:#1f77b4;"/>
   </g>
   <g id="patch_14">
    <path clip-path="url(#pb0fefbb095)" d="M 128.677273 219.645795 
L 135.698295 219.645795 
L 135.698295 92.729829 
L 128.677273 92.729829 
z
" style="fill:#1f77b4;"/>
   </g>
   <g id="patch_15">
    <path clip-path="url(#pb0fefbb095)" d="M 135.698295 219.645795 
L 142.719318 219.645795 
L 142.719318 202.339073 
L 135.698295 202.339073 
z
" style="fill:#1f77b4;"/>
   </g>
   <g id="patch_16">
    <path clip-path="url(#pb0fefbb095)" d="M 142.719318 219.645795 
L 149.740341 219.645795 
L 149.740341 210.992434 
L 142.719318 210.992434 
z
" style="fill:#1f77b4;"/>
   </g>
   <g id="patch_17">
    <path clip-path="url(#pb0fefbb095)" d="M 149.740341 219.645795 
L 156.761364 219.645795 
L 156.761364 213.876888 
L 149.740341 213.876888 
z
" style="fill:#1f77b4;"/>
   </g>
   <g id="patch_18">
    <path clip-path="url(#pb0fefbb095)" d="M 156.761364 219.645795 
L 163.782386 219.645795 
L 163.782386 216.761342 
L 156.761364 216.761342 
z
" style="fill:#1f77b4;"/>
   </g>
   <g id="patch_19">
    <path clip-path="url(#pb0fefbb095)" d="M 163.782386 219.645795 
L 170.803409 219.645795 
L 170.803409 219.645795 
L 163.782386 219.645795 
z
" style="fill:#1f77b4;"/>
   </g>
   <g id="patch_20">
    <path clip-path="url(#pb0fefbb095)" d="M 170.803409 219.645795 
L 177.824432 219.645795 
L 177.824432 219.645795 
L 170.803409 219.645795 
z
" style="fill:#1f77b4;"/>
   </g>
   <g id="patch_21">
    <path clip-path="url(#pb0fefbb095)" d="M 177.824432 219.645795 
L 184.845455 219.645795 
L 184.845455 216.761342 
L 177.824432 216.761342 
z
" style="fill:#1f77b4;"/>
   </g>
   <g id="patch_22">
    <path clip-path="url(#pb0fefbb095)" d="M 184.845455 219.645795 
L 191.866477 219.645795 
L 191.866477 216.761342 
L 184.845455 216.761342 
z
" style="fill:#1f77b4;"/>
   </g>
   <g id="matplotlib.axis_1">
    <g id="xtick_1">
     <g id="line2d_1">
      <defs>
       <path d="M 0 0 
L 0 3.5 
" id="m85cab3e058" style="stroke:#000000;stroke-width:0.8;"/>
      </defs>
      <g>
       <use style="stroke:#000000;stroke-width:0.8;" x="71.177924" xlink:href="#m85cab3e058" y="219.645795"/>
      </g>
     </g>
     <g id="text_1">
      <!-- −1 -->
      <defs>
       <path d="M 10.59375 35.5 
L 73.1875 35.5 
L 73.1875 27.203125 
L 10.59375 27.203125 
z
" id="DejaVuSans-2212"/>
       <path d="M 12.40625 8.296875 
L 28.515625 8.296875 
L 28.515625 63.921875 
L 10.984375 60.40625 
L 10.984375 69.390625 
L 28.421875 72.90625 
L 38.28125 72.90625 
L 38.28125 8.296875 
L 54.390625 8.296875 
L 54.390625 0 
L 12.40625 0 
z
" id="DejaVuSans-31"/>
      </defs>
      <g transform="translate(63.80683 234.244233)scale(0.1 -0.1)">
       <use xlink:href="#DejaVuSans-2212"/>
       <use x="83.789062" xlink:href="#DejaVuSans-31"/>
      </g>
     </g>
    </g>
    <g id="xtick_2">
     <g id="line2d_2">
      <g>
       <use style="stroke:#000000;stroke-width:0.8;" x="130.079121" xlink:href="#m85cab3e058" y="219.645795"/>
      </g>
     </g>
     <g id="text_2">
      <!-- 0 -->
      <defs>
       <path d="M 31.78125 66.40625 
Q 24.171875 66.40625 20.328125 58.90625 
Q 16.5 51.421875 16.5 36.375 
Q 16.5 21.390625 20.328125 13.890625 
Q 24.171875 6.390625 31.78125 6.390625 
Q 39.453125 6.390625 43.28125 13.890625 
Q 47.125 21.390625 47.125 36.375 
Q 47.125 51.421875 43.28125 58.90625 
Q 39.453125 66.40625 31.78125 66.40625 
z
M 31.78125 74.21875 
Q 44.046875 74.21875 50.515625 64.515625 
Q 56.984375 54.828125 56.984375 36.375 
Q 56.984375 17.96875 50.515625 8.265625 
Q 44.046875 -1.421875 31.78125 -1.421875 
Q 19.53125 -1.421875 13.0625 8.265625 
Q 6.59375 17.96875 6.59375 36.375 
Q 6.59375 54.828125 13.0625 64.515625 
Q 19.53125 74.21875 31.78125 74.21875 
z
" id="DejaVuSans-30"/>
      </defs>
      <g transform="translate(126.897871 234.244233)scale(0.1 -0.1)">
       <use xlink:href="#DejaVuSans-30"/>
      </g>
     </g>
    </g>
    <g id="xtick_3">
     <g id="line2d_3">
      <g>
       <use style="stroke:#000000;stroke-width:0.8;" x="188.980319" xlink:href="#m85cab3e058" y="219.645795"/>
      </g>
     </g>
     <g id="text_3">
      <!-- 1 -->
      <g transform="translate(185.799069 234.244233)scale(0.1 -0.1)">
       <use xlink:href="#DejaVuSans-31"/>
      </g>
     </g>
    </g>
    <g id="text_4">
     <!-- mCSM-PPI2 ΔΔG (kcal mol$^{-1}$) -->
     <defs>
      <path d="M 52 44.1875 
Q 55.375 50.25 60.0625 53.125 
Q 64.75 56 71.09375 56 
Q 79.640625 56 84.28125 50.015625 
Q 88.921875 44.046875 88.921875 33.015625 
L 88.921875 0 
L 79.890625 0 
L 79.890625 32.71875 
Q 79.890625 40.578125 77.09375 44.375 
Q 74.3125 48.1875 68.609375 48.1875 
Q 61.625 48.1875 57.5625 43.546875 
Q 53.515625 38.921875 53.515625 30.90625 
L 53.515625 0 
L 44.484375 0 
L 44.484375 32.71875 
Q 44.484375 40.625 41.703125 44.40625 
Q 38.921875 48.1875 33.109375 48.1875 
Q 26.21875 48.1875 22.15625 43.53125 
Q 18.109375 38.875 18.109375 30.90625 
L 18.109375 0 
L 9.078125 0 
L 9.078125 54.6875 
L 18.109375 54.6875 
L 18.109375 46.1875 
Q 21.1875 51.21875 25.484375 53.609375 
Q 29.78125 56 35.6875 56 
Q 41.65625 56 45.828125 52.96875 
Q 50 49.953125 52 44.1875 
z
" id="DejaVuSans-6d"/>
      <path d="M 64.40625 67.28125 
L 64.40625 56.890625 
Q 59.421875 61.53125 53.78125 63.8125 
Q 48.140625 66.109375 41.796875 66.109375 
Q 29.296875 66.109375 22.65625 58.46875 
Q 16.015625 50.828125 16.015625 36.375 
Q 16.015625 21.96875 22.65625 14.328125 
Q 29.296875 6.6875 41.796875 6.6875 
Q 48.140625 6.6875 53.78125 8.984375 
Q 59.421875 11.28125 64.40625 15.921875 
L 64.40625 5.609375 
Q 59.234375 2.09375 53.4375 0.328125 
Q 47.65625 -1.421875 41.21875 -1.421875 
Q 24.65625 -1.421875 15.125 8.703125 
Q 5.609375 18.84375 5.609375 36.375 
Q 5.609375 53.953125 15.125 64.078125 
Q 24.65625 74.21875 41.21875 74.21875 
Q 47.75 74.21875 53.53125 72.484375 
Q 59.328125 70.75 64.40625 67.28125 
z
" id="DejaVuSans-43"/>
      <path d="M 53.515625 70.515625 
L 53.515625 60.890625 
Q 47.90625 63.578125 42.921875 64.890625 
Q 37.9375 66.21875 33.296875 66.21875 
Q 25.25 66.21875 20.875 63.09375 
Q 16.5 59.96875 16.5 54.203125 
Q 16.5 49.359375 19.40625 46.890625 
Q 22.3125 44.4375 30.421875 42.921875 
L 36.375 41.703125 
Q 47.40625 39.59375 52.65625 34.296875 
Q 57.90625 29 57.90625 20.125 
Q 57.90625 9.515625 50.796875 4.046875 
Q 43.703125 -1.421875 29.984375 -1.421875 
Q 24.8125 -1.421875 18.96875 -0.25 
Q 13.140625 0.921875 6.890625 3.21875 
L 6.890625 13.375 
Q 12.890625 10.015625 18.65625 8.296875 
Q 24.421875 6.59375 29.984375 6.59375 
Q 38.421875 6.59375 43.015625 9.90625 
Q 47.609375 13.234375 47.609375 19.390625 
Q 47.609375 24.75 44.3125 27.78125 
Q 41.015625 30.8125 33.5 32.328125 
L 27.484375 33.5 
Q 16.453125 35.6875 11.515625 40.375 
Q 6.59375 45.0625 6.59375 53.421875 
Q 6.59375 63.09375 13.40625 68.65625 
Q 20.21875 74.21875 32.171875 74.21875 
Q 37.3125 74.21875 42.625 73.28125 
Q 47.953125 72.359375 53.515625 70.515625 
z
" id="DejaVuSans-53"/>
      <path d="M 9.8125 72.90625 
L 24.515625 72.90625 
L 43.109375 23.296875 
L 61.8125 72.90625 
L 76.515625 72.90625 
L 76.515625 0 
L 66.890625 0 
L 66.890625 64.015625 
L 48.09375 14.015625 
L 38.1875 14.015625 
L 19.390625 64.015625 
L 19.390625 0 
L 9.8125 0 
z
" id="DejaVuSans-4d"/>
      <path d="M 4.890625 31.390625 
L 31.203125 31.390625 
L 31.203125 23.390625 
L 4.890625 23.390625 
z
" id="DejaVuSans-2d"/>
      <path d="M 19.671875 64.796875 
L 19.671875 37.40625 
L 32.078125 37.40625 
Q 38.96875 37.40625 42.71875 40.96875 
Q 46.484375 44.53125 46.484375 51.125 
Q 46.484375 57.671875 42.71875 61.234375 
Q 38.96875 64.796875 32.078125 64.796875 
z
M 9.8125 72.90625 
L 32.078125 72.90625 
Q 44.34375 72.90625 50.609375 67.359375 
Q 56.890625 61.8125 56.890625 51.125 
Q 56.890625 40.328125 50.609375 34.8125 
Q 44.34375 29.296875 32.078125 29.296875 
L 19.671875 29.296875 
L 19.671875 0 
L 9.8125 0 
z
" id="DejaVuSans-50"/>
      <path d="M 9.8125 72.90625 
L 19.671875 72.90625 
L 19.671875 0 
L 9.8125 0 
z
" id="DejaVuSans-49"/>
      <path d="M 19.1875 8.296875 
L 53.609375 8.296875 
L 53.609375 0 
L 7.328125 0 
L 7.328125 8.296875 
Q 12.9375 14.109375 22.625 23.890625 
Q 32.328125 33.6875 34.8125 36.53125 
Q 39.546875 41.84375 41.421875 45.53125 
Q 43.3125 49.21875 43.3125 52.78125 
Q 43.3125 58.59375 39.234375 62.25 
Q 35.15625 65.921875 28.609375 65.921875 
Q 23.96875 65.921875 18.8125 64.3125 
Q 13.671875 62.703125 7.8125 59.421875 
L 7.8125 69.390625 
Q 13.765625 71.78125 18.9375 73 
Q 24.125 74.21875 28.421875 74.21875 
Q 39.75 74.21875 46.484375 68.546875 
Q 53.21875 62.890625 53.21875 53.421875 
Q 53.21875 48.921875 51.53125 44.890625 
Q 49.859375 40.875 45.40625 35.40625 
Q 44.1875 33.984375 37.640625 27.21875 
Q 31.109375 20.453125 19.1875 8.296875 
z
" id="DejaVuSans-32"/>
      <path id="DejaVuSans-20"/>
      <path d="M 34.1875 63.1875 
L 14.15625 8.203125 
L 54.25 8.203125 
z
M 0.78125 0 
L 28.609375 72.90625 
L 39.796875 72.90625 
L 67.578125 0 
z
" id="DejaVuSans-394"/>
      <path d="M 59.515625 10.40625 
L 59.515625 29.984375 
L 43.40625 29.984375 
L 43.40625 38.09375 
L 69.28125 38.09375 
L 69.28125 6.78125 
Q 63.578125 2.734375 56.6875 0.65625 
Q 49.8125 -1.421875 42 -1.421875 
Q 24.90625 -1.421875 15.25 8.5625 
Q 5.609375 18.5625 5.609375 36.375 
Q 5.609375 54.25 15.25 64.234375 
Q 24.90625 74.21875 42 74.21875 
Q 49.125 74.21875 55.546875 72.453125 
Q 61.96875 70.703125 67.390625 67.28125 
L 67.390625 56.78125 
Q 61.921875 61.421875 55.765625 63.765625 
Q 49.609375 66.109375 42.828125 66.109375 
Q 29.4375 66.109375 22.71875 58.640625 
Q 16.015625 51.171875 16.015625 36.375 
Q 16.015625 21.625 22.71875 14.15625 
Q 29.4375 6.6875 42.828125 6.6875 
Q 48.046875 6.6875 52.140625 7.59375 
Q 56.25 8.5 59.515625 10.40625 
z
" id="DejaVuSans-47"/>
      <path d="M 31 75.875 
Q 24.46875 64.65625 21.28125 53.65625 
Q 18.109375 42.671875 18.109375 31.390625 
Q 18.109375 20.125 21.3125 9.0625 
Q 24.515625 -2 31 -13.1875 
L 23.1875 -13.1875 
Q 15.875 -1.703125 12.234375 9.375 
Q 8.59375 20.453125 8.59375 31.390625 
Q 8.59375 42.28125 12.203125 53.3125 
Q 15.828125 64.359375 23.1875 75.875 
z
" id="DejaVuSans-28"/>
      <path d="M 9.078125 75.984375 
L 18.109375 75.984375 
L 18.109375 31.109375 
L 44.921875 54.6875 
L 56.390625 54.6875 
L 27.390625 29.109375 
L 57.625 0 
L 45.90625 0 
L 18.109375 26.703125 
L 18.109375 0 
L 9.078125 0 
z
" id="DejaVuSans-6b"/>
      <path d="M 48.78125 52.59375 
L 48.78125 44.1875 
Q 44.96875 46.296875 41.140625 47.34375 
Q 37.3125 48.390625 33.40625 48.390625 
Q 24.65625 48.390625 19.8125 42.84375 
Q 14.984375 37.3125 14.984375 27.296875 
Q 14.984375 17.28125 19.8125 11.734375 
Q 24.65625 6.203125 33.40625 6.203125 
Q 37.3125 6.203125 41.140625 7.25 
Q 44.96875 8.296875 48.78125 10.40625 
L 48.78125 2.09375 
Q 45.015625 0.34375 40.984375 -0.53125 
Q 36.96875 -1.421875 32.421875 -1.421875 
Q 20.0625 -1.421875 12.78125 6.34375 
Q 5.515625 14.109375 5.515625 27.296875 
Q 5.515625 40.671875 12.859375 48.328125 
Q 20.21875 56 33.015625 56 
Q 37.15625 56 41.109375 55.140625 
Q 45.0625 54.296875 48.78125 52.59375 
z
" id="DejaVuSans-63"/>
      <path d="M 34.28125 27.484375 
Q 23.390625 27.484375 19.1875 25 
Q 14.984375 22.515625 14.984375 16.5 
Q 14.984375 11.71875 18.140625 8.90625 
Q 21.296875 6.109375 26.703125 6.109375 
Q 34.1875 6.109375 38.703125 11.40625 
Q 43.21875 16.703125 43.21875 25.484375 
L 43.21875 27.484375 
z
M 52.203125 31.203125 
L 52.203125 0 
L 43.21875 0 
L 43.21875 8.296875 
Q 40.140625 3.328125 35.546875 0.953125 
Q 30.953125 -1.421875 24.3125 -1.421875 
Q 15.921875 -1.421875 10.953125 3.296875 
Q 6 8.015625 6 15.921875 
Q 6 25.140625 12.171875 29.828125 
Q 18.359375 34.515625 30.609375 34.515625 
L 43.21875 34.515625 
L 43.21875 35.40625 
Q 43.21875 41.609375 39.140625 45 
Q 35.0625 48.390625 27.6875 48.390625 
Q 23 48.390625 18.546875 47.265625 
Q 14.109375 46.140625 10.015625 43.890625 
L 10.015625 52.203125 
Q 14.9375 54.109375 19.578125 55.046875 
Q 24.21875 56 28.609375 56 
Q 40.484375 56 46.34375 49.84375 
Q 52.203125 43.703125 52.203125 31.203125 
z
" id="DejaVuSans-61"/>
      <path d="M 9.421875 75.984375 
L 18.40625 75.984375 
L 18.40625 0 
L 9.421875 0 
z
" id="DejaVuSans-6c"/>
      <path d="M 30.609375 48.390625 
Q 23.390625 48.390625 19.1875 42.75 
Q 14.984375 37.109375 14.984375 27.296875 
Q 14.984375 17.484375 19.15625 11.84375 
Q 23.34375 6.203125 30.609375 6.203125 
Q 37.796875 6.203125 41.984375 11.859375 
Q 46.1875 17.53125 46.1875 27.296875 
Q 46.1875 37.015625 41.984375 42.703125 
Q 37.796875 48.390625 30.609375 48.390625 
z
M 30.609375 56 
Q 42.328125 56 49.015625 48.375 
Q 55.71875 40.765625 55.71875 27.296875 
Q 55.71875 13.875 49.015625 6.21875 
Q 42.328125 -1.421875 30.609375 -1.421875 
Q 18.84375 -1.421875 12.171875 6.21875 
Q 5.515625 13.875 5.515625 27.296875 
Q 5.515625 40.765625 12.171875 48.375 
Q 18.84375 56 30.609375 56 
z
" id="DejaVuSans-6f"/>
      <path d="M 8.015625 75.875 
L 15.828125 75.875 
Q 23.140625 64.359375 26.78125 53.3125 
Q 30.421875 42.28125 30.421875 31.390625 
Q 30.421875 20.453125 26.78125 9.375 
Q 23.140625 -1.703125 15.828125 -13.1875 
L 8.015625 -13.1875 
Q 14.5 -2 17.703125 9.0625 
Q 20.90625 20.125 20.90625 31.390625 
Q 20.90625 42.671875 17.703125 53.65625 
Q 14.5 64.65625 8.015625 75.875 
z
" id="DejaVuSans-29"/>
     </defs>
     <g transform="translate(49.15625 248.644233)scale(0.1 -0.1)">
      <use transform="translate(0 0.684375)" xlink:href="#DejaVuSans-6d"/>
      <use transform="translate(97.412109 0.684375)" xlink:href="#DejaVuSans-43"/>
      <use transform="translate(167.236328 0.684375)" xlink:href="#DejaVuSans-53"/>
      <use transform="translate(230.712891 0.684375)" xlink:href="#DejaVuSans-4d"/>
      <use transform="translate(316.992188 0.684375)" xlink:href="#DejaVuSans-2d"/>
      <use transform="translate(353.076172 0.684375)" xlink:href="#DejaVuSans-50"/>
      <use transform="translate(413.378906 0.684375)" xlink:href="#DejaVuSans-50"/>
      <use transform="translate(473.681641 0.684375)" xlink:href="#DejaVuSans-49"/>
      <use transform="translate(503.173828 0.684375)" xlink:href="#DejaVuSans-32"/>
      <use transform="translate(566.796875 0.684375)" xlink:href="#DejaVuSans-20"/>
      <use transform="translate(598.583984 0.684375)" xlink:href="#DejaVuSans-394"/>
      <use transform="translate(666.992188 0.684375)" xlink:href="#DejaVuSans-394"/>
      <use transform="translate(735.400391 0.684375)" xlink:href="#DejaVuSans-47"/>
      <use transform="translate(812.890625 0.684375)" xlink:href="#DejaVuSans-20"/>
      <use transform="translate(844.677734 0.684375)" xlink:href="#DejaVuSans-28"/>
      <use transform="translate(883.691406 0.684375)" xlink:href="#DejaVuSans-6b"/>
      <use transform="translate(941.601562 0.684375)" xlink:href="#DejaVuSans-63"/>
      <use transform="translate(996.582031 0.684375)" xlink:href="#DejaVuSans-61"/>
      <use transform="translate(1057.861328 0.684375)" xlink:href="#DejaVuSans-6c"/>
      <use transform="translate(1085.644531 0.684375)" xlink:href="#DejaVuSans-20"/>
      <use transform="translate(1117.431641 0.684375)" xlink:href="#DejaVuSans-6d"/>
      <use transform="translate(1214.84375 0.684375)" xlink:href="#DejaVuSans-6f"/>
      <use transform="translate(1276.025391 0.684375)" xlink:href="#DejaVuSans-6c"/>
      <use transform="translate(1304.765625 38.965625)scale(0.7)" xlink:href="#DejaVuSans-2212"/>
      <use transform="translate(1363.417969 38.965625)scale(0.7)" xlink:href="#DejaVuSans-31"/>
      <use transform="translate(1410.688477 0.684375)" xlink:href="#DejaVuSans-29"/>
     </g>
    </g>
   </g>
   <g id="matplotlib.axis_2">
    <g id="ytick_1">
     <g id="line2d_4">
      <defs>
       <path d="M 0 0 
L -3.5 0 
" id="m23f608c02b" style="stroke:#000000;stroke-width:0.8;"/>
      </defs>
      <g>
       <use style="stroke:#000000;stroke-width:0.8;" x="44.425" xlink:href="#m23f608c02b" y="219.645795"/>
      </g>
     </g>
     <g id="text_5">
      <!-- 0 -->
      <g transform="translate(31.0625 223.445014)scale(0.1 -0.1)">
       <use xlink:href="#DejaVuSans-30"/>
      </g>
     </g>
    </g>
    <g id="ytick_2">
     <g id="line2d_5">
      <g>
       <use style="stroke:#000000;stroke-width:0.8;" x="44.425" xlink:href="#m23f608c02b" y="190.801258"/>
      </g>
     </g>
     <g id="text_6">
      <!-- 10 -->
      <g transform="translate(24.7 194.600476)scale(0.1 -0.1)">
       <use xlink:href="#DejaVuSans-31"/>
       <use x="63.623047" xlink:href="#DejaVuSans-30"/>
      </g>
     </g>
    </g>
    <g id="ytick_3">
     <g id="line2d_6">
      <g>
       <use style="stroke:#000000;stroke-width:0.8;" x="44.425" xlink:href="#m23f608c02b" y="161.95672"/>
      </g>
     </g>
     <g id="text_7">
      <!-- 20 -->
      <g transform="translate(24.7 165.755939)scale(0.1 -0.1)">
       <use xlink:href="#DejaVuSans-32"/>
       <use x="63.623047" xlink:href="#DejaVuSans-30"/>
      </g>
     </g>
    </g>
    <g id="ytick_4">
     <g id="line2d_7">
      <g>
       <use style="stroke:#000000;stroke-width:0.8;" x="44.425" xlink:href="#m23f608c02b" y="133.112182"/>
      </g>
     </g>
     <g id="text_8">
      <!-- 30 -->
      <defs>
       <path d="M 40.578125 39.3125 
Q 47.65625 37.796875 51.625 33 
Q 55.609375 28.21875 55.609375 21.1875 
Q 55.609375 10.40625 48.1875 4.484375 
Q 40.765625 -1.421875 27.09375 -1.421875 
Q 22.515625 -1.421875 17.65625 -0.515625 
Q 12.796875 0.390625 7.625 2.203125 
L 7.625 11.71875 
Q 11.71875 9.328125 16.59375 8.109375 
Q 21.484375 6.890625 26.8125 6.890625 
Q 36.078125 6.890625 40.9375 10.546875 
Q 45.796875 14.203125 45.796875 21.1875 
Q 45.796875 27.640625 41.28125 31.265625 
Q 36.765625 34.90625 28.71875 34.90625 
L 20.21875 34.90625 
L 20.21875 43.015625 
L 29.109375 43.015625 
Q 36.375 43.015625 40.234375 45.921875 
Q 44.09375 48.828125 44.09375 54.296875 
Q 44.09375 59.90625 40.109375 62.90625 
Q 36.140625 65.921875 28.71875 65.921875 
Q 24.65625 65.921875 20.015625 65.03125 
Q 15.375 64.15625 9.8125 62.3125 
L 9.8125 71.09375 
Q 15.4375 72.65625 20.34375 73.4375 
Q 25.25 74.21875 29.59375 74.21875 
Q 40.828125 74.21875 47.359375 69.109375 
Q 53.90625 64.015625 53.90625 55.328125 
Q 53.90625 49.265625 50.4375 45.09375 
Q 46.96875 40.921875 40.578125 39.3125 
z
" id="DejaVuSans-33"/>
      </defs>
      <g transform="translate(24.7 136.911401)scale(0.1 -0.1)">
       <use xlink:href="#DejaVuSans-33"/>
       <use x="63.623047" xlink:href="#DejaVuSans-30"/>
      </g>
     </g>
    </g>
    <g id="ytick_5">
     <g id="line2d_8">
      <g>
       <use style="stroke:#000000;stroke-width:0.8;" x="44.425" xlink:href="#m23f608c02b" y="104.267644"/>
      </g>
     </g>
     <g id="text_9">
      <!-- 40 -->
      <defs>
       <path d="M 37.796875 64.3125 
L 12.890625 25.390625 
L 37.796875 25.390625 
z
M 35.203125 72.90625 
L 47.609375 72.90625 
L 47.609375 25.390625 
L 58.015625 25.390625 
L 58.015625 17.1875 
L 47.609375 17.1875 
L 47.609375 0 
L 37.796875 0 
L 37.796875 17.1875 
L 4.890625 17.1875 
L 4.890625 26.703125 
z
" id="DejaVuSans-34"/>
      </defs>
      <g transform="translate(24.7 108.066863)scale(0.1 -0.1)">
       <use xlink:href="#DejaVuSans-34"/>
       <use x="63.623047" xlink:href="#DejaVuSans-30"/>
      </g>
     </g>
    </g>
    <g id="ytick_6">
     <g id="line2d_9">
      <g>
       <use style="stroke:#000000;stroke-width:0.8;" x="44.425" xlink:href="#m23f608c02b" y="75.423106"/>
      </g>
     </g>
     <g id="text_10">
      <!-- 50 -->
      <defs>
       <path d="M 10.796875 72.90625 
L 49.515625 72.90625 
L 49.515625 64.59375 
L 19.828125 64.59375 
L 19.828125 46.734375 
Q 21.96875 47.46875 24.109375 47.828125 
Q 26.265625 48.1875 28.421875 48.1875 
Q 40.625 48.1875 47.75 41.5 
Q 54.890625 34.8125 54.890625 23.390625 
Q 54.890625 11.625 47.5625 5.09375 
Q 40.234375 -1.421875 26.90625 -1.421875 
Q 22.3125 -1.421875 17.546875 -0.640625 
Q 12.796875 0.140625 7.71875 1.703125 
L 7.71875 11.625 
Q 12.109375 9.234375 16.796875 8.0625 
Q 21.484375 6.890625 26.703125 6.890625 
Q 35.15625 6.890625 40.078125 11.328125 
Q 45.015625 15.765625 45.015625 23.390625 
Q 45.015625 31 40.078125 35.4375 
Q 35.15625 39.890625 26.703125 39.890625 
Q 22.75 39.890625 18.8125 39.015625 
Q 14.890625 38.140625 10.796875 36.28125 
z
" id="DejaVuSans-35"/>
      </defs>
      <g transform="translate(24.7 79.222325)scale(0.1 -0.1)">
       <use xlink:href="#DejaVuSans-35"/>
       <use x="63.623047" xlink:href="#DejaVuSans-30"/>
      </g>
     </g>
    </g>
    <g id="text_11">
     <!-- Frequency -->
     <defs>
      <path d="M 9.8125 72.90625 
L 51.703125 72.90625 
L 51.703125 64.59375 
L 19.671875 64.59375 
L 19.671875 43.109375 
L 48.578125 43.109375 
L 48.578125 34.8125 
L 19.671875 34.8125 
L 19.671875 0 
L 9.8125 0 
z
" id="DejaVuSans-46"/>
      <path d="M 41.109375 46.296875 
Q 39.59375 47.171875 37.8125 47.578125 
Q 36.03125 48 33.890625 48 
Q 26.265625 48 22.1875 43.046875 
Q 18.109375 38.09375 18.109375 28.8125 
L 18.109375 0 
L 9.078125 0 
L 9.078125 54.6875 
L 18.109375 54.6875 
L 18.109375 46.1875 
Q 20.953125 51.171875 25.484375 53.578125 
Q 30.03125 56 36.53125 56 
Q 37.453125 56 38.578125 55.875 
Q 39.703125 55.765625 41.0625 55.515625 
z
" id="DejaVuSans-72"/>
      <path d="M 56.203125 29.59375 
L 56.203125 25.203125 
L 14.890625 25.203125 
Q 15.484375 15.921875 20.484375 11.0625 
Q 25.484375 6.203125 34.421875 6.203125 
Q 39.59375 6.203125 44.453125 7.46875 
Q 49.3125 8.734375 54.109375 11.28125 
L 54.109375 2.78125 
Q 49.265625 0.734375 44.1875 -0.34375 
Q 39.109375 -1.421875 33.890625 -1.421875 
Q 20.796875 -1.421875 13.15625 6.1875 
Q 5.515625 13.8125 5.515625 26.8125 
Q 5.515625 40.234375 12.765625 48.109375 
Q 20.015625 56 32.328125 56 
Q 43.359375 56 49.78125 48.890625 
Q 56.203125 41.796875 56.203125 29.59375 
z
M 47.21875 32.234375 
Q 47.125 39.59375 43.09375 43.984375 
Q 39.0625 48.390625 32.421875 48.390625 
Q 24.90625 48.390625 20.390625 44.140625 
Q 15.875 39.890625 15.1875 32.171875 
z
" id="DejaVuSans-65"/>
      <path d="M 14.796875 27.296875 
Q 14.796875 17.390625 18.875 11.75 
Q 22.953125 6.109375 30.078125 6.109375 
Q 37.203125 6.109375 41.296875 11.75 
Q 45.40625 17.390625 45.40625 27.296875 
Q 45.40625 37.203125 41.296875 42.84375 
Q 37.203125 48.484375 30.078125 48.484375 
Q 22.953125 48.484375 18.875 42.84375 
Q 14.796875 37.203125 14.796875 27.296875 
z
M 45.40625 8.203125 
Q 42.578125 3.328125 38.25 0.953125 
Q 33.9375 -1.421875 27.875 -1.421875 
Q 17.96875 -1.421875 11.734375 6.484375 
Q 5.515625 14.40625 5.515625 27.296875 
Q 5.515625 40.1875 11.734375 48.09375 
Q 17.96875 56 27.875 56 
Q 33.9375 56 38.25 53.625 
Q 42.578125 51.265625 45.40625 46.390625 
L 45.40625 54.6875 
L 54.390625 54.6875 
L 54.390625 -20.796875 
L 45.40625 -20.796875 
z
" id="DejaVuSans-71"/>
      <path d="M 8.5 21.578125 
L 8.5 54.6875 
L 17.484375 54.6875 
L 17.484375 21.921875 
Q 17.484375 14.15625 20.5 10.265625 
Q 23.53125 6.390625 29.59375 6.390625 
Q 36.859375 6.390625 41.078125 11.03125 
Q 45.3125 15.671875 45.3125 23.6875 
L 45.3125 54.6875 
L 54.296875 54.6875 
L 54.296875 0 
L 45.3125 0 
L 45.3125 8.40625 
Q 42.046875 3.421875 37.71875 1 
Q 33.40625 -1.421875 27.6875 -1.421875 
Q 18.265625 -1.421875 13.375 4.4375 
Q 8.5 10.296875 8.5 21.578125 
z
M 31.109375 56 
z
" id="DejaVuSans-75"/>
      <path d="M 54.890625 33.015625 
L 54.890625 0 
L 45.90625 0 
L 45.90625 32.71875 
Q 45.90625 40.484375 42.875 44.328125 
Q 39.84375 48.1875 33.796875 48.1875 
Q 26.515625 48.1875 22.3125 43.546875 
Q 18.109375 38.921875 18.109375 30.90625 
L 18.109375 0 
L 9.078125 0 
L 9.078125 54.6875 
L 18.109375 54.6875 
L 18.109375 46.1875 
Q 21.34375 51.125 25.703125 53.5625 
Q 30.078125 56 35.796875 56 
Q 45.21875 56 50.046875 50.171875 
Q 54.890625 44.34375 54.890625 33.015625 
z
" id="DejaVuSans-6e"/>
      <path d="M 32.171875 -5.078125 
Q 28.375 -14.84375 24.75 -17.8125 
Q 21.140625 -20.796875 15.09375 -20.796875 
L 7.90625 -20.796875 
L 7.90625 -13.28125 
L 13.1875 -13.28125 
Q 16.890625 -13.28125 18.9375 -11.515625 
Q 21 -9.765625 23.484375 -3.21875 
L 25.09375 0.875 
L 2.984375 54.6875 
L 12.5 54.6875 
L 29.59375 11.921875 
L 46.6875 54.6875 
L 56.203125 54.6875 
z
" id="DejaVuSans-79"/>
     </defs>
     <g transform="translate(18.620313 168.712202)rotate(-90)scale(0.1 -0.1)">
      <use xlink:href="#DejaVuSans-46"/>
      <use x="57.410156" xlink:href="#DejaVuSans-72"/>
      <use x="98.492188" xlink:href="#DejaVuSans-65"/>
      <use x="160.015625" xlink:href="#DejaVuSans-71"/>
      <use x="223.492188" xlink:href="#DejaVuSans-75"/>
      <use x="286.871094" xlink:href="#DejaVuSans-65"/>
      <use x="348.394531" xlink:href="#DejaVuSans-6e"/>
      <use x="411.773438" xlink:href="#DejaVuSans-63"/>
      <use x="466.753906" xlink:href="#DejaVuSans-79"/>
     </g>
    </g>
   </g>
   <g id="patch_23">
    <path d="M 44.425 219.645795 
L 44.425 65.183295 
" style="fill:none;stroke:#000000;stroke-linecap:square;stroke-linejoin:miter;stroke-width:0.8;"/>
   </g>
   <g id="patch_24">
    <path d="M 198.8875 219.645795 
L 198.8875 65.183295 
" style="fill:none;stroke:#000000;stroke-linecap:square;stroke-linejoin:miter;stroke-width:0.8;"/>
   </g>
   <g id="patch_25">
    <path d="M 44.425 219.645795 
L 198.8875 219.645795 
" style="fill:none;stroke:#000000;stroke-linecap:square;stroke-linejoin:miter;stroke-width:0.8;"/>
   </g>
   <g id="patch_26">
    <path d="M 44.425 65.183295 
L 198.8875 65.183295 
" style="fill:none;stroke:#000000;stroke-linecap:square;stroke-linejoin:miter;stroke-width:0.8;"/>
   </g>
  </g>
  <g id="axes_2">
   <g id="patch_27">
    <path d="M 263.2375 219.645795 
L 417.7 219.645795 
L 417.7 65.183295 
L 263.2375 65.183295 
z
" style="fill:#ffffff;"/>
   </g>
   <g id="matplotlib.axis_3">
    <g id="xtick_4">
     <g id="line2d_10">
      <g>
       <use style="stroke:#000000;stroke-width:0.8;" x="287.284656" xlink:href="#m85cab3e058" y="219.645795"/>
      </g>
     </g>
     <g id="text_12">
      <!-- −2 -->
      <g transform="translate(279.913562 234.244233)scale(0.1 -0.1)">
       <use xlink:href="#DejaVuSans-2212"/>
       <use x="83.789062" xlink:href="#DejaVuSans-32"/>
      </g>
     </g>
    </g>
    <g id="xtick_5">
     <g id="line2d_11">
      <g>
       <use style="stroke:#000000;stroke-width:0.8;" x="340.46875" xlink:href="#m85cab3e058" y="219.645795"/>
      </g>
     </g>
     <g id="text_13">
      <!-- 0 -->
      <g transform="translate(337.2875 234.244233)scale(0.1 -0.1)">
       <use xlink:href="#DejaVuSans-30"/>
      </g>
     </g>
    </g>
    <g id="xtick_6">
     <g id="line2d_12">
      <g>
       <use style="stroke:#000000;stroke-width:0.8;" x="393.652844" xlink:href="#m85cab3e058" y="219.645795"/>
      </g>
     </g>
     <g id="text_14">
      <!-- 2 -->
      <g transform="translate(390.471594 234.244233)scale(0.1 -0.1)">
       <use xlink:href="#DejaVuSans-32"/>
      </g>
     </g>
    </g>
    <g id="text_15">
     <!-- Theoretical quantiles -->
     <defs>
      <path d="M -0.296875 72.90625 
L 61.375 72.90625 
L 61.375 64.59375 
L 35.5 64.59375 
L 35.5 0 
L 25.59375 0 
L 25.59375 64.59375 
L -0.296875 64.59375 
z
" id="DejaVuSans-54"/>
      <path d="M 54.890625 33.015625 
L 54.890625 0 
L 45.90625 0 
L 45.90625 32.71875 
Q 45.90625 40.484375 42.875 44.328125 
Q 39.84375 48.1875 33.796875 48.1875 
Q 26.515625 48.1875 22.3125 43.546875 
Q 18.109375 38.921875 18.109375 30.90625 
L 18.109375 0 
L 9.078125 0 
L 9.078125 75.984375 
L 18.109375 75.984375 
L 18.109375 46.1875 
Q 21.34375 51.125 25.703125 53.5625 
Q 30.078125 56 35.796875 56 
Q 45.21875 56 50.046875 50.171875 
Q 54.890625 44.34375 54.890625 33.015625 
z
" id="DejaVuSans-68"/>
      <path d="M 18.3125 70.21875 
L 18.3125 54.6875 
L 36.8125 54.6875 
L 36.8125 47.703125 
L 18.3125 47.703125 
L 18.3125 18.015625 
Q 18.3125 11.328125 20.140625 9.421875 
Q 21.96875 7.515625 27.59375 7.515625 
L 36.8125 7.515625 
L 36.8125 0 
L 27.59375 0 
Q 17.1875 0 13.234375 3.875 
Q 9.28125 7.765625 9.28125 18.015625 
L 9.28125 47.703125 
L 2.6875 47.703125 
L 2.6875 54.6875 
L 9.28125 54.6875 
L 9.28125 70.21875 
z
" id="DejaVuSans-74"/>
      <path d="M 9.421875 54.6875 
L 18.40625 54.6875 
L 18.40625 0 
L 9.421875 0 
z
M 9.421875 75.984375 
L 18.40625 75.984375 
L 18.40625 64.59375 
L 9.421875 64.59375 
z
" id="DejaVuSans-69"/>
      <path d="M 44.28125 53.078125 
L 44.28125 44.578125 
Q 40.484375 46.53125 36.375 47.5 
Q 32.28125 48.484375 27.875 48.484375 
Q 21.1875 48.484375 17.84375 46.4375 
Q 14.5 44.390625 14.5 40.28125 
Q 14.5 37.15625 16.890625 35.375 
Q 19.28125 33.59375 26.515625 31.984375 
L 29.59375 31.296875 
Q 39.15625 29.25 43.1875 25.515625 
Q 47.21875 21.78125 47.21875 15.09375 
Q 47.21875 7.46875 41.1875 3.015625 
Q 35.15625 -1.421875 24.609375 -1.421875 
Q 20.21875 -1.421875 15.453125 -0.5625 
Q 10.6875 0.296875 5.421875 2 
L 5.421875 11.28125 
Q 10.40625 8.6875 15.234375 7.390625 
Q 20.0625 6.109375 24.8125 6.109375 
Q 31.15625 6.109375 34.5625 8.28125 
Q 37.984375 10.453125 37.984375 14.40625 
Q 37.984375 18.0625 35.515625 20.015625 
Q 33.0625 21.96875 24.703125 23.78125 
L 21.578125 24.515625 
Q 13.234375 26.265625 9.515625 29.90625 
Q 5.8125 33.546875 5.8125 39.890625 
Q 5.8125 47.609375 11.28125 51.796875 
Q 16.75 56 26.8125 56 
Q 31.78125 56 36.171875 55.265625 
Q 40.578125 54.546875 44.28125 53.078125 
z
" id="DejaVuSans-73"/>
     </defs>
     <g transform="translate(287.84375 247.922358)scale(0.1 -0.1)">
      <use xlink:href="#DejaVuSans-54"/>
      <use x="61.083984" xlink:href="#DejaVuSans-68"/>
      <use x="124.462891" xlink:href="#DejaVuSans-65"/>
      <use x="185.986328" xlink:href="#DejaVuSans-6f"/>
      <use x="247.167969" xlink:href="#DejaVuSans-72"/>
      <use x="288.25" xlink:href="#DejaVuSans-65"/>
      <use x="349.773438" xlink:href="#DejaVuSans-74"/>
      <use x="388.982422" xlink:href="#DejaVuSans-69"/>
      <use x="416.765625" xlink:href="#DejaVuSans-63"/>
      <use x="471.746094" xlink:href="#DejaVuSans-61"/>
      <use x="533.025391" xlink:href="#DejaVuSans-6c"/>
      <use x="560.808594" xlink:href="#DejaVuSans-20"/>
      <use x="592.595703" xlink:href="#DejaVuSans-71"/>
      <use x="656.072266" xlink:href="#DejaVuSans-75"/>
      <use x="719.451172" xlink:href="#DejaVuSans-61"/>
      <use x="780.730469" xlink:href="#DejaVuSans-6e"/>
      <use x="844.109375" xlink:href="#DejaVuSans-74"/>
      <use x="883.318359" xlink:href="#DejaVuSans-69"/>
      <use x="911.101562" xlink:href="#DejaVuSans-6c"/>
      <use x="938.884766" xlink:href="#DejaVuSans-65"/>
      <use x="1000.408203" xlink:href="#DejaVuSans-73"/>
     </g>
    </g>
   </g>
   <g id="matplotlib.axis_4">
    <g id="ytick_7">
     <g id="line2d_13">
      <g>
       <use style="stroke:#000000;stroke-width:0.8;" x="263.2375" xlink:href="#m23f608c02b" y="192.892872"/>
      </g>
     </g>
     <g id="text_16">
      <!-- −1.0 -->
      <defs>
       <path d="M 10.6875 12.40625 
L 21 12.40625 
L 21 0 
L 10.6875 0 
z
" id="DejaVuSans-2e"/>
      </defs>
      <g transform="translate(231.954688 196.69209)scale(0.1 -0.1)">
       <use xlink:href="#DejaVuSans-2212"/>
       <use x="83.789062" xlink:href="#DejaVuSans-31"/>
       <use x="147.412109" xlink:href="#DejaVuSans-2e"/>
       <use x="179.199219" xlink:href="#DejaVuSans-30"/>
      </g>
     </g>
    </g>
    <g id="ytick_8">
     <g id="line2d_14">
      <g>
       <use style="stroke:#000000;stroke-width:0.8;" x="263.2375" xlink:href="#m23f608c02b" y="163.442273"/>
      </g>
     </g>
     <g id="text_17">
      <!-- −0.5 -->
      <g transform="translate(231.954688 167.241492)scale(0.1 -0.1)">
       <use xlink:href="#DejaVuSans-2212"/>
       <use x="83.789062" xlink:href="#DejaVuSans-30"/>
       <use x="147.412109" xlink:href="#DejaVuSans-2e"/>
       <use x="179.199219" xlink:href="#DejaVuSans-35"/>
      </g>
     </g>
    </g>
    <g id="ytick_9">
     <g id="line2d_15">
      <g>
       <use style="stroke:#000000;stroke-width:0.8;" x="263.2375" xlink:href="#m23f608c02b" y="133.991674"/>
      </g>
     </g>
     <g id="text_18">
      <!-- 0.0 -->
      <g transform="translate(240.334375 137.790893)scale(0.1 -0.1)">
       <use xlink:href="#DejaVuSans-30"/>
       <use x="63.623047" xlink:href="#DejaVuSans-2e"/>
       <use x="95.410156" xlink:href="#DejaVuSans-30"/>
      </g>
     </g>
    </g>
    <g id="ytick_10">
     <g id="line2d_16">
      <g>
       <use style="stroke:#000000;stroke-width:0.8;" x="263.2375" xlink:href="#m23f608c02b" y="104.541076"/>
      </g>
     </g>
     <g id="text_19">
      <!-- 0.5 -->
      <g transform="translate(240.334375 108.340294)scale(0.1 -0.1)">
       <use xlink:href="#DejaVuSans-30"/>
       <use x="63.623047" xlink:href="#DejaVuSans-2e"/>
       <use x="95.410156" xlink:href="#DejaVuSans-35"/>
      </g>
     </g>
    </g>
    <g id="ytick_11">
     <g id="line2d_17">
      <g>
       <use style="stroke:#000000;stroke-width:0.8;" x="263.2375" xlink:href="#m23f608c02b" y="75.090477"/>
      </g>
     </g>
     <g id="text_20">
      <!-- 1.0 -->
      <g transform="translate(240.334375 78.889696)scale(0.1 -0.1)">
       <use xlink:href="#DejaVuSans-31"/>
       <use x="63.623047" xlink:href="#DejaVuSans-2e"/>
       <use x="95.410156" xlink:href="#DejaVuSans-30"/>
      </g>
     </g>
    </g>
    <g id="text_21">
     <!-- mCSM-PPI2 ΔΔG (kcal mol$^{-1}$) -->
     <g transform="translate(225.875 214.914545)rotate(-90)scale(0.1 -0.1)">
      <use transform="translate(0 0.684375)" xlink:href="#DejaVuSans-6d"/>
      <use transform="translate(97.412109 0.684375)" xlink:href="#DejaVuSans-43"/>
      <use transform="translate(167.236328 0.684375)" xlink:href="#DejaVuSans-53"/>
      <use transform="translate(230.712891 0.684375)" xlink:href="#DejaVuSans-4d"/>
      <use transform="translate(316.992188 0.684375)" xlink:href="#DejaVuSans-2d"/>
      <use transform="translate(353.076172 0.684375)" xlink:href="#DejaVuSans-50"/>
      <use transform="translate(413.378906 0.684375)" xlink:href="#DejaVuSans-50"/>
      <use transform="translate(473.681641 0.684375)" xlink:href="#DejaVuSans-49"/>
      <use transform="translate(503.173828 0.684375)" xlink:href="#DejaVuSans-32"/>
      <use transform="translate(566.796875 0.684375)" xlink:href="#DejaVuSans-20"/>
      <use transform="translate(598.583984 0.684375)" xlink:href="#DejaVuSans-394"/>
      <use transform="translate(666.992188 0.684375)" xlink:href="#DejaVuSans-394"/>
      <use transform="translate(735.400391 0.684375)" xlink:href="#DejaVuSans-47"/>
      <use transform="translate(812.890625 0.684375)" xlink:href="#DejaVuSans-20"/>
      <use transform="translate(844.677734 0.684375)" xlink:href="#DejaVuSans-28"/>
      <use transform="translate(883.691406 0.684375)" xlink:href="#DejaVuSans-6b"/>
      <use transform="translate(941.601562 0.684375)" xlink:href="#DejaVuSans-63"/>
      <use transform="translate(996.582031 0.684375)" xlink:href="#DejaVuSans-61"/>
      <use transform="translate(1057.861328 0.684375)" xlink:href="#DejaVuSans-6c"/>
      <use transform="translate(1085.644531 0.684375)" xlink:href="#DejaVuSans-20"/>
      <use transform="translate(1117.431641 0.684375)" xlink:href="#DejaVuSans-6d"/>
      <use transform="translate(1214.84375 0.684375)" xlink:href="#DejaVuSans-6f"/>
      <use transform="translate(1276.025391 0.684375)" xlink:href="#DejaVuSans-6c"/>
      <use transform="translate(1304.765625 38.965625)scale(0.7)" xlink:href="#DejaVuSans-2212"/>
      <use transform="translate(1363.417969 38.965625)scale(0.7)" xlink:href="#DejaVuSans-31"/>
      <use transform="translate(1410.688477 0.684375)" xlink:href="#DejaVuSans-29"/>
     </g>
    </g>
   </g>
   <g id="line2d_18">
    <defs>
     <path d="M 0 3 
C 0.795609 3 1.55874 2.683901 2.12132 2.12132 
C 2.683901 1.55874 3 0.795609 3 0 
C 3 -0.795609 2.683901 -1.55874 2.12132 -2.12132 
C 1.55874 -2.683901 0.795609 -3 0 -3 
C -0.795609 -3 -1.55874 -2.683901 -2.12132 -2.12132 
C -2.683901 -1.55874 -3 -0.795609 -3 0 
C -3 0.795609 -2.683901 1.55874 -2.12132 2.12132 
C -1.55874 2.683901 -0.795609 3 0 3 
z
" id="mf805d937fd" style="stroke:#0000ff;"/>
    </defs>
    <g clip-path="url(#p870aaf06df)">
     <use style="fill:#0000ff;stroke:#0000ff;" x="270.258523" xlink:href="#mf805d937fd" y="212.624773"/>
     <use style="fill:#0000ff;stroke:#0000ff;" x="278.659036" xlink:href="#mf805d937fd" y="202.847174"/>
     <use style="fill:#0000ff;stroke:#0000ff;" x="283.462966" xlink:href="#mf805d937fd" y="199.136399"/>
     <use style="fill:#0000ff;stroke:#0000ff;" x="286.911375" xlink:href="#mf805d937fd" y="178.697683"/>
     <use style="fill:#0000ff;stroke:#0000ff;" x="289.641198" xlink:href="#mf805d937fd" y="177.57856"/>
     <use style="fill:#0000ff;stroke:#0000ff;" x="291.921416" xlink:href="#mf805d937fd" y="176.047129"/>
     <use style="fill:#0000ff;stroke:#0000ff;" x="293.892097" xlink:href="#mf805d937fd" y="175.57592"/>
     <use style="fill:#0000ff;stroke:#0000ff;" x="295.635875" xlink:href="#mf805d937fd" y="170.157009"/>
     <use style="fill:#0000ff;stroke:#0000ff;" x="297.205764" xlink:href="#mf805d937fd" y="168.920084"/>
     <use style="fill:#0000ff;stroke:#0000ff;" x="298.637895" xlink:href="#mf805d937fd" y="167.035246"/>
     <use style="fill:#0000ff;stroke:#0000ff;" x="299.958049" xlink:href="#mf805d937fd" y="166.26953"/>
     <use style="fill:#0000ff;stroke:#0000ff;" x="301.185293" xlink:href="#mf805d937fd" y="165.916123"/>
     <use style="fill:#0000ff;stroke:#0000ff;" x="302.334144" xlink:href="#mf805d937fd" y="162.853261"/>
     <use style="fill:#0000ff;stroke:#0000ff;" x="303.415924" xlink:href="#mf805d937fd" y="162.617656"/>
     <use style="fill:#0000ff;stroke:#0000ff;" x="304.439638" xlink:href="#mf805d937fd" y="162.205348"/>
     <use style="fill:#0000ff;stroke:#0000ff;" x="305.412576" xlink:href="#mf805d937fd" y="161.616336"/>
     <use style="fill:#0000ff;stroke:#0000ff;" x="306.340724" xlink:href="#mf805d937fd" y="160.909521"/>
     <use style="fill:#0000ff;stroke:#0000ff;" x="307.229061" xlink:href="#mf805d937fd" y="160.202707"/>
     <use style="fill:#0000ff;stroke:#0000ff;" x="308.081777" xlink:href="#mf805d937fd" y="159.967102"/>
     <use style="fill:#0000ff;stroke:#0000ff;" x="308.902431" xlink:href="#mf805d937fd" y="159.319189"/>
     <use style="fill:#0000ff;stroke:#0000ff;" x="309.694074" xlink:href="#mf805d937fd" y="159.024683"/>
     <use style="fill:#0000ff;stroke:#0000ff;" x="310.459344" xlink:href="#mf805d937fd" y="158.671276"/>
     <use style="fill:#0000ff;stroke:#0000ff;" x="311.200535" xlink:href="#mf805d937fd" y="158.435671"/>
     <use style="fill:#0000ff;stroke:#0000ff;" x="311.91966" xlink:href="#mf805d937fd" y="157.198746"/>
     <use style="fill:#0000ff;stroke:#0000ff;" x="312.61849" xlink:href="#mf805d937fd" y="156.138524"/>
     <use style="fill:#0000ff;stroke:#0000ff;" x="313.298597" xlink:href="#mf805d937fd" y="155.961821"/>
     <use style="fill:#0000ff;stroke:#0000ff;" x="313.961381" xlink:href="#mf805d937fd" y="155.490611"/>
     <use style="fill:#0000ff;stroke:#0000ff;" x="314.608095" xlink:href="#mf805d937fd" y="154.783797"/>
     <use style="fill:#0000ff;stroke:#0000ff;" x="315.239863" xlink:href="#mf805d937fd" y="154.724896"/>
     <use style="fill:#0000ff;stroke:#0000ff;" x="315.857703" xlink:href="#mf805d937fd" y="154.724896"/>
     <use style="fill:#0000ff;stroke:#0000ff;" x="316.462535" xlink:href="#mf805d937fd" y="154.43039"/>
     <use style="fill:#0000ff;stroke:#0000ff;" x="317.055196" xlink:href="#mf805d937fd" y="154.018081"/>
     <use style="fill:#0000ff;stroke:#0000ff;" x="317.636449" xlink:href="#mf805d937fd" y="153.664674"/>
     <use style="fill:#0000ff;stroke:#0000ff;" x="318.206993" xlink:href="#mf805d937fd" y="152.95786"/>
     <use style="fill:#0000ff;stroke:#0000ff;" x="318.767468" xlink:href="#mf805d937fd" y="152.604453"/>
     <use style="fill:#0000ff;stroke:#0000ff;" x="319.318465" xlink:href="#mf805d937fd" y="152.368848"/>
     <use style="fill:#0000ff;stroke:#0000ff;" x="319.860527" xlink:href="#mf805d937fd" y="152.251045"/>
     <use style="fill:#0000ff;stroke:#0000ff;" x="320.394159" xlink:href="#mf805d937fd" y="152.251045"/>
     <use style="fill:#0000ff;stroke:#0000ff;" x="320.919826" xlink:href="#mf805d937fd" y="151.544231"/>
     <use style="fill:#0000ff;stroke:#0000ff;" x="321.437962" xlink:href="#mf805d937fd" y="150.307306"/>
     <use style="fill:#0000ff;stroke:#0000ff;" x="321.948972" xlink:href="#mf805d937fd" y="148.952578"/>
     <use style="fill:#0000ff;stroke:#0000ff;" x="322.453233" xlink:href="#mf805d937fd" y="148.599171"/>
     <use style="fill:#0000ff;stroke:#0000ff;" x="322.951097" xlink:href="#mf805d937fd" y="148.481369"/>
     <use style="fill:#0000ff;stroke:#0000ff;" x="323.442894" xlink:href="#mf805d937fd" y="148.422468"/>
     <use style="fill:#0000ff;stroke:#0000ff;" x="323.928936" xlink:href="#mf805d937fd" y="147.656752"/>
     <use style="fill:#0000ff;stroke:#0000ff;" x="324.409514" xlink:href="#mf805d937fd" y="147.362246"/>
     <use style="fill:#0000ff;stroke:#0000ff;" x="324.884904" xlink:href="#mf805d937fd" y="146.714333"/>
     <use style="fill:#0000ff;stroke:#0000ff;" x="325.355363" xlink:href="#mf805d937fd" y="146.478728"/>
     <use style="fill:#0000ff;stroke:#0000ff;" x="325.82114" xlink:href="#mf805d937fd" y="146.419827"/>
     <use style="fill:#0000ff;stroke:#0000ff;" x="326.282465" xlink:href="#mf805d937fd" y="146.360926"/>
     <use style="fill:#0000ff;stroke:#0000ff;" x="326.739559" xlink:href="#mf805d937fd" y="146.007518"/>
     <use style="fill:#0000ff;stroke:#0000ff;" x="327.192632" xlink:href="#mf805d937fd" y="144.417186"/>
     <use style="fill:#0000ff;stroke:#0000ff;" x="327.641883" xlink:href="#mf805d937fd" y="144.063779"/>
     <use style="fill:#0000ff;stroke:#0000ff;" x="328.087503" xlink:href="#mf805d937fd" y="143.769273"/>
     <use style="fill:#0000ff;stroke:#0000ff;" x="328.529672" xlink:href="#mf805d937fd" y="143.710372"/>
     <use style="fill:#0000ff;stroke:#0000ff;" x="328.968565" xlink:href="#mf805d937fd" y="143.651471"/>
     <use style="fill:#0000ff;stroke:#0000ff;" x="329.404347" xlink:href="#mf805d937fd" y="142.885755"/>
     <use style="fill:#0000ff;stroke:#0000ff;" x="329.837177" xlink:href="#mf805d937fd" y="142.473447"/>
     <use style="fill:#0000ff;stroke:#0000ff;" x="330.267209" xlink:href="#mf805d937fd" y="142.237842"/>
     <use style="fill:#0000ff;stroke:#0000ff;" x="330.694589" xlink:href="#mf805d937fd" y="142.178941"/>
     <use style="fill:#0000ff;stroke:#0000ff;" x="331.11946" xlink:href="#mf805d937fd" y="142.178941"/>
     <use style="fill:#0000ff;stroke:#0000ff;" x="331.541956" xlink:href="#mf805d937fd" y="141.943336"/>
     <use style="fill:#0000ff;stroke:#0000ff;" x="331.962211" xlink:href="#mf805d937fd" y="141.766632"/>
     <use style="fill:#0000ff;stroke:#0000ff;" x="332.380353" xlink:href="#mf805d937fd" y="141.766632"/>
     <use style="fill:#0000ff;stroke:#0000ff;" x="332.796503" xlink:href="#mf805d937fd" y="141.766632"/>
     <use style="fill:#0000ff;stroke:#0000ff;" x="333.210783" xlink:href="#mf805d937fd" y="141.64883"/>
     <use style="fill:#0000ff;stroke:#0000ff;" x="333.623309" xlink:href="#mf805d937fd" y="141.531027"/>
     <use style="fill:#0000ff;stroke:#0000ff;" x="334.034194" xlink:href="#mf805d937fd" y="141.118719"/>
     <use style="fill:#0000ff;stroke:#0000ff;" x="334.443548" xlink:href="#mf805d937fd" y="140.883114"/>
     <use style="fill:#0000ff;stroke:#0000ff;" x="334.851479" xlink:href="#mf805d937fd" y="140.824213"/>
     <use style="fill:#0000ff;stroke:#0000ff;" x="335.258093" xlink:href="#mf805d937fd" y="140.529707"/>
     <use style="fill:#0000ff;stroke:#0000ff;" x="335.663492" xlink:href="#mf805d937fd" y="140.1763"/>
     <use style="fill:#0000ff;stroke:#0000ff;" x="336.067777" xlink:href="#mf805d937fd" y="140.058498"/>
     <use style="fill:#0000ff;stroke:#0000ff;" x="336.471047" xlink:href="#mf805d937fd" y="139.940695"/>
     <use style="fill:#0000ff;stroke:#0000ff;" x="336.8734" xlink:href="#mf805d937fd" y="139.646189"/>
     <use style="fill:#0000ff;stroke:#0000ff;" x="337.274932" xlink:href="#mf805d937fd" y="139.646189"/>
     <use style="fill:#0000ff;stroke:#0000ff;" x="337.675737" xlink:href="#mf805d937fd" y="139.528387"/>
     <use style="fill:#0000ff;stroke:#0000ff;" x="338.075908" xlink:href="#mf805d937fd" y="139.469486"/>
     <use style="fill:#0000ff;stroke:#0000ff;" x="338.475538" xlink:href="#mf805d937fd" y="139.469486"/>
     <use style="fill:#0000ff;stroke:#0000ff;" x="338.874718" xlink:href="#mf805d937fd" y="138.939375"/>
     <use style="fill:#0000ff;stroke:#0000ff;" x="339.273539" xlink:href="#mf805d937fd" y="138.880474"/>
     <use style="fill:#0000ff;stroke:#0000ff;" x="339.672092" xlink:href="#mf805d937fd" y="138.70377"/>
     <use style="fill:#0000ff;stroke:#0000ff;" x="340.070466" xlink:href="#mf805d937fd" y="138.644869"/>
     <use style="fill:#0000ff;stroke:#0000ff;" x="340.46875" xlink:href="#mf805d937fd" y="138.527066"/>
     <use style="fill:#0000ff;stroke:#0000ff;" x="340.867034" xlink:href="#mf805d937fd" y="138.468165"/>
     <use style="fill:#0000ff;stroke:#0000ff;" x="341.265408" xlink:href="#mf805d937fd" y="138.350363"/>
     <use style="fill:#0000ff;stroke:#0000ff;" x="341.663961" xlink:href="#mf805d937fd" y="138.291462"/>
     <use style="fill:#0000ff;stroke:#0000ff;" x="342.062782" xlink:href="#mf805d937fd" y="138.173659"/>
     <use style="fill:#0000ff;stroke:#0000ff;" x="342.461962" xlink:href="#mf805d937fd" y="138.114758"/>
     <use style="fill:#0000ff;stroke:#0000ff;" x="342.861592" xlink:href="#mf805d937fd" y="138.114758"/>
     <use style="fill:#0000ff;stroke:#0000ff;" x="343.261763" xlink:href="#mf805d937fd" y="137.879153"/>
     <use style="fill:#0000ff;stroke:#0000ff;" x="343.662568" xlink:href="#mf805d937fd" y="137.820252"/>
     <use style="fill:#0000ff;stroke:#0000ff;" x="344.0641" xlink:href="#mf805d937fd" y="137.643548"/>
     <use style="fill:#0000ff;stroke:#0000ff;" x="344.466453" xlink:href="#mf805d937fd" y="137.584647"/>
     <use style="fill:#0000ff;stroke:#0000ff;" x="344.869723" xlink:href="#mf805d937fd" y="137.290141"/>
     <use style="fill:#0000ff;stroke:#0000ff;" x="345.274008" xlink:href="#mf805d937fd" y="137.23124"/>
     <use style="fill:#0000ff;stroke:#0000ff;" x="345.679407" xlink:href="#mf805d937fd" y="137.054536"/>
     <use style="fill:#0000ff;stroke:#0000ff;" x="346.086021" xlink:href="#mf805d937fd" y="136.936734"/>
     <use style="fill:#0000ff;stroke:#0000ff;" x="346.493952" xlink:href="#mf805d937fd" y="136.936734"/>
     <use style="fill:#0000ff;stroke:#0000ff;" x="346.903306" xlink:href="#mf805d937fd" y="136.877833"/>
     <use style="fill:#0000ff;stroke:#0000ff;" x="347.314191" xlink:href="#mf805d937fd" y="136.583327"/>
     <use style="fill:#0000ff;stroke:#0000ff;" x="347.726717" xlink:href="#mf805d937fd" y="136.524426"/>
     <use style="fill:#0000ff;stroke:#0000ff;" x="348.140997" xlink:href="#mf805d937fd" y="136.465525"/>
     <use style="fill:#0000ff;stroke:#0000ff;" x="348.557147" xlink:href="#mf805d937fd" y="136.406623"/>
     <use style="fill:#0000ff;stroke:#0000ff;" x="348.975289" xlink:href="#mf805d937fd" y="136.171019"/>
     <use style="fill:#0000ff;stroke:#0000ff;" x="349.395544" xlink:href="#mf805d937fd" y="136.112117"/>
     <use style="fill:#0000ff;stroke:#0000ff;" x="349.81804" xlink:href="#mf805d937fd" y="136.112117"/>
     <use style="fill:#0000ff;stroke:#0000ff;" x="350.242911" xlink:href="#mf805d937fd" y="136.053216"/>
     <use style="fill:#0000ff;stroke:#0000ff;" x="350.670291" xlink:href="#mf805d937fd" y="135.994315"/>
     <use style="fill:#0000ff;stroke:#0000ff;" x="351.100323" xlink:href="#mf805d937fd" y="135.287501"/>
     <use style="fill:#0000ff;stroke:#0000ff;" x="351.533153" xlink:href="#mf805d937fd" y="135.110797"/>
     <use style="fill:#0000ff;stroke:#0000ff;" x="351.968935" xlink:href="#mf805d937fd" y="134.992995"/>
     <use style="fill:#0000ff;stroke:#0000ff;" x="352.407828" xlink:href="#mf805d937fd" y="134.875192"/>
     <use style="fill:#0000ff;stroke:#0000ff;" x="352.849997" xlink:href="#mf805d937fd" y="134.75739"/>
     <use style="fill:#0000ff;stroke:#0000ff;" x="353.295617" xlink:href="#mf805d937fd" y="134.698489"/>
     <use style="fill:#0000ff;stroke:#0000ff;" x="353.744868" xlink:href="#mf805d937fd" y="134.462884"/>
     <use style="fill:#0000ff;stroke:#0000ff;" x="354.197941" xlink:href="#mf805d937fd" y="134.403983"/>
     <use style="fill:#0000ff;stroke:#0000ff;" x="354.655035" xlink:href="#mf805d937fd" y="134.403983"/>
     <use style="fill:#0000ff;stroke:#0000ff;" x="355.11636" xlink:href="#mf805d937fd" y="134.403983"/>
     <use style="fill:#0000ff;stroke:#0000ff;" x="355.582137" xlink:href="#mf805d937fd" y="134.050575"/>
     <use style="fill:#0000ff;stroke:#0000ff;" x="356.052596" xlink:href="#mf805d937fd" y="133.991674"/>
     <use style="fill:#0000ff;stroke:#0000ff;" x="356.527986" xlink:href="#mf805d937fd" y="133.991674"/>
     <use style="fill:#0000ff;stroke:#0000ff;" x="357.008564" xlink:href="#mf805d937fd" y="133.756069"/>
     <use style="fill:#0000ff;stroke:#0000ff;" x="357.494606" xlink:href="#mf805d937fd" y="133.638267"/>
     <use style="fill:#0000ff;stroke:#0000ff;" x="357.986403" xlink:href="#mf805d937fd" y="133.579366"/>
     <use style="fill:#0000ff;stroke:#0000ff;" x="358.484267" xlink:href="#mf805d937fd" y="133.461563"/>
     <use style="fill:#0000ff;stroke:#0000ff;" x="358.988528" xlink:href="#mf805d937fd" y="133.28486"/>
     <use style="fill:#0000ff;stroke:#0000ff;" x="359.499538" xlink:href="#mf805d937fd" y="133.108156"/>
     <use style="fill:#0000ff;stroke:#0000ff;" x="360.017674" xlink:href="#mf805d937fd" y="132.81365"/>
     <use style="fill:#0000ff;stroke:#0000ff;" x="360.543341" xlink:href="#mf805d937fd" y="132.754749"/>
     <use style="fill:#0000ff;stroke:#0000ff;" x="361.076973" xlink:href="#mf805d937fd" y="132.460243"/>
     <use style="fill:#0000ff;stroke:#0000ff;" x="361.619035" xlink:href="#mf805d937fd" y="132.401342"/>
     <use style="fill:#0000ff;stroke:#0000ff;" x="362.170032" xlink:href="#mf805d937fd" y="132.28354"/>
     <use style="fill:#0000ff;stroke:#0000ff;" x="362.730507" xlink:href="#mf805d937fd" y="131.930132"/>
     <use style="fill:#0000ff;stroke:#0000ff;" x="363.301051" xlink:href="#mf805d937fd" y="131.871231"/>
     <use style="fill:#0000ff;stroke:#0000ff;" x="363.882304" xlink:href="#mf805d937fd" y="131.753429"/>
     <use style="fill:#0000ff;stroke:#0000ff;" x="364.474965" xlink:href="#mf805d937fd" y="131.694528"/>
     <use style="fill:#0000ff;stroke:#0000ff;" x="365.079797" xlink:href="#mf805d937fd" y="131.576725"/>
     <use style="fill:#0000ff;stroke:#0000ff;" x="365.697637" xlink:href="#mf805d937fd" y="131.400022"/>
     <use style="fill:#0000ff;stroke:#0000ff;" x="366.329405" xlink:href="#mf805d937fd" y="131.34112"/>
     <use style="fill:#0000ff;stroke:#0000ff;" x="366.976119" xlink:href="#mf805d937fd" y="130.987713"/>
     <use style="fill:#0000ff;stroke:#0000ff;" x="367.638903" xlink:href="#mf805d937fd" y="130.693207"/>
     <use style="fill:#0000ff;stroke:#0000ff;" x="368.31901" xlink:href="#mf805d937fd" y="130.693207"/>
     <use style="fill:#0000ff;stroke:#0000ff;" x="369.01784" xlink:href="#mf805d937fd" y="130.221998"/>
     <use style="fill:#0000ff;stroke:#0000ff;" x="369.736965" xlink:href="#mf805d937fd" y="130.221998"/>
     <use style="fill:#0000ff;stroke:#0000ff;" x="370.478156" xlink:href="#mf805d937fd" y="130.045294"/>
     <use style="fill:#0000ff;stroke:#0000ff;" x="371.243426" xlink:href="#mf805d937fd" y="129.927492"/>
     <use style="fill:#0000ff;stroke:#0000ff;" x="372.035069" xlink:href="#mf805d937fd" y="129.86859"/>
     <use style="fill:#0000ff;stroke:#0000ff;" x="372.855723" xlink:href="#mf805d937fd" y="129.220677"/>
     <use style="fill:#0000ff;stroke:#0000ff;" x="373.708439" xlink:href="#mf805d937fd" y="129.043974"/>
     <use style="fill:#0000ff;stroke:#0000ff;" x="374.596776" xlink:href="#mf805d937fd" y="128.985072"/>
     <use style="fill:#0000ff;stroke:#0000ff;" x="375.524924" xlink:href="#mf805d937fd" y="128.808369"/>
     <use style="fill:#0000ff;stroke:#0000ff;" x="376.497862" xlink:href="#mf805d937fd" y="128.572764"/>
     <use style="fill:#0000ff;stroke:#0000ff;" x="377.521576" xlink:href="#mf805d937fd" y="128.337159"/>
     <use style="fill:#0000ff;stroke:#0000ff;" x="378.603356" xlink:href="#mf805d937fd" y="128.160456"/>
     <use style="fill:#0000ff;stroke:#0000ff;" x="379.752207" xlink:href="#mf805d937fd" y="127.630345"/>
     <use style="fill:#0000ff;stroke:#0000ff;" x="380.979451" xlink:href="#mf805d937fd" y="127.218037"/>
     <use style="fill:#0000ff;stroke:#0000ff;" x="382.299605" xlink:href="#mf805d937fd" y="123.860668"/>
     <use style="fill:#0000ff;stroke:#0000ff;" x="383.731736" xlink:href="#mf805d937fd" y="122.152534"/>
     <use style="fill:#0000ff;stroke:#0000ff;" x="385.301625" xlink:href="#mf805d937fd" y="121.033411"/>
     <use style="fill:#0000ff;stroke:#0000ff;" x="387.045403" xlink:href="#mf805d937fd" y="119.207474"/>
     <use style="fill:#0000ff;stroke:#0000ff;" x="389.016084" xlink:href="#mf805d937fd" y="115.791204"/>
     <use style="fill:#0000ff;stroke:#0000ff;" x="391.296302" xlink:href="#mf805d937fd" y="111.13801"/>
     <use style="fill:#0000ff;stroke:#0000ff;" x="394.026125" xlink:href="#mf805d937fd" y="109.724381"/>
     <use style="fill:#0000ff;stroke:#0000ff;" x="397.474534" xlink:href="#mf805d937fd" y="106.602617"/>
     <use style="fill:#0000ff;stroke:#0000ff;" x="402.278464" xlink:href="#mf805d937fd" y="80.686091"/>
     <use style="fill:#0000ff;stroke:#0000ff;" x="410.678977" xlink:href="#mf805d937fd" y="72.204318"/>
    </g>
   </g>
   <g id="line2d_19">
    <path clip-path="url(#p870aaf06df)" d="M 270.258523 183.64178 
L 410.678977 99.774387 
L 410.678977 99.774387 
" style="fill:none;stroke:#ff0000;stroke-linecap:square;stroke-width:1.5;"/>
   </g>
   <g id="patch_28">
    <path d="M 263.2375 219.645795 
L 263.2375 65.183295 
" style="fill:none;stroke:#000000;stroke-linecap:square;stroke-linejoin:miter;stroke-width:0.8;"/>
   </g>
   <g id="patch_29">
    <path d="M 417.7 219.645795 
L 417.7 65.183295 
" style="fill:none;stroke:#000000;stroke-linecap:square;stroke-linejoin:miter;stroke-width:0.8;"/>
   </g>
   <g id="patch_30">
    <path d="M 263.2375 219.645795 
L 417.7 219.645795 
" style="fill:none;stroke:#000000;stroke-linecap:square;stroke-linejoin:miter;stroke-width:0.8;"/>
   </g>
   <g id="patch_31">
    <path d="M 263.2375 65.183295 
L 417.7 65.183295 
" style="fill:none;stroke:#000000;stroke-linecap:square;stroke-linejoin:miter;stroke-width:0.8;"/>
   </g>
  </g>
 </g>
 <defs>
  <clipPath id="pb0fefbb095">
   <rect height="154.4625" width="154.4625" x="44.425" y="65.183295"/>
  </clipPath>
  <clipPath id="p870aaf06df">
   <rect height="154.4625" width="154.4625" x="263.2375" y="65.183295"/>
  </clipPath>
 </defs>
</svg>
