<?xml version="1.0" encoding="utf-8" standalone="no"?>
<!DOCTYPE svg PUBLIC "-//W3C//DTD SVG 1.1//EN"
  "http://www.w3.org/Graphics/SVG/1.1/DTD/svg11.dtd">
<!-- Created with matplotlib (http://matplotlib.org/) -->
<svg height="288pt" version="1.1" viewBox="0 0 432 288" width="432pt" xmlns="http://www.w3.org/2000/svg" xmlns:xlink="http://www.w3.org/1999/xlink">
 <defs>
  <style type="text/css">
*{stroke-linecap:butt;stroke-linejoin:round;}
  </style>
 </defs>
 <g id="figure_1">
  <g id="patch_1">
   <path d="M 0 288 
L 432 288 
L 432 0 
L 0 0 
z
" style="fill:#ffffff;"/>
  </g>
  <g id="axes_1">
   <g id="patch_2">
    <path d="M 44.55 221.989545 
L 203.7 221.989545 
L 203.7 62.839545 
L 44.55 62.839545 
z
" style="fill:#ffffff;"/>
   </g>
   <g id="patch_3">
    <path clip-path="url(#pdface80b10)" d="M 51.784091 221.989545 
L 59.018182 221.989545 
L 59.018182 215.099935 
L 51.784091 215.099935 
z
" style="fill:#1f77b4;"/>
   </g>
   <g id="patch_4">
    <path clip-path="url(#pdface80b10)" d="M 59.018182 221.989545 
L 66.252273 221.989545 
L 66.252273 221.989545 
L 59.018182 221.989545 
z
" style="fill:#1f77b4;"/>
   </g>
   <g id="patch_5">
    <path clip-path="url(#pdface80b10)" d="M 66.252273 221.989545 
L 73.486364 221.989545 
L 73.486364 221.989545 
L 66.252273 221.989545 
z
" style="fill:#1f77b4;"/>
   </g>
   <g id="patch_6">
    <path clip-path="url(#pdface80b10)" d="M 73.486364 221.989545 
L 80.720455 221.989545 
L 80.720455 201.320714 
L 73.486364 201.320714 
z
" style="fill:#1f77b4;"/>
   </g>
   <g id="patch_7">
    <path clip-path="url(#pdface80b10)" d="M 80.720455 221.989545 
L 87.954545 221.989545 
L 87.954545 153.093442 
L 80.720455 153.093442 
z
" style="fill:#1f77b4;"/>
   </g>
   <g id="patch_8">
    <path clip-path="url(#pdface80b10)" d="M 87.954545 221.989545 
L 95.188636 221.989545 
L 95.188636 166.872662 
L 87.954545 166.872662 
z
" style="fill:#1f77b4;"/>
   </g>
   <g id="patch_9">
    <path clip-path="url(#pdface80b10)" d="M 95.188636 221.989545 
L 102.422727 221.989545 
L 102.422727 187.541494 
L 95.188636 187.541494 
z
" style="fill:#1f77b4;"/>
   </g>
   <g id="patch_10">
    <path clip-path="url(#pdface80b10)" d="M 102.422727 221.989545 
L 109.656818 221.989545 
L 109.656818 166.872662 
L 102.422727 166.872662 
z
" style="fill:#1f77b4;"/>
   </g>
   <g id="patch_11">
    <path clip-path="url(#pdface80b10)" d="M 109.656818 221.989545 
L 116.890909 221.989545 
L 116.890909 166.872662 
L 109.656818 166.872662 
z
" style="fill:#1f77b4;"/>
   </g>
   <g id="patch_12">
    <path clip-path="url(#pdface80b10)" d="M 116.890909 221.989545 
L 124.125 221.989545 
L 124.125 139.314221 
L 116.890909 139.314221 
z
" style="fill:#1f77b4;"/>
   </g>
   <g id="patch_13">
    <path clip-path="url(#pdface80b10)" d="M 124.125 221.989545 
L 131.359091 221.989545 
L 131.359091 70.418117 
L 124.125 70.418117 
z
" style="fill:#1f77b4;"/>
   </g>
   <g id="patch_14">
    <path clip-path="url(#pdface80b10)" d="M 131.359091 221.989545 
L 138.593182 221.989545 
L 138.593182 77.307727 
L 131.359091 77.307727 
z
" style="fill:#1f77b4;"/>
   </g>
   <g id="patch_15">
    <path clip-path="url(#pdface80b10)" d="M 138.593182 221.989545 
L 145.827273 221.989545 
L 145.827273 70.418117 
L 138.593182 70.418117 
z
" style="fill:#1f77b4;"/>
   </g>
   <g id="patch_16">
    <path clip-path="url(#pdface80b10)" d="M 145.827273 221.989545 
L 153.061364 221.989545 
L 153.061364 125.535 
L 145.827273 125.535 
z
" style="fill:#1f77b4;"/>
   </g>
   <g id="patch_17">
    <path clip-path="url(#pdface80b10)" d="M 153.061364 221.989545 
L 160.295455 221.989545 
L 160.295455 173.762273 
L 153.061364 173.762273 
z
" style="fill:#1f77b4;"/>
   </g>
   <g id="patch_18">
    <path clip-path="url(#pdface80b10)" d="M 160.295455 221.989545 
L 167.529545 221.989545 
L 167.529545 201.320714 
L 160.295455 201.320714 
z
" style="fill:#1f77b4;"/>
   </g>
   <g id="patch_19">
    <path clip-path="url(#pdface80b10)" d="M 167.529545 221.989545 
L 174.763636 221.989545 
L 174.763636 208.210325 
L 167.529545 208.210325 
z
" style="fill:#1f77b4;"/>
   </g>
   <g id="patch_20">
    <path clip-path="url(#pdface80b10)" d="M 174.763636 221.989545 
L 181.997727 221.989545 
L 181.997727 201.320714 
L 174.763636 201.320714 
z
" style="fill:#1f77b4;"/>
   </g>
   <g id="patch_21">
    <path clip-path="url(#pdface80b10)" d="M 181.997727 221.989545 
L 189.231818 221.989545 
L 189.231818 215.099935 
L 181.997727 215.099935 
z
" style="fill:#1f77b4;"/>
   </g>
   <g id="patch_22">
    <path clip-path="url(#pdface80b10)" d="M 189.231818 221.989545 
L 196.465909 221.989545 
L 196.465909 215.099935 
L 189.231818 215.099935 
z
" style="fill:#1f77b4;"/>
   </g>
   <g id="matplotlib.axis_1">
    <g id="xtick_1">
     <g id="line2d_1">
      <defs>
       <path d="M 0 0 
L 0 3.5 
" id="m6493f18604" style="stroke:#000000;stroke-width:0.8;"/>
      </defs>
      <g>
       <use style="stroke:#000000;stroke-width:0.8;" x="75.256694" xlink:href="#m6493f18604" y="221.989545"/>
      </g>
     </g>
     <g id="text_1">
      <!-- −2 -->
      <defs>
       <path d="M 10.59375 35.5 
L 73.1875 35.5 
L 73.1875 27.203125 
L 10.59375 27.203125 
z
" id="DejaVuSans-2212"/>
       <path d="M 19.1875 8.296875 
L 53.609375 8.296875 
L 53.609375 0 
L 7.328125 0 
L 7.328125 8.296875 
Q 12.9375 14.109375 22.625 23.890625 
Q 32.328125 33.6875 34.8125 36.53125 
Q 39.546875 41.84375 41.421875 45.53125 
Q 43.3125 49.21875 43.3125 52.78125 
Q 43.3125 58.59375 39.234375 62.25 
Q 35.15625 65.921875 28.609375 65.921875 
Q 23.96875 65.921875 18.8125 64.3125 
Q 13.671875 62.703125 7.8125 59.421875 
L 7.8125 69.390625 
Q 13.765625 71.78125 18.9375 73 
Q 24.125 74.21875 28.421875 74.21875 
Q 39.75 74.21875 46.484375 68.546875 
Q 53.21875 62.890625 53.21875 53.421875 
Q 53.21875 48.921875 51.53125 44.890625 
Q 49.859375 40.875 45.40625 35.40625 
Q 44.1875 33.984375 37.640625 27.21875 
Q 31.109375 20.453125 19.1875 8.296875 
z
" id="DejaVuSans-32"/>
      </defs>
      <g transform="translate(67.8856 236.587983)scale(0.1 -0.1)">
       <use xlink:href="#DejaVuSans-2212"/>
       <use x="83.789062" xlink:href="#DejaVuSans-32"/>
      </g>
     </g>
    </g>
    <g id="xtick_2">
     <g id="line2d_2">
      <g>
       <use style="stroke:#000000;stroke-width:0.8;" x="111.202487" xlink:href="#m6493f18604" y="221.989545"/>
      </g>
     </g>
     <g id="text_2">
      <!-- −1 -->
      <defs>
       <path d="M 12.40625 8.296875 
L 28.515625 8.296875 
L 28.515625 63.921875 
L 10.984375 60.40625 
L 10.984375 69.390625 
L 28.421875 72.90625 
L 38.28125 72.90625 
L 38.28125 8.296875 
L 54.390625 8.296875 
L 54.390625 0 
L 12.40625 0 
z
" id="DejaVuSans-31"/>
      </defs>
      <g transform="translate(103.831394 236.587983)scale(0.1 -0.1)">
       <use xlink:href="#DejaVuSans-2212"/>
       <use x="83.789062" xlink:href="#DejaVuSans-31"/>
      </g>
     </g>
    </g>
    <g id="xtick_3">
     <g id="line2d_3">
      <g>
       <use style="stroke:#000000;stroke-width:0.8;" x="147.148281" xlink:href="#m6493f18604" y="221.989545"/>
      </g>
     </g>
     <g id="text_3">
      <!-- 0 -->
      <defs>
       <path d="M 31.78125 66.40625 
Q 24.171875 66.40625 20.328125 58.90625 
Q 16.5 51.421875 16.5 36.375 
Q 16.5 21.390625 20.328125 13.890625 
Q 24.171875 6.390625 31.78125 6.390625 
Q 39.453125 6.390625 43.28125 13.890625 
Q 47.125 21.390625 47.125 36.375 
Q 47.125 51.421875 43.28125 58.90625 
Q 39.453125 66.40625 31.78125 66.40625 
z
M 31.78125 74.21875 
Q 44.046875 74.21875 50.515625 64.515625 
Q 56.984375 54.828125 56.984375 36.375 
Q 56.984375 17.96875 50.515625 8.265625 
Q 44.046875 -1.421875 31.78125 -1.421875 
Q 19.53125 -1.421875 13.0625 8.265625 
Q 6.59375 17.96875 6.59375 36.375 
Q 6.59375 54.828125 13.0625 64.515625 
Q 19.53125 74.21875 31.78125 74.21875 
z
" id="DejaVuSans-30"/>
      </defs>
      <g transform="translate(143.967031 236.587983)scale(0.1 -0.1)">
       <use xlink:href="#DejaVuSans-30"/>
      </g>
     </g>
    </g>
    <g id="xtick_4">
     <g id="line2d_4">
      <g>
       <use style="stroke:#000000;stroke-width:0.8;" x="183.094074" xlink:href="#m6493f18604" y="221.989545"/>
      </g>
     </g>
     <g id="text_4">
      <!-- 1 -->
      <g transform="translate(179.912824 236.587983)scale(0.1 -0.1)">
       <use xlink:href="#DejaVuSans-31"/>
      </g>
     </g>
    </g>
    <g id="text_5">
     <!-- mCSM-PPI2 ΔΔG (kcal mol$^{-1}$) -->
     <defs>
      <path d="M 52 44.1875 
Q 55.375 50.25 60.0625 53.125 
Q 64.75 56 71.09375 56 
Q 79.640625 56 84.28125 50.015625 
Q 88.921875 44.046875 88.921875 33.015625 
L 88.921875 0 
L 79.890625 0 
L 79.890625 32.71875 
Q 79.890625 40.578125 77.09375 44.375 
Q 74.3125 48.1875 68.609375 48.1875 
Q 61.625 48.1875 57.5625 43.546875 
Q 53.515625 38.921875 53.515625 30.90625 
L 53.515625 0 
L 44.484375 0 
L 44.484375 32.71875 
Q 44.484375 40.625 41.703125 44.40625 
Q 38.921875 48.1875 33.109375 48.1875 
Q 26.21875 48.1875 22.15625 43.53125 
Q 18.109375 38.875 18.109375 30.90625 
L 18.109375 0 
L 9.078125 0 
L 9.078125 54.6875 
L 18.109375 54.6875 
L 18.109375 46.1875 
Q 21.1875 51.21875 25.484375 53.609375 
Q 29.78125 56 35.6875 56 
Q 41.65625 56 45.828125 52.96875 
Q 50 49.953125 52 44.1875 
z
" id="DejaVuSans-6d"/>
      <path d="M 64.40625 67.28125 
L 64.40625 56.890625 
Q 59.421875 61.53125 53.78125 63.8125 
Q 48.140625 66.109375 41.796875 66.109375 
Q 29.296875 66.109375 22.65625 58.46875 
Q 16.015625 50.828125 16.015625 36.375 
Q 16.015625 21.96875 22.65625 14.328125 
Q 29.296875 6.6875 41.796875 6.6875 
Q 48.140625 6.6875 53.78125 8.984375 
Q 59.421875 11.28125 64.40625 15.921875 
L 64.40625 5.609375 
Q 59.234375 2.09375 53.4375 0.328125 
Q 47.65625 -1.421875 41.21875 -1.421875 
Q 24.65625 -1.421875 15.125 8.703125 
Q 5.609375 18.84375 5.609375 36.375 
Q 5.609375 53.953125 15.125 64.078125 
Q 24.65625 74.21875 41.21875 74.21875 
Q 47.75 74.21875 53.53125 72.484375 
Q 59.328125 70.75 64.40625 67.28125 
z
" id="DejaVuSans-43"/>
      <path d="M 53.515625 70.515625 
L 53.515625 60.890625 
Q 47.90625 63.578125 42.921875 64.890625 
Q 37.9375 66.21875 33.296875 66.21875 
Q 25.25 66.21875 20.875 63.09375 
Q 16.5 59.96875 16.5 54.203125 
Q 16.5 49.359375 19.40625 46.890625 
Q 22.3125 44.4375 30.421875 42.921875 
L 36.375 41.703125 
Q 47.40625 39.59375 52.65625 34.296875 
Q 57.90625 29 57.90625 20.125 
Q 57.90625 9.515625 50.796875 4.046875 
Q 43.703125 -1.421875 29.984375 -1.421875 
Q 24.8125 -1.421875 18.96875 -0.25 
Q 13.140625 0.921875 6.890625 3.21875 
L 6.890625 13.375 
Q 12.890625 10.015625 18.65625 8.296875 
Q 24.421875 6.59375 29.984375 6.59375 
Q 38.421875 6.59375 43.015625 9.90625 
Q 47.609375 13.234375 47.609375 19.390625 
Q 47.609375 24.75 44.3125 27.78125 
Q 41.015625 30.8125 33.5 32.328125 
L 27.484375 33.5 
Q 16.453125 35.6875 11.515625 40.375 
Q 6.59375 45.0625 6.59375 53.421875 
Q 6.59375 63.09375 13.40625 68.65625 
Q 20.21875 74.21875 32.171875 74.21875 
Q 37.3125 74.21875 42.625 73.28125 
Q 47.953125 72.359375 53.515625 70.515625 
z
" id="DejaVuSans-53"/>
      <path d="M 9.8125 72.90625 
L 24.515625 72.90625 
L 43.109375 23.296875 
L 61.8125 72.90625 
L 76.515625 72.90625 
L 76.515625 0 
L 66.890625 0 
L 66.890625 64.015625 
L 48.09375 14.015625 
L 38.1875 14.015625 
L 19.390625 64.015625 
L 19.390625 0 
L 9.8125 0 
z
" id="DejaVuSans-4d"/>
      <path d="M 4.890625 31.390625 
L 31.203125 31.390625 
L 31.203125 23.390625 
L 4.890625 23.390625 
z
" id="DejaVuSans-2d"/>
      <path d="M 19.671875 64.796875 
L 19.671875 37.40625 
L 32.078125 37.40625 
Q 38.96875 37.40625 42.71875 40.96875 
Q 46.484375 44.53125 46.484375 51.125 
Q 46.484375 57.671875 42.71875 61.234375 
Q 38.96875 64.796875 32.078125 64.796875 
z
M 9.8125 72.90625 
L 32.078125 72.90625 
Q 44.34375 72.90625 50.609375 67.359375 
Q 56.890625 61.8125 56.890625 51.125 
Q 56.890625 40.328125 50.609375 34.8125 
Q 44.34375 29.296875 32.078125 29.296875 
L 19.671875 29.296875 
L 19.671875 0 
L 9.8125 0 
z
" id="DejaVuSans-50"/>
      <path d="M 9.8125 72.90625 
L 19.671875 72.90625 
L 19.671875 0 
L 9.8125 0 
z
" id="DejaVuSans-49"/>
      <path id="DejaVuSans-20"/>
      <path d="M 34.1875 63.1875 
L 14.15625 8.203125 
L 54.25 8.203125 
z
M 0.78125 0 
L 28.609375 72.90625 
L 39.796875 72.90625 
L 67.578125 0 
z
" id="DejaVuSans-394"/>
      <path d="M 59.515625 10.40625 
L 59.515625 29.984375 
L 43.40625 29.984375 
L 43.40625 38.09375 
L 69.28125 38.09375 
L 69.28125 6.78125 
Q 63.578125 2.734375 56.6875 0.65625 
Q 49.8125 -1.421875 42 -1.421875 
Q 24.90625 -1.421875 15.25 8.5625 
Q 5.609375 18.5625 5.609375 36.375 
Q 5.609375 54.25 15.25 64.234375 
Q 24.90625 74.21875 42 74.21875 
Q 49.125 74.21875 55.546875 72.453125 
Q 61.96875 70.703125 67.390625 67.28125 
L 67.390625 56.78125 
Q 61.921875 61.421875 55.765625 63.765625 
Q 49.609375 66.109375 42.828125 66.109375 
Q 29.4375 66.109375 22.71875 58.640625 
Q 16.015625 51.171875 16.015625 36.375 
Q 16.015625 21.625 22.71875 14.15625 
Q 29.4375 6.6875 42.828125 6.6875 
Q 48.046875 6.6875 52.140625 7.59375 
Q 56.25 8.5 59.515625 10.40625 
z
" id="DejaVuSans-47"/>
      <path d="M 31 75.875 
Q 24.46875 64.65625 21.28125 53.65625 
Q 18.109375 42.671875 18.109375 31.390625 
Q 18.109375 20.125 21.3125 9.0625 
Q 24.515625 -2 31 -13.1875 
L 23.1875 -13.1875 
Q 15.875 -1.703125 12.234375 9.375 
Q 8.59375 20.453125 8.59375 31.390625 
Q 8.59375 42.28125 12.203125 53.3125 
Q 15.828125 64.359375 23.1875 75.875 
z
" id="DejaVuSans-28"/>
      <path d="M 9.078125 75.984375 
L 18.109375 75.984375 
L 18.109375 31.109375 
L 44.921875 54.6875 
L 56.390625 54.6875 
L 27.390625 29.109375 
L 57.625 0 
L 45.90625 0 
L 18.109375 26.703125 
L 18.109375 0 
L 9.078125 0 
z
" id="DejaVuSans-6b"/>
      <path d="M 48.78125 52.59375 
L 48.78125 44.1875 
Q 44.96875 46.296875 41.140625 47.34375 
Q 37.3125 48.390625 33.40625 48.390625 
Q 24.65625 48.390625 19.8125 42.84375 
Q 14.984375 37.3125 14.984375 27.296875 
Q 14.984375 17.28125 19.8125 11.734375 
Q 24.65625 6.203125 33.40625 6.203125 
Q 37.3125 6.203125 41.140625 7.25 
Q 44.96875 8.296875 48.78125 10.40625 
L 48.78125 2.09375 
Q 45.015625 0.34375 40.984375 -0.53125 
Q 36.96875 -1.421875 32.421875 -1.421875 
Q 20.0625 -1.421875 12.78125 6.34375 
Q 5.515625 14.109375 5.515625 27.296875 
Q 5.515625 40.671875 12.859375 48.328125 
Q 20.21875 56 33.015625 56 
Q 37.15625 56 41.109375 55.140625 
Q 45.0625 54.296875 48.78125 52.59375 
z
" id="DejaVuSans-63"/>
      <path d="M 34.28125 27.484375 
Q 23.390625 27.484375 19.1875 25 
Q 14.984375 22.515625 14.984375 16.5 
Q 14.984375 11.71875 18.140625 8.90625 
Q 21.296875 6.109375 26.703125 6.109375 
Q 34.1875 6.109375 38.703125 11.40625 
Q 43.21875 16.703125 43.21875 25.484375 
L 43.21875 27.484375 
z
M 52.203125 31.203125 
L 52.203125 0 
L 43.21875 0 
L 43.21875 8.296875 
Q 40.140625 3.328125 35.546875 0.953125 
Q 30.953125 -1.421875 24.3125 -1.421875 
Q 15.921875 -1.421875 10.953125 3.296875 
Q 6 8.015625 6 15.921875 
Q 6 25.140625 12.171875 29.828125 
Q 18.359375 34.515625 30.609375 34.515625 
L 43.21875 34.515625 
L 43.21875 35.40625 
Q 43.21875 41.609375 39.140625 45 
Q 35.0625 48.390625 27.6875 48.390625 
Q 23 48.390625 18.546875 47.265625 
Q 14.109375 46.140625 10.015625 43.890625 
L 10.015625 52.203125 
Q 14.9375 54.109375 19.578125 55.046875 
Q 24.21875 56 28.609375 56 
Q 40.484375 56 46.34375 49.84375 
Q 52.203125 43.703125 52.203125 31.203125 
z
" id="DejaVuSans-61"/>
      <path d="M 9.421875 75.984375 
L 18.40625 75.984375 
L 18.40625 0 
L 9.421875 0 
z
" id="DejaVuSans-6c"/>
      <path d="M 30.609375 48.390625 
Q 23.390625 48.390625 19.1875 42.75 
Q 14.984375 37.109375 14.984375 27.296875 
Q 14.984375 17.484375 19.15625 11.84375 
Q 23.34375 6.203125 30.609375 6.203125 
Q 37.796875 6.203125 41.984375 11.859375 
Q 46.1875 17.53125 46.1875 27.296875 
Q 46.1875 37.015625 41.984375 42.703125 
Q 37.796875 48.390625 30.609375 48.390625 
z
M 30.609375 56 
Q 42.328125 56 49.015625 48.375 
Q 55.71875 40.765625 55.71875 27.296875 
Q 55.71875 13.875 49.015625 6.21875 
Q 42.328125 -1.421875 30.609375 -1.421875 
Q 18.84375 -1.421875 12.171875 6.21875 
Q 5.515625 13.875 5.515625 27.296875 
Q 5.515625 40.765625 12.171875 48.375 
Q 18.84375 56 30.609375 56 
z
" id="DejaVuSans-6f"/>
      <path d="M 8.015625 75.875 
L 15.828125 75.875 
Q 23.140625 64.359375 26.78125 53.3125 
Q 30.421875 42.28125 30.421875 31.390625 
Q 30.421875 20.453125 26.78125 9.375 
Q 23.140625 -1.703125 15.828125 -13.1875 
L 8.015625 -13.1875 
Q 14.5 -2 17.703125 9.0625 
Q 20.90625 20.125 20.90625 31.390625 
Q 20.90625 42.671875 17.703125 53.65625 
Q 14.5 64.65625 8.015625 75.875 
z
" id="DejaVuSans-29"/>
     </defs>
     <g transform="translate(51.625 250.987983)scale(0.1 -0.1)">
      <use transform="translate(0 0.684375)" xlink:href="#DejaVuSans-6d"/>
      <use transform="translate(97.412109 0.684375)" xlink:href="#DejaVuSans-43"/>
      <use transform="translate(167.236328 0.684375)" xlink:href="#DejaVuSans-53"/>
      <use transform="translate(230.712891 0.684375)" xlink:href="#DejaVuSans-4d"/>
      <use transform="translate(316.992188 0.684375)" xlink:href="#DejaVuSans-2d"/>
      <use transform="translate(353.076172 0.684375)" xlink:href="#DejaVuSans-50"/>
      <use transform="translate(413.378906 0.684375)" xlink:href="#DejaVuSans-50"/>
      <use transform="translate(473.681641 0.684375)" xlink:href="#DejaVuSans-49"/>
      <use transform="translate(503.173828 0.684375)" xlink:href="#DejaVuSans-32"/>
      <use transform="translate(566.796875 0.684375)" xlink:href="#DejaVuSans-20"/>
      <use transform="translate(598.583984 0.684375)" xlink:href="#DejaVuSans-394"/>
      <use transform="translate(666.992188 0.684375)" xlink:href="#DejaVuSans-394"/>
      <use transform="translate(735.400391 0.684375)" xlink:href="#DejaVuSans-47"/>
      <use transform="translate(812.890625 0.684375)" xlink:href="#DejaVuSans-20"/>
      <use transform="translate(844.677734 0.684375)" xlink:href="#DejaVuSans-28"/>
      <use transform="translate(883.691406 0.684375)" xlink:href="#DejaVuSans-6b"/>
      <use transform="translate(941.601562 0.684375)" xlink:href="#DejaVuSans-63"/>
      <use transform="translate(996.582031 0.684375)" xlink:href="#DejaVuSans-61"/>
      <use transform="translate(1057.861328 0.684375)" xlink:href="#DejaVuSans-6c"/>
      <use transform="translate(1085.644531 0.684375)" xlink:href="#DejaVuSans-20"/>
      <use transform="translate(1117.431641 0.684375)" xlink:href="#DejaVuSans-6d"/>
      <use transform="translate(1214.84375 0.684375)" xlink:href="#DejaVuSans-6f"/>
      <use transform="translate(1276.025391 0.684375)" xlink:href="#DejaVuSans-6c"/>
      <use transform="translate(1304.765625 38.965625)scale(0.7)" xlink:href="#DejaVuSans-2212"/>
      <use transform="translate(1363.417969 38.965625)scale(0.7)" xlink:href="#DejaVuSans-31"/>
      <use transform="translate(1410.688477 0.684375)" xlink:href="#DejaVuSans-29"/>
     </g>
    </g>
   </g>
   <g id="matplotlib.axis_2">
    <g id="ytick_1">
     <g id="line2d_5">
      <defs>
       <path d="M 0 0 
L -3.5 0 
" id="m873ba564de" style="stroke:#000000;stroke-width:0.8;"/>
      </defs>
      <g>
       <use style="stroke:#000000;stroke-width:0.8;" x="44.55" xlink:href="#m873ba564de" y="221.989545"/>
      </g>
     </g>
     <g id="text_6">
      <!-- 0 -->
      <g transform="translate(31.1875 225.788764)scale(0.1 -0.1)">
       <use xlink:href="#DejaVuSans-30"/>
      </g>
     </g>
    </g>
    <g id="ytick_2">
     <g id="line2d_6">
      <g>
       <use style="stroke:#000000;stroke-width:0.8;" x="44.55" xlink:href="#m873ba564de" y="187.541494"/>
      </g>
     </g>
     <g id="text_7">
      <!-- 5 -->
      <defs>
       <path d="M 10.796875 72.90625 
L 49.515625 72.90625 
L 49.515625 64.59375 
L 19.828125 64.59375 
L 19.828125 46.734375 
Q 21.96875 47.46875 24.109375 47.828125 
Q 26.265625 48.1875 28.421875 48.1875 
Q 40.625 48.1875 47.75 41.5 
Q 54.890625 34.8125 54.890625 23.390625 
Q 54.890625 11.625 47.5625 5.09375 
Q 40.234375 -1.421875 26.90625 -1.421875 
Q 22.3125 -1.421875 17.546875 -0.640625 
Q 12.796875 0.140625 7.71875 1.703125 
L 7.71875 11.625 
Q 12.109375 9.234375 16.796875 8.0625 
Q 21.484375 6.890625 26.703125 6.890625 
Q 35.15625 6.890625 40.078125 11.328125 
Q 45.015625 15.765625 45.015625 23.390625 
Q 45.015625 31 40.078125 35.4375 
Q 35.15625 39.890625 26.703125 39.890625 
Q 22.75 39.890625 18.8125 39.015625 
Q 14.890625 38.140625 10.796875 36.28125 
z
" id="DejaVuSans-35"/>
      </defs>
      <g transform="translate(31.1875 191.340712)scale(0.1 -0.1)">
       <use xlink:href="#DejaVuSans-35"/>
      </g>
     </g>
    </g>
    <g id="ytick_3">
     <g id="line2d_7">
      <g>
       <use style="stroke:#000000;stroke-width:0.8;" x="44.55" xlink:href="#m873ba564de" y="153.093442"/>
      </g>
     </g>
     <g id="text_8">
      <!-- 10 -->
      <g transform="translate(24.825 156.89266)scale(0.1 -0.1)">
       <use xlink:href="#DejaVuSans-31"/>
       <use x="63.623047" xlink:href="#DejaVuSans-30"/>
      </g>
     </g>
    </g>
    <g id="ytick_4">
     <g id="line2d_8">
      <g>
       <use style="stroke:#000000;stroke-width:0.8;" x="44.55" xlink:href="#m873ba564de" y="118.64539"/>
      </g>
     </g>
     <g id="text_9">
      <!-- 15 -->
      <g transform="translate(24.825 122.444608)scale(0.1 -0.1)">
       <use xlink:href="#DejaVuSans-31"/>
       <use x="63.623047" xlink:href="#DejaVuSans-35"/>
      </g>
     </g>
    </g>
    <g id="ytick_5">
     <g id="line2d_9">
      <g>
       <use style="stroke:#000000;stroke-width:0.8;" x="44.55" xlink:href="#m873ba564de" y="84.197338"/>
      </g>
     </g>
     <g id="text_10">
      <!-- 20 -->
      <g transform="translate(24.825 87.996556)scale(0.1 -0.1)">
       <use xlink:href="#DejaVuSans-32"/>
       <use x="63.623047" xlink:href="#DejaVuSans-30"/>
      </g>
     </g>
    </g>
    <g id="text_11">
     <!-- Frequency -->
     <defs>
      <path d="M 9.8125 72.90625 
L 51.703125 72.90625 
L 51.703125 64.59375 
L 19.671875 64.59375 
L 19.671875 43.109375 
L 48.578125 43.109375 
L 48.578125 34.8125 
L 19.671875 34.8125 
L 19.671875 0 
L 9.8125 0 
z
" id="DejaVuSans-46"/>
      <path d="M 41.109375 46.296875 
Q 39.59375 47.171875 37.8125 47.578125 
Q 36.03125 48 33.890625 48 
Q 26.265625 48 22.1875 43.046875 
Q 18.109375 38.09375 18.109375 28.8125 
L 18.109375 0 
L 9.078125 0 
L 9.078125 54.6875 
L 18.109375 54.6875 
L 18.109375 46.1875 
Q 20.953125 51.171875 25.484375 53.578125 
Q 30.03125 56 36.53125 56 
Q 37.453125 56 38.578125 55.875 
Q 39.703125 55.765625 41.0625 55.515625 
z
" id="DejaVuSans-72"/>
      <path d="M 56.203125 29.59375 
L 56.203125 25.203125 
L 14.890625 25.203125 
Q 15.484375 15.921875 20.484375 11.0625 
Q 25.484375 6.203125 34.421875 6.203125 
Q 39.59375 6.203125 44.453125 7.46875 
Q 49.3125 8.734375 54.109375 11.28125 
L 54.109375 2.78125 
Q 49.265625 0.734375 44.1875 -0.34375 
Q 39.109375 -1.421875 33.890625 -1.421875 
Q 20.796875 -1.421875 13.15625 6.1875 
Q 5.515625 13.8125 5.515625 26.8125 
Q 5.515625 40.234375 12.765625 48.109375 
Q 20.015625 56 32.328125 56 
Q 43.359375 56 49.78125 48.890625 
Q 56.203125 41.796875 56.203125 29.59375 
z
M 47.21875 32.234375 
Q 47.125 39.59375 43.09375 43.984375 
Q 39.0625 48.390625 32.421875 48.390625 
Q 24.90625 48.390625 20.390625 44.140625 
Q 15.875 39.890625 15.1875 32.171875 
z
" id="DejaVuSans-65"/>
      <path d="M 14.796875 27.296875 
Q 14.796875 17.390625 18.875 11.75 
Q 22.953125 6.109375 30.078125 6.109375 
Q 37.203125 6.109375 41.296875 11.75 
Q 45.40625 17.390625 45.40625 27.296875 
Q 45.40625 37.203125 41.296875 42.84375 
Q 37.203125 48.484375 30.078125 48.484375 
Q 22.953125 48.484375 18.875 42.84375 
Q 14.796875 37.203125 14.796875 27.296875 
z
M 45.40625 8.203125 
Q 42.578125 3.328125 38.25 0.953125 
Q 33.9375 -1.421875 27.875 -1.421875 
Q 17.96875 -1.421875 11.734375 6.484375 
Q 5.515625 14.40625 5.515625 27.296875 
Q 5.515625 40.1875 11.734375 48.09375 
Q 17.96875 56 27.875 56 
Q 33.9375 56 38.25 53.625 
Q 42.578125 51.265625 45.40625 46.390625 
L 45.40625 54.6875 
L 54.390625 54.6875 
L 54.390625 -20.796875 
L 45.40625 -20.796875 
z
" id="DejaVuSans-71"/>
      <path d="M 8.5 21.578125 
L 8.5 54.6875 
L 17.484375 54.6875 
L 17.484375 21.921875 
Q 17.484375 14.15625 20.5 10.265625 
Q 23.53125 6.390625 29.59375 6.390625 
Q 36.859375 6.390625 41.078125 11.03125 
Q 45.3125 15.671875 45.3125 23.6875 
L 45.3125 54.6875 
L 54.296875 54.6875 
L 54.296875 0 
L 45.3125 0 
L 45.3125 8.40625 
Q 42.046875 3.421875 37.71875 1 
Q 33.40625 -1.421875 27.6875 -1.421875 
Q 18.265625 -1.421875 13.375 4.4375 
Q 8.5 10.296875 8.5 21.578125 
z
M 31.109375 56 
z
" id="DejaVuSans-75"/>
      <path d="M 54.890625 33.015625 
L 54.890625 0 
L 45.90625 0 
L 45.90625 32.71875 
Q 45.90625 40.484375 42.875 44.328125 
Q 39.84375 48.1875 33.796875 48.1875 
Q 26.515625 48.1875 22.3125 43.546875 
Q 18.109375 38.921875 18.109375 30.90625 
L 18.109375 0 
L 9.078125 0 
L 9.078125 54.6875 
L 18.109375 54.6875 
L 18.109375 46.1875 
Q 21.34375 51.125 25.703125 53.5625 
Q 30.078125 56 35.796875 56 
Q 45.21875 56 50.046875 50.171875 
Q 54.890625 44.34375 54.890625 33.015625 
z
" id="DejaVuSans-6e"/>
      <path d="M 32.171875 -5.078125 
Q 28.375 -14.84375 24.75 -17.8125 
Q 21.140625 -20.796875 15.09375 -20.796875 
L 7.90625 -20.796875 
L 7.90625 -13.28125 
L 13.1875 -13.28125 
Q 16.890625 -13.28125 18.9375 -11.515625 
Q 21 -9.765625 23.484375 -3.21875 
L 25.09375 0.875 
L 2.984375 54.6875 
L 12.5 54.6875 
L 29.59375 11.921875 
L 46.6875 54.6875 
L 56.203125 54.6875 
z
" id="DejaVuSans-79"/>
     </defs>
     <g transform="translate(18.745313 168.712202)rotate(-90)scale(0.1 -0.1)">
      <use xlink:href="#DejaVuSans-46"/>
      <use x="57.410156" xlink:href="#DejaVuSans-72"/>
      <use x="98.492188" xlink:href="#DejaVuSans-65"/>
      <use x="160.015625" xlink:href="#DejaVuSans-71"/>
      <use x="223.492188" xlink:href="#DejaVuSans-75"/>
      <use x="286.871094" xlink:href="#DejaVuSans-65"/>
      <use x="348.394531" xlink:href="#DejaVuSans-6e"/>
      <use x="411.773438" xlink:href="#DejaVuSans-63"/>
      <use x="466.753906" xlink:href="#DejaVuSans-79"/>
     </g>
    </g>
   </g>
   <g id="patch_23">
    <path d="M 44.55 221.989545 
L 44.55 62.839545 
" style="fill:none;stroke:#000000;stroke-linecap:square;stroke-linejoin:miter;stroke-width:0.8;"/>
   </g>
   <g id="patch_24">
    <path d="M 203.7 221.989545 
L 203.7 62.839545 
" style="fill:none;stroke:#000000;stroke-linecap:square;stroke-linejoin:miter;stroke-width:0.8;"/>
   </g>
   <g id="patch_25">
    <path d="M 44.55 221.989545 
L 203.7 221.989545 
" style="fill:none;stroke:#000000;stroke-linecap:square;stroke-linejoin:miter;stroke-width:0.8;"/>
   </g>
   <g id="patch_26">
    <path d="M 44.55 62.839545 
L 203.7 62.839545 
" style="fill:none;stroke:#000000;stroke-linecap:square;stroke-linejoin:miter;stroke-width:0.8;"/>
   </g>
  </g>
  <g id="axes_2">
   <g id="patch_27">
    <path d="M 258.55 221.989545 
L 417.7 221.989545 
L 417.7 62.839545 
L 258.55 62.839545 
z
" style="fill:#ffffff;"/>
   </g>
   <g id="matplotlib.axis_3">
    <g id="xtick_5">
     <g id="line2d_10">
      <g>
       <use style="stroke:#000000;stroke-width:0.8;" x="282.607006" xlink:href="#m6493f18604" y="221.989545"/>
      </g>
     </g>
     <g id="text_12">
      <!-- −2 -->
      <g transform="translate(275.235913 236.587983)scale(0.1 -0.1)">
       <use xlink:href="#DejaVuSans-2212"/>
       <use x="83.789062" xlink:href="#DejaVuSans-32"/>
      </g>
     </g>
    </g>
    <g id="xtick_6">
     <g id="line2d_11">
      <g>
       <use style="stroke:#000000;stroke-width:0.8;" x="338.125" xlink:href="#m6493f18604" y="221.989545"/>
      </g>
     </g>
     <g id="text_13">
      <!-- 0 -->
      <g transform="translate(334.94375 236.587983)scale(0.1 -0.1)">
       <use xlink:href="#DejaVuSans-30"/>
      </g>
     </g>
    </g>
    <g id="xtick_7">
     <g id="line2d_12">
      <g>
       <use style="stroke:#000000;stroke-width:0.8;" x="393.642994" xlink:href="#m6493f18604" y="221.989545"/>
      </g>
     </g>
     <g id="text_14">
      <!-- 2 -->
      <g transform="translate(390.461744 236.587983)scale(0.1 -0.1)">
       <use xlink:href="#DejaVuSans-32"/>
      </g>
     </g>
    </g>
    <g id="text_15">
     <!-- Theoretical quantiles -->
     <defs>
      <path d="M -0.296875 72.90625 
L 61.375 72.90625 
L 61.375 64.59375 
L 35.5 64.59375 
L 35.5 0 
L 25.59375 0 
L 25.59375 64.59375 
L -0.296875 64.59375 
z
" id="DejaVuSans-54"/>
      <path d="M 54.890625 33.015625 
L 54.890625 0 
L 45.90625 0 
L 45.90625 32.71875 
Q 45.90625 40.484375 42.875 44.328125 
Q 39.84375 48.1875 33.796875 48.1875 
Q 26.515625 48.1875 22.3125 43.546875 
Q 18.109375 38.921875 18.109375 30.90625 
L 18.109375 0 
L 9.078125 0 
L 9.078125 75.984375 
L 18.109375 75.984375 
L 18.109375 46.1875 
Q 21.34375 51.125 25.703125 53.5625 
Q 30.078125 56 35.796875 56 
Q 45.21875 56 50.046875 50.171875 
Q 54.890625 44.34375 54.890625 33.015625 
z
" id="DejaVuSans-68"/>
      <path d="M 18.3125 70.21875 
L 18.3125 54.6875 
L 36.8125 54.6875 
L 36.8125 47.703125 
L 18.3125 47.703125 
L 18.3125 18.015625 
Q 18.3125 11.328125 20.140625 9.421875 
Q 21.96875 7.515625 27.59375 7.515625 
L 36.8125 7.515625 
L 36.8125 0 
L 27.59375 0 
Q 17.1875 0 13.234375 3.875 
Q 9.28125 7.765625 9.28125 18.015625 
L 9.28125 47.703125 
L 2.6875 47.703125 
L 2.6875 54.6875 
L 9.28125 54.6875 
L 9.28125 70.21875 
z
" id="DejaVuSans-74"/>
      <path d="M 9.421875 54.6875 
L 18.40625 54.6875 
L 18.40625 0 
L 9.421875 0 
z
M 9.421875 75.984375 
L 18.40625 75.984375 
L 18.40625 64.59375 
L 9.421875 64.59375 
z
" id="DejaVuSans-69"/>
      <path d="M 44.28125 53.078125 
L 44.28125 44.578125 
Q 40.484375 46.53125 36.375 47.5 
Q 32.28125 48.484375 27.875 48.484375 
Q 21.1875 48.484375 17.84375 46.4375 
Q 14.5 44.390625 14.5 40.28125 
Q 14.5 37.15625 16.890625 35.375 
Q 19.28125 33.59375 26.515625 31.984375 
L 29.59375 31.296875 
Q 39.15625 29.25 43.1875 25.515625 
Q 47.21875 21.78125 47.21875 15.09375 
Q 47.21875 7.46875 41.1875 3.015625 
Q 35.15625 -1.421875 24.609375 -1.421875 
Q 20.21875 -1.421875 15.453125 -0.5625 
Q 10.6875 0.296875 5.421875 2 
L 5.421875 11.28125 
Q 10.40625 8.6875 15.234375 7.390625 
Q 20.0625 6.109375 24.8125 6.109375 
Q 31.15625 6.109375 34.5625 8.28125 
Q 37.984375 10.453125 37.984375 14.40625 
Q 37.984375 18.0625 35.515625 20.015625 
Q 33.0625 21.96875 24.703125 23.78125 
L 21.578125 24.515625 
Q 13.234375 26.265625 9.515625 29.90625 
Q 5.8125 33.546875 5.8125 39.890625 
Q 5.8125 47.609375 11.28125 51.796875 
Q 16.75 56 26.8125 56 
Q 31.78125 56 36.171875 55.265625 
Q 40.578125 54.546875 44.28125 53.078125 
z
" id="DejaVuSans-73"/>
     </defs>
     <g transform="translate(285.5 250.266108)scale(0.1 -0.1)">
      <use xlink:href="#DejaVuSans-54"/>
      <use x="61.083984" xlink:href="#DejaVuSans-68"/>
      <use x="124.462891" xlink:href="#DejaVuSans-65"/>
      <use x="185.986328" xlink:href="#DejaVuSans-6f"/>
      <use x="247.167969" xlink:href="#DejaVuSans-72"/>
      <use x="288.25" xlink:href="#DejaVuSans-65"/>
      <use x="349.773438" xlink:href="#DejaVuSans-74"/>
      <use x="388.982422" xlink:href="#DejaVuSans-69"/>
      <use x="416.765625" xlink:href="#DejaVuSans-63"/>
      <use x="471.746094" xlink:href="#DejaVuSans-61"/>
      <use x="533.025391" xlink:href="#DejaVuSans-6c"/>
      <use x="560.808594" xlink:href="#DejaVuSans-20"/>
      <use x="592.595703" xlink:href="#DejaVuSans-71"/>
      <use x="656.072266" xlink:href="#DejaVuSans-75"/>
      <use x="719.451172" xlink:href="#DejaVuSans-61"/>
      <use x="780.730469" xlink:href="#DejaVuSans-6e"/>
      <use x="844.109375" xlink:href="#DejaVuSans-74"/>
      <use x="883.318359" xlink:href="#DejaVuSans-69"/>
      <use x="911.101562" xlink:href="#DejaVuSans-6c"/>
      <use x="938.884766" xlink:href="#DejaVuSans-65"/>
      <use x="1000.408203" xlink:href="#DejaVuSans-73"/>
     </g>
    </g>
   </g>
   <g id="matplotlib.axis_4">
    <g id="ytick_6">
     <g id="line2d_13">
      <g>
       <use style="stroke:#000000;stroke-width:0.8;" x="258.55" xlink:href="#m873ba564de" y="191.282851"/>
      </g>
     </g>
     <g id="text_16">
      <!-- −2 -->
      <g transform="translate(236.807813 195.08207)scale(0.1 -0.1)">
       <use xlink:href="#DejaVuSans-2212"/>
       <use x="83.789062" xlink:href="#DejaVuSans-32"/>
      </g>
     </g>
    </g>
    <g id="ytick_7">
     <g id="line2d_14">
      <g>
       <use style="stroke:#000000;stroke-width:0.8;" x="258.55" xlink:href="#m873ba564de" y="155.337058"/>
      </g>
     </g>
     <g id="text_17">
      <!-- −1 -->
      <g transform="translate(236.807813 159.136277)scale(0.1 -0.1)">
       <use xlink:href="#DejaVuSans-2212"/>
       <use x="83.789062" xlink:href="#DejaVuSans-31"/>
      </g>
     </g>
    </g>
    <g id="ytick_8">
     <g id="line2d_15">
      <g>
       <use style="stroke:#000000;stroke-width:0.8;" x="258.55" xlink:href="#m873ba564de" y="119.391265"/>
      </g>
     </g>
     <g id="text_18">
      <!-- 0 -->
      <g transform="translate(245.1875 123.190484)scale(0.1 -0.1)">
       <use xlink:href="#DejaVuSans-30"/>
      </g>
     </g>
    </g>
    <g id="ytick_9">
     <g id="line2d_16">
      <g>
       <use style="stroke:#000000;stroke-width:0.8;" x="258.55" xlink:href="#m873ba564de" y="83.445471"/>
      </g>
     </g>
     <g id="text_19">
      <!-- 1 -->
      <g transform="translate(245.1875 87.24469)scale(0.1 -0.1)">
       <use xlink:href="#DejaVuSans-31"/>
      </g>
     </g>
    </g>
    <g id="text_20">
     <!-- mCSM-PPI2 ΔΔG (kcal mol$^{-1}$) -->
     <g transform="translate(230.728125 214.914545)rotate(-90)scale(0.1 -0.1)">
      <use transform="translate(0 0.684375)" xlink:href="#DejaVuSans-6d"/>
      <use transform="translate(97.412109 0.684375)" xlink:href="#DejaVuSans-43"/>
      <use transform="translate(167.236328 0.684375)" xlink:href="#DejaVuSans-53"/>
      <use transform="translate(230.712891 0.684375)" xlink:href="#DejaVuSans-4d"/>
      <use transform="translate(316.992188 0.684375)" xlink:href="#DejaVuSans-2d"/>
      <use transform="translate(353.076172 0.684375)" xlink:href="#DejaVuSans-50"/>
      <use transform="translate(413.378906 0.684375)" xlink:href="#DejaVuSans-50"/>
      <use transform="translate(473.681641 0.684375)" xlink:href="#DejaVuSans-49"/>
      <use transform="translate(503.173828 0.684375)" xlink:href="#DejaVuSans-32"/>
      <use transform="translate(566.796875 0.684375)" xlink:href="#DejaVuSans-20"/>
      <use transform="translate(598.583984 0.684375)" xlink:href="#DejaVuSans-394"/>
      <use transform="translate(666.992188 0.684375)" xlink:href="#DejaVuSans-394"/>
      <use transform="translate(735.400391 0.684375)" xlink:href="#DejaVuSans-47"/>
      <use transform="translate(812.890625 0.684375)" xlink:href="#DejaVuSans-20"/>
      <use transform="translate(844.677734 0.684375)" xlink:href="#DejaVuSans-28"/>
      <use transform="translate(883.691406 0.684375)" xlink:href="#DejaVuSans-6b"/>
      <use transform="translate(941.601562 0.684375)" xlink:href="#DejaVuSans-63"/>
      <use transform="translate(996.582031 0.684375)" xlink:href="#DejaVuSans-61"/>
      <use transform="translate(1057.861328 0.684375)" xlink:href="#DejaVuSans-6c"/>
      <use transform="translate(1085.644531 0.684375)" xlink:href="#DejaVuSans-20"/>
      <use transform="translate(1117.431641 0.684375)" xlink:href="#DejaVuSans-6d"/>
      <use transform="translate(1214.84375 0.684375)" xlink:href="#DejaVuSans-6f"/>
      <use transform="translate(1276.025391 0.684375)" xlink:href="#DejaVuSans-6c"/>
      <use transform="translate(1304.765625 38.965625)scale(0.7)" xlink:href="#DejaVuSans-2212"/>
      <use transform="translate(1363.417969 38.965625)scale(0.7)" xlink:href="#DejaVuSans-31"/>
      <use transform="translate(1410.688477 0.684375)" xlink:href="#DejaVuSans-29"/>
     </g>
    </g>
   </g>
   <g id="line2d_17">
    <defs>
     <path d="M 0 3 
C 0.795609 3 1.55874 2.683901 2.12132 2.12132 
C 2.683901 1.55874 3 0.795609 3 0 
C 3 -0.795609 2.683901 -1.55874 2.12132 -2.12132 
C 1.55874 -2.683901 0.795609 -3 0 -3 
C -0.795609 -3 -1.55874 -2.683901 -2.12132 -2.12132 
C -2.683901 -1.55874 -3 -0.795609 -3 0 
C -3 0.795609 -2.683901 1.55874 -2.12132 2.12132 
C -1.55874 2.683901 -0.795609 3 0 3 
z
" id="m0c0d98659f" style="stroke:#0000ff;"/>
    </defs>
    <g clip-path="url(#pba608f5d08)">
     <use style="fill:#0000ff;stroke:#0000ff;" x="265.784091" xlink:href="#m0c0d98659f" y="214.755455"/>
     <use style="fill:#0000ff;stroke:#0000ff;" x="274.656907" xlink:href="#m0c0d98659f" y="188.838538"/>
     <use style="fill:#0000ff;stroke:#0000ff;" x="279.740955" xlink:href="#m0c0d98659f" y="188.694754"/>
     <use style="fill:#0000ff;stroke:#0000ff;" x="283.395831" xlink:href="#m0c0d98659f" y="186.502061"/>
     <use style="fill:#0000ff;stroke:#0000ff;" x="286.292735" xlink:href="#m0c0d98659f" y="185.675308"/>
     <use style="fill:#0000ff;stroke:#0000ff;" x="288.715249" xlink:href="#m0c0d98659f" y="185.459633"/>
     <use style="fill:#0000ff;stroke:#0000ff;" x="290.811096" xlink:href="#m0c0d98659f" y="185.243958"/>
     <use style="fill:#0000ff;stroke:#0000ff;" x="292.667456" xlink:href="#m0c0d98659f" y="185.064229"/>
     <use style="fill:#0000ff;stroke:#0000ff;" x="294.340273" xlink:href="#m0c0d98659f" y="183.51856"/>
     <use style="fill:#0000ff;stroke:#0000ff;" x="295.867685" xlink:href="#m0c0d98659f" y="181.46965"/>
     <use style="fill:#0000ff;stroke:#0000ff;" x="297.27691" xlink:href="#m0c0d98659f" y="180.678842"/>
     <use style="fill:#0000ff;stroke:#0000ff;" x="298.588084" xlink:href="#m0c0d98659f" y="180.606951"/>
     <use style="fill:#0000ff;stroke:#0000ff;" x="299.816541" xlink:href="#m0c0d98659f" y="179.600469"/>
     <use style="fill:#0000ff;stroke:#0000ff;" x="300.97424" xlink:href="#m0c0d98659f" y="178.73777"/>
     <use style="fill:#0000ff;stroke:#0000ff;" x="302.0707" xlink:href="#m0c0d98659f" y="177.659396"/>
     <use style="fill:#0000ff;stroke:#0000ff;" x="303.113623" xlink:href="#m0c0d98659f" y="177.515613"/>
     <use style="fill:#0000ff;stroke:#0000ff;" x="304.109339" xlink:href="#m0c0d98659f" y="176.329401"/>
     <use style="fill:#0000ff;stroke:#0000ff;" x="305.063112" xlink:href="#m0c0d98659f" y="174.711841"/>
     <use style="fill:#0000ff;stroke:#0000ff;" x="305.979374" xlink:href="#m0c0d98659f" y="174.244545"/>
     <use style="fill:#0000ff;stroke:#0000ff;" x="306.86189" xlink:href="#m0c0d98659f" y="173.52563"/>
     <use style="fill:#0000ff;stroke:#0000ff;" x="307.713889" xlink:href="#m0c0d98659f" y="173.52563"/>
     <use style="fill:#0000ff;stroke:#0000ff;" x="308.538163" xlink:href="#m0c0d98659f" y="171.944015"/>
     <use style="fill:#0000ff;stroke:#0000ff;" x="309.337142" xlink:href="#m0c0d98659f" y="167.989977"/>
     <use style="fill:#0000ff;stroke:#0000ff;" x="310.112958" xlink:href="#m0c0d98659f" y="166.983495"/>
     <use style="fill:#0000ff;stroke:#0000ff;" x="310.867488" xlink:href="#m0c0d98659f" y="166.983495"/>
     <use style="fill:#0000ff;stroke:#0000ff;" x="311.602398" xlink:href="#m0c0d98659f" y="165.725392"/>
     <use style="fill:#0000ff;stroke:#0000ff;" x="312.319173" xlink:href="#m0c0d98659f" y="165.15026"/>
     <use style="fill:#0000ff;stroke:#0000ff;" x="313.019142" xlink:href="#m0c0d98659f" y="163.748374"/>
     <use style="fill:#0000ff;stroke:#0000ff;" x="313.703501" xlink:href="#m0c0d98659f" y="163.748374"/>
     <use style="fill:#0000ff;stroke:#0000ff;" x="314.373329" xlink:href="#m0c0d98659f" y="163.281078"/>
     <use style="fill:#0000ff;stroke:#0000ff;" x="315.029604" xlink:href="#m0c0d98659f" y="162.562163"/>
     <use style="fill:#0000ff;stroke:#0000ff;" x="315.673217" xlink:href="#m0c0d98659f" y="162.490271"/>
     <use style="fill:#0000ff;stroke:#0000ff;" x="316.304982" xlink:href="#m0c0d98659f" y="160.800819"/>
     <use style="fill:#0000ff;stroke:#0000ff;" x="316.925641" xlink:href="#m0c0d98659f" y="159.758391"/>
     <use style="fill:#0000ff;stroke:#0000ff;" x="317.535878" xlink:href="#m0c0d98659f" y="158.068938"/>
     <use style="fill:#0000ff;stroke:#0000ff;" x="318.136324" xlink:href="#m0c0d98659f" y="156.163811"/>
     <use style="fill:#0000ff;stroke:#0000ff;" x="318.727559" xlink:href="#m0c0d98659f" y="155.588679"/>
     <use style="fill:#0000ff;stroke:#0000ff;" x="319.310123" xlink:href="#m0c0d98659f" y="155.444896"/>
     <use style="fill:#0000ff;stroke:#0000ff;" x="319.884516" xlink:href="#m0c0d98659f" y="152.101937"/>
     <use style="fill:#0000ff;stroke:#0000ff;" x="320.451202" xlink:href="#m0c0d98659f" y="151.526804"/>
     <use style="fill:#0000ff;stroke:#0000ff;" x="321.010616" xlink:href="#m0c0d98659f" y="151.418967"/>
     <use style="fill:#0000ff;stroke:#0000ff;" x="321.563165" xlink:href="#m0c0d98659f" y="151.095455"/>
     <use style="fill:#0000ff;stroke:#0000ff;" x="322.109227" xlink:href="#m0c0d98659f" y="149.873298"/>
     <use style="fill:#0000ff;stroke:#0000ff;" x="322.649161" xlink:href="#m0c0d98659f" y="148.938707"/>
     <use style="fill:#0000ff;stroke:#0000ff;" x="323.183302" xlink:href="#m0c0d98659f" y="147.03358"/>
     <use style="fill:#0000ff;stroke:#0000ff;" x="323.711967" xlink:href="#m0c0d98659f" y="146.997634"/>
     <use style="fill:#0000ff;stroke:#0000ff;" x="324.235455" xlink:href="#m0c0d98659f" y="146.60223"/>
     <use style="fill:#0000ff;stroke:#0000ff;" x="324.754049" xlink:href="#m0c0d98659f" y="146.170881"/>
     <use style="fill:#0000ff;stroke:#0000ff;" x="325.268018" xlink:href="#m0c0d98659f" y="146.098989"/>
     <use style="fill:#0000ff;stroke:#0000ff;" x="325.777616" xlink:href="#m0c0d98659f" y="145.775477"/>
     <use style="fill:#0000ff;stroke:#0000ff;" x="326.283086" xlink:href="#m0c0d98659f" y="144.3017"/>
     <use style="fill:#0000ff;stroke:#0000ff;" x="326.78466" xlink:href="#m0c0d98659f" y="143.654675"/>
     <use style="fill:#0000ff;stroke:#0000ff;" x="327.282558" xlink:href="#m0c0d98659f" y="143.331163"/>
     <use style="fill:#0000ff;stroke:#0000ff;" x="327.776991" xlink:href="#m0c0d98659f" y="143.331163"/>
     <use style="fill:#0000ff;stroke:#0000ff;" x="328.268164" xlink:href="#m0c0d98659f" y="143.295217"/>
     <use style="fill:#0000ff;stroke:#0000ff;" x="328.756269" xlink:href="#m0c0d98659f" y="141.965223"/>
     <use style="fill:#0000ff;stroke:#0000ff;" x="329.241494" xlink:href="#m0c0d98659f" y="141.929277"/>
     <use style="fill:#0000ff;stroke:#0000ff;" x="329.72402" xlink:href="#m0c0d98659f" y="141.857386"/>
     <use style="fill:#0000ff;stroke:#0000ff;" x="330.204021" xlink:href="#m0c0d98659f" y="141.785494"/>
     <use style="fill:#0000ff;stroke:#0000ff;" x="330.681664" xlink:href="#m0c0d98659f" y="141.533874"/>
     <use style="fill:#0000ff;stroke:#0000ff;" x="331.157114" xlink:href="#m0c0d98659f" y="140.886849"/>
     <use style="fill:#0000ff;stroke:#0000ff;" x="331.630528" xlink:href="#m0c0d98659f" y="140.671174"/>
     <use style="fill:#0000ff;stroke:#0000ff;" x="332.102061" xlink:href="#m0c0d98659f" y="140.275771"/>
     <use style="fill:#0000ff;stroke:#0000ff;" x="332.571862" xlink:href="#m0c0d98659f" y="139.556855"/>
     <use style="fill:#0000ff;stroke:#0000ff;" x="333.040078" xlink:href="#m0c0d98659f" y="139.08956"/>
     <use style="fill:#0000ff;stroke:#0000ff;" x="333.506851" xlink:href="#m0c0d98659f" y="138.909831"/>
     <use style="fill:#0000ff;stroke:#0000ff;" x="333.972322" xlink:href="#m0c0d98659f" y="138.801993"/>
     <use style="fill:#0000ff;stroke:#0000ff;" x="334.436629" xlink:href="#m0c0d98659f" y="138.622264"/>
     <use style="fill:#0000ff;stroke:#0000ff;" x="334.899906" xlink:href="#m0c0d98659f" y="138.586318"/>
     <use style="fill:#0000ff;stroke:#0000ff;" x="335.362286" xlink:href="#m0c0d98659f" y="138.514427"/>
     <use style="fill:#0000ff;stroke:#0000ff;" x="335.8239" xlink:href="#m0c0d98659f" y="138.478481"/>
     <use style="fill:#0000ff;stroke:#0000ff;" x="336.28488" xlink:href="#m0c0d98659f" y="138.226861"/>
     <use style="fill:#0000ff;stroke:#0000ff;" x="336.745352" xlink:href="#m0c0d98659f" y="137.867403"/>
     <use style="fill:#0000ff;stroke:#0000ff;" x="337.205445" xlink:href="#m0c0d98659f" y="136.645246"/>
     <use style="fill:#0000ff;stroke:#0000ff;" x="337.665286" xlink:href="#m0c0d98659f" y="136.429571"/>
     <use style="fill:#0000ff;stroke:#0000ff;" x="338.125" xlink:href="#m0c0d98659f" y="135.782547"/>
     <use style="fill:#0000ff;stroke:#0000ff;" x="338.584714" xlink:href="#m0c0d98659f" y="135.423089"/>
     <use style="fill:#0000ff;stroke:#0000ff;" x="339.044555" xlink:href="#m0c0d98659f" y="135.099577"/>
     <use style="fill:#0000ff;stroke:#0000ff;" x="339.504648" xlink:href="#m0c0d98659f" y="134.776064"/>
     <use style="fill:#0000ff;stroke:#0000ff;" x="339.96512" xlink:href="#m0c0d98659f" y="134.632281"/>
     <use style="fill:#0000ff;stroke:#0000ff;" x="340.4261" xlink:href="#m0c0d98659f" y="134.308769"/>
     <use style="fill:#0000ff;stroke:#0000ff;" x="340.887714" xlink:href="#m0c0d98659f" y="132.834992"/>
     <use style="fill:#0000ff;stroke:#0000ff;" x="341.350094" xlink:href="#m0c0d98659f" y="132.691208"/>
     <use style="fill:#0000ff;stroke:#0000ff;" x="341.813371" xlink:href="#m0c0d98659f" y="132.691208"/>
     <use style="fill:#0000ff;stroke:#0000ff;" x="342.277678" xlink:href="#m0c0d98659f" y="132.475534"/>
     <use style="fill:#0000ff;stroke:#0000ff;" x="342.743149" xlink:href="#m0c0d98659f" y="131.361214"/>
     <use style="fill:#0000ff;stroke:#0000ff;" x="343.209922" xlink:href="#m0c0d98659f" y="131.001756"/>
     <use style="fill:#0000ff;stroke:#0000ff;" x="343.678138" xlink:href="#m0c0d98659f" y="130.893919"/>
     <use style="fill:#0000ff;stroke:#0000ff;" x="344.147939" xlink:href="#m0c0d98659f" y="130.857973"/>
     <use style="fill:#0000ff;stroke:#0000ff;" x="344.619472" xlink:href="#m0c0d98659f" y="130.067165"/>
     <use style="fill:#0000ff;stroke:#0000ff;" x="345.092886" xlink:href="#m0c0d98659f" y="129.995274"/>
     <use style="fill:#0000ff;stroke:#0000ff;" x="345.568336" xlink:href="#m0c0d98659f" y="129.707708"/>
     <use style="fill:#0000ff;stroke:#0000ff;" x="346.045979" xlink:href="#m0c0d98659f" y="129.456087"/>
     <use style="fill:#0000ff;stroke:#0000ff;" x="346.52598" xlink:href="#m0c0d98659f" y="129.420141"/>
     <use style="fill:#0000ff;stroke:#0000ff;" x="347.008506" xlink:href="#m0c0d98659f" y="129.276358"/>
     <use style="fill:#0000ff;stroke:#0000ff;" x="347.493731" xlink:href="#m0c0d98659f" y="128.9169"/>
     <use style="fill:#0000ff;stroke:#0000ff;" x="347.981836" xlink:href="#m0c0d98659f" y="128.845008"/>
     <use style="fill:#0000ff;stroke:#0000ff;" x="348.473009" xlink:href="#m0c0d98659f" y="128.773117"/>
     <use style="fill:#0000ff;stroke:#0000ff;" x="348.967442" xlink:href="#m0c0d98659f" y="127.694743"/>
     <use style="fill:#0000ff;stroke:#0000ff;" x="349.46534" xlink:href="#m0c0d98659f" y="126.760152"/>
     <use style="fill:#0000ff;stroke:#0000ff;" x="349.966914" xlink:href="#m0c0d98659f" y="126.616369"/>
     <use style="fill:#0000ff;stroke:#0000ff;" x="350.472384" xlink:href="#m0c0d98659f" y="126.472586"/>
     <use style="fill:#0000ff;stroke:#0000ff;" x="350.981982" xlink:href="#m0c0d98659f" y="126.256911"/>
     <use style="fill:#0000ff;stroke:#0000ff;" x="351.495951" xlink:href="#m0c0d98659f" y="126.041237"/>
     <use style="fill:#0000ff;stroke:#0000ff;" x="352.014545" xlink:href="#m0c0d98659f" y="125.861508"/>
     <use style="fill:#0000ff;stroke:#0000ff;" x="352.538033" xlink:href="#m0c0d98659f" y="125.250429"/>
     <use style="fill:#0000ff;stroke:#0000ff;" x="353.066698" xlink:href="#m0c0d98659f" y="125.250429"/>
     <use style="fill:#0000ff;stroke:#0000ff;" x="353.600839" xlink:href="#m0c0d98659f" y="125.106646"/>
     <use style="fill:#0000ff;stroke:#0000ff;" x="354.140773" xlink:href="#m0c0d98659f" y="125.0707"/>
     <use style="fill:#0000ff;stroke:#0000ff;" x="354.686835" xlink:href="#m0c0d98659f" y="124.531513"/>
     <use style="fill:#0000ff;stroke:#0000ff;" x="355.239384" xlink:href="#m0c0d98659f" y="124.459622"/>
     <use style="fill:#0000ff;stroke:#0000ff;" x="355.798798" xlink:href="#m0c0d98659f" y="123.057736"/>
     <use style="fill:#0000ff;stroke:#0000ff;" x="356.365484" xlink:href="#m0c0d98659f" y="122.33882"/>
     <use style="fill:#0000ff;stroke:#0000ff;" x="356.939877" xlink:href="#m0c0d98659f" y="122.230982"/>
     <use style="fill:#0000ff;stroke:#0000ff;" x="357.522441" xlink:href="#m0c0d98659f" y="122.123145"/>
     <use style="fill:#0000ff;stroke:#0000ff;" x="358.113676" xlink:href="#m0c0d98659f" y="121.835579"/>
     <use style="fill:#0000ff;stroke:#0000ff;" x="358.714122" xlink:href="#m0c0d98659f" y="121.835579"/>
     <use style="fill:#0000ff;stroke:#0000ff;" x="359.324359" xlink:href="#m0c0d98659f" y="121.152609"/>
     <use style="fill:#0000ff;stroke:#0000ff;" x="359.945018" xlink:href="#m0c0d98659f" y="121.008826"/>
     <use style="fill:#0000ff;stroke:#0000ff;" x="360.576783" xlink:href="#m0c0d98659f" y="120.757205"/>
     <use style="fill:#0000ff;stroke:#0000ff;" x="361.220396" xlink:href="#m0c0d98659f" y="120.253964"/>
     <use style="fill:#0000ff;stroke:#0000ff;" x="361.876671" xlink:href="#m0c0d98659f" y="120.218018"/>
     <use style="fill:#0000ff;stroke:#0000ff;" x="362.546499" xlink:href="#m0c0d98659f" y="120.002343"/>
     <use style="fill:#0000ff;stroke:#0000ff;" x="363.230858" xlink:href="#m0c0d98659f" y="120.002343"/>
     <use style="fill:#0000ff;stroke:#0000ff;" x="363.930827" xlink:href="#m0c0d98659f" y="119.678831"/>
     <use style="fill:#0000ff;stroke:#0000ff;" x="364.647602" xlink:href="#m0c0d98659f" y="118.959915"/>
     <use style="fill:#0000ff;stroke:#0000ff;" x="365.382512" xlink:href="#m0c0d98659f" y="118.92397"/>
     <use style="fill:#0000ff;stroke:#0000ff;" x="366.137042" xlink:href="#m0c0d98659f" y="118.49262"/>
     <use style="fill:#0000ff;stroke:#0000ff;" x="366.912858" xlink:href="#m0c0d98659f" y="117.845596"/>
     <use style="fill:#0000ff;stroke:#0000ff;" x="367.711837" xlink:href="#m0c0d98659f" y="117.665867"/>
     <use style="fill:#0000ff;stroke:#0000ff;" x="368.536111" xlink:href="#m0c0d98659f" y="117.270463"/>
     <use style="fill:#0000ff;stroke:#0000ff;" x="369.38811" xlink:href="#m0c0d98659f" y="116.623439"/>
     <use style="fill:#0000ff;stroke:#0000ff;" x="370.270626" xlink:href="#m0c0d98659f" y="116.335872"/>
     <use style="fill:#0000ff;stroke:#0000ff;" x="371.186888" xlink:href="#m0c0d98659f" y="113.603992"/>
     <use style="fill:#0000ff;stroke:#0000ff;" x="372.140661" xlink:href="#m0c0d98659f" y="111.662919"/>
     <use style="fill:#0000ff;stroke:#0000ff;" x="373.136377" xlink:href="#m0c0d98659f" y="111.015895"/>
     <use style="fill:#0000ff;stroke:#0000ff;" x="374.1793" xlink:href="#m0c0d98659f" y="108.966985"/>
     <use style="fill:#0000ff;stroke:#0000ff;" x="375.27576" xlink:href="#m0c0d98659f" y="108.427798"/>
     <use style="fill:#0000ff;stroke:#0000ff;" x="376.433459" xlink:href="#m0c0d98659f" y="107.960503"/>
     <use style="fill:#0000ff;stroke:#0000ff;" x="377.661916" xlink:href="#m0c0d98659f" y="107.493207"/>
     <use style="fill:#0000ff;stroke:#0000ff;" x="378.97309" xlink:href="#m0c0d98659f" y="106.342942"/>
     <use style="fill:#0000ff;stroke:#0000ff;" x="380.382315" xlink:href="#m0c0d98659f" y="105.048893"/>
     <use style="fill:#0000ff;stroke:#0000ff;" x="381.909727" xlink:href="#m0c0d98659f" y="104.725381"/>
     <use style="fill:#0000ff;stroke:#0000ff;" x="383.582544" xlink:href="#m0c0d98659f" y="100.627561"/>
     <use style="fill:#0000ff;stroke:#0000ff;" x="385.438904" xlink:href="#m0c0d98659f" y="98.866217"/>
     <use style="fill:#0000ff;stroke:#0000ff;" x="387.534751" xlink:href="#m0c0d98659f" y="95.235692"/>
     <use style="fill:#0000ff;stroke:#0000ff;" x="389.957265" xlink:href="#m0c0d98659f" y="91.569221"/>
     <use style="fill:#0000ff;stroke:#0000ff;" x="392.854169" xlink:href="#m0c0d98659f" y="88.981124"/>
     <use style="fill:#0000ff;stroke:#0000ff;" x="396.509045" xlink:href="#m0c0d98659f" y="85.602219"/>
     <use style="fill:#0000ff;stroke:#0000ff;" x="401.593093" xlink:href="#m0c0d98659f" y="81.684128"/>
     <use style="fill:#0000ff;stroke:#0000ff;" x="410.465909" xlink:href="#m0c0d98659f" y="70.073636"/>
    </g>
   </g>
   <g id="line2d_18">
    <path clip-path="url(#pba608f5d08)" d="M 265.784091 204.31944 
L 410.465909 73.722085 
L 410.465909 73.722085 
" style="fill:none;stroke:#ff0000;stroke-linecap:square;stroke-width:1.5;"/>
   </g>
   <g id="patch_28">
    <path d="M 258.55 221.989545 
L 258.55 62.839545 
" style="fill:none;stroke:#000000;stroke-linecap:square;stroke-linejoin:miter;stroke-width:0.8;"/>
   </g>
   <g id="patch_29">
    <path d="M 417.7 221.989545 
L 417.7 62.839545 
" style="fill:none;stroke:#000000;stroke-linecap:square;stroke-linejoin:miter;stroke-width:0.8;"/>
   </g>
   <g id="patch_30">
    <path d="M 258.55 221.989545 
L 417.7 221.989545 
" style="fill:none;stroke:#000000;stroke-linecap:square;stroke-linejoin:miter;stroke-width:0.8;"/>
   </g>
   <g id="patch_31">
    <path d="M 258.55 62.839545 
L 417.7 62.839545 
" style="fill:none;stroke:#000000;stroke-linecap:square;stroke-linejoin:miter;stroke-width:0.8;"/>
   </g>
   <g id="text_21">
    <!-- Probability Plot -->
    <defs>
     <path d="M 48.6875 27.296875 
Q 48.6875 37.203125 44.609375 42.84375 
Q 40.53125 48.484375 33.40625 48.484375 
Q 26.265625 48.484375 22.1875 42.84375 
Q 18.109375 37.203125 18.109375 27.296875 
Q 18.109375 17.390625 22.1875 11.75 
Q 26.265625 6.109375 33.40625 6.109375 
Q 40.53125 6.109375 44.609375 11.75 
Q 48.6875 17.390625 48.6875 27.296875 
z
M 18.109375 46.390625 
Q 20.953125 51.265625 25.265625 53.625 
Q 29.59375 56 35.59375 56 
Q 45.5625 56 51.78125 48.09375 
Q 58.015625 40.1875 58.015625 27.296875 
Q 58.015625 14.40625 51.78125 6.484375 
Q 45.5625 -1.421875 35.59375 -1.421875 
Q 29.59375 -1.421875 25.265625 0.953125 
Q 20.953125 3.328125 18.109375 8.203125 
L 18.109375 0 
L 9.078125 0 
L 9.078125 75.984375 
L 18.109375 75.984375 
z
" id="DejaVuSans-62"/>
    </defs>
    <g transform="translate(292.958125 56.839545)scale(0.12 -0.12)">
     <use xlink:href="#DejaVuSans-50"/>
     <use x="60.287109" xlink:href="#DejaVuSans-72"/>
     <use x="101.369141" xlink:href="#DejaVuSans-6f"/>
     <use x="162.550781" xlink:href="#DejaVuSans-62"/>
     <use x="226.027344" xlink:href="#DejaVuSans-61"/>
     <use x="287.306641" xlink:href="#DejaVuSans-62"/>
     <use x="350.783203" xlink:href="#DejaVuSans-69"/>
     <use x="378.566406" xlink:href="#DejaVuSans-6c"/>
     <use x="406.349609" xlink:href="#DejaVuSans-69"/>
     <use x="434.132812" xlink:href="#DejaVuSans-74"/>
     <use x="473.341797" xlink:href="#DejaVuSans-79"/>
     <use x="532.521484" xlink:href="#DejaVuSans-20"/>
     <use x="564.308594" xlink:href="#DejaVuSans-50"/>
     <use x="624.611328" xlink:href="#DejaVuSans-6c"/>
     <use x="652.394531" xlink:href="#DejaVuSans-6f"/>
     <use x="713.576172" xlink:href="#DejaVuSans-74"/>
    </g>
   </g>
  </g>
 </g>
 <defs>
  <clipPath id="pdface80b10">
   <rect height="159.15" width="159.15" x="44.55" y="62.839545"/>
  </clipPath>
  <clipPath id="pba608f5d08">
   <rect height="159.15" width="159.15" x="258.55" y="62.839545"/>
  </clipPath>
 </defs>
</svg>
